<?xml version="1.0" encoding="UTF-8"?>
<svg width="1200" height="1200" version="1.1" viewBox="0 0 1200 1200" xmlns="http://www.w3.org/2000/svg" xmlns:cc="http://creativecommons.org/ns#" xmlns:dc="http://purl.org/dc/elements/1.1/" xmlns:rdf="http://www.w3.org/1999/02/22-rdf-syntax-ns#">
 <style/>
 <style/>
 <metadata>
  <rdf:RDF>
   <cc:Work rdf:about="">
    <dc:format>image/svg+xml</dc:format>
    <dc:type rdf:resource="http://purl.org/dc/dcmitype/StillImage"/>
    <dc:title/>
   </cc:Work>
  </rdf:RDF>
 </metadata>
 <defs>
  <clipPath id="clipPath1339">
   <path d="m514.77 359.7c-0.35731-45.517-0.58338-82.899-0.50239-83.069 0.081-0.17088 7.1479 3.8463 15.704 8.9271l15.557 9.2378-1.1109 129.54-12.746 7.9892c-7.0101 4.3941-13.535 8.471-14.499 9.0599-1.2998 0.79366-1.9216-20.341-2.4032-81.688z" display="none" fill="#f00" opacity=".987"/>
   <path class="powerclip" d="m472.67 213.79h113.37v293.89h-113.37zm42.105 145.91c0.48157 61.347 1.1033 82.482 2.4032 81.688 0.96445-0.58886 7.489-4.6658 14.499-9.0599l12.746-7.9892 1.1109-129.54-15.557-9.2378c-8.5563-5.0808-15.623-9.098-15.704-8.9271-0.081 0.17089 0.14508 37.552 0.50239 83.069z" fill="#f00" opacity=".987"/>
  </clipPath>
  <clipPath id="clipPath1347">
   <path d="m714.05 322.63c0.25104-22.876 0.93268-42.067 1.5148-42.648 0.58208-0.5807 7.6603 3.0009 15.729 7.9591l14.671 9.0149 0.0345 22.33c0.019 12.281-0.36179 23.806-0.8461 25.611-0.59907 2.2324-5.7844 5.8459-16.22 11.303l-15.34 8.0219z" display="none" fill="#f00" opacity=".987"/>
   <path class="powerclip" d="m674.06 212.34h113.31v279.8h-113.31zm39.987 110.3-0.45639 41.592 15.34-8.0219c10.436-5.4574 15.621-9.0709 16.22-11.303 0.48431-1.8048 0.8651-13.33 0.8461-25.611l-0.0345-22.33-14.671-9.0149c-8.069-4.9582-15.147-8.5398-15.729-7.9591-0.58208 0.58071-1.2637 19.772-1.5148 42.648z" fill="#f00" opacity=".987"/>
  </clipPath>
  <clipPath id="clipPath1355">
   <path d="m875.35 654.44-22.25-12.833v-26.499c0-26.442 8e-3 -26.506 3.8499-29.488 3.9086-3.0342 39.631-24.555 40.758-24.555 0.33825 0 11.403 6.3197 24.588 14.044l23.973 14.044v25.807c0 18.79-0.52342 26.23-1.925 27.362-1.0587 0.85518-12.009 6.8192-24.335 13.253l-22.41 11.698z" display="none" fill="#f00" opacity=".987" stroke="#f80000" stroke-width="1.9"/>
   <path class="powerclip" d="m811.95 517.67h175.4v233.82h-175.4zm63.408 136.77 22.25 12.833 22.41-11.698c12.325-6.4342 23.276-12.398 24.335-13.253 1.4016-1.1321 1.925-8.5722 1.925-27.362v-25.807l-23.973-14.044c-13.185-7.724-24.249-14.044-24.588-14.044-1.1278 0-36.85 21.521-40.758 24.555-3.8419 2.9822-3.8499 3.0456-3.8499 29.488v26.499z" fill="#f00" opacity=".987" stroke="#f80000" stroke-width="1.9"/>
  </clipPath>
 </defs>
 <g>
  <g stroke-width="1.3333">
   <path d="m644.13 301.94c5.7435-2.9701 9.1972-9.3734 9.2032-17.063 9e-3 -11.115-7.4543-18.206-19.16-18.206-12.876 0-22.185 15.08-16.295 26.4 2.0651 3.9692 7.0173 8.8555 10.127 9.9922 4.0064 1.4646 12.229 0.89189 16.125-1.1231z"/>
   <path d="m444.7 301.31c5.003-3.092 8.6327-9.8105 8.6327-15.979 0-14.118-15.377-23.194-28.125-16.602-11.896 6.1519-12.379 25.602-0.81009 32.656 5.6361 3.4365 14.675 3.4032 20.303-0.0749z"/>
   <path d="m643.62 376.44c6.5289-3.0981 9.6997-8.847 9.7058-17.597 4e-3 -6.5387-0.44212-7.604-5.1715-12.333s-5.7946-5.176-12.333-5.1715c-8.7499 7e-3 -14.499 3.1769-17.597 9.7058-2.9594 6.2365-2.8047 12.658 0.43286 17.968 5.4241 8.8962 15.531 11.904 24.963 7.4279z"/>
   <path d="m443.68 376.01c9.1221-5.5618 12.343-17.581 7.0418-26.276-3.3831-5.5485-9.0774-8.3981-16.782-8.3981-10.686 0-17.939 7.591-17.939 18.776 0 14.303 15.599 23.263 27.679 15.897z"/>
   <path d="m644.02 449.52c16.845-9.0068 10.285-35.448-8.6998-35.067-12.153 0.24393-20.037 8.6143-18.874 20.036 0.71203 6.9895 4.1362 12.029 10.314 15.179 5.8946 3.0057 11.449 2.9578 17.259-0.14873z"/>
   <path d="m442.64 449.66c9.832-4.9398 13.641-17.48 8.0806-26.6-7.281-11.941-26.359-11.366-32.747 0.98679-8.3923 16.229 8.478 33.747 24.667 25.613z"/>
   <path id="letter-r" d="m708.35 483.7c2.0277-1.4156 4.5777-4.2968 5.6667-6.4025 2.285-4.4187 2.6079-13.63 0.60881-17.365-0.80316-1.5007-1.2174-10.038-1-20.611l0.37107-18.049 15.333 9.5324c8.4333 5.2428 17.015 11.542 19.07 13.999 4.3568 5.2076 11.982 7.9232 18.706 6.6618 10.005-1.8769 16.929-13.418 14.178-23.633-1.5492-5.7534-9.3043-13.164-13.776-13.164-2.5555 0-9.4399-3.8608-35.5-19.909-2.4768-1.5252-3.0233-1.0978 11.309-8.8442 8.691-4.6974 14.149-6.7336 19.85-7.4058 9.642-1.1369 14.044-4.2272 17.358-12.186 2.3976-5.7573 2.4148-6.4164 0.33333-12.78-3.0515-9.3293-3.1314-52.74-0.11306-61.408 4.42-12.693-4.0157-25.449-16.838-25.462-3.7305-4e-3 -9.3403-2.9068-26-13.454-11.684-7.397-23.043-15.446-25.243-17.887-4.3799-4.859-8.5024-7.3284-12.246-7.3349-1.3316-3e-3 -6.021-2.4015-10.421-5.3315l-8-5.3272-1.0691 10.998c-0.58803 6.049-0.97455 14.598-0.85895 18.998 0.20496 7.8014 0.30258 128.08 0.1168 144-0.0513 4.4-0.0133 21.5 0.0844 38s-0.29049 33.051-0.86281 36.779c-1.5814 10.302 2.195 16.449 12.244 19.929 5.8844 2.0376 11.565 1.2401 16.699-2.3443z" clip-path="url(#clipPath1347)"/>
   <path id="letter-d" d="m532.81 470.48c16.212-10.166 30.492-18.483 31.733-18.483 3.3122 0 8.9874-3.2448 12.79-7.3127 2.8735-3.0741 3.2809-4.609 2.9535-11.127-0.3485-6.9366-0.64474-53.946-0.45935-72.894 0.0431-4.4 0.0345-21.2-0.0191-37.333-0.0535-16.133 0.32474-32.47 0.84051-36.304 0.79053-5.8762 0.47892-7.7134-1.9843-11.699-3.1049-5.0239-8.7106-8.6634-13.344-8.6634-3.6737 0-47.705-25.866-51.849-30.459-4.6094-5.1082-9.6451-8.1842-13.472-8.2289-1.8333-0.0213-6.6333-2.0972-10.667-4.6129l-7.3333-4.574-0.82905 8.9375c-0.45599 4.9156-1.5544 11.391-2.441 14.389-1.3466 4.5544-1.265 6.2822 0.49572 10.496 3.1302 7.4916 3.1582 124.34 0.0321 133.9-1.8727 5.7256-1.8746 6.9225-0.0193 12.251 3.0385 8.7263 2.986 55.483-0.0713 63.488-1.9994 5.2354-1.9994 6.1822 0 12.295 1.2733 3.8928 2.1662 11.058 2.1662 17.381v10.759l11-6.8594c6.05-3.7727 24.265-15.177 40.477-25.342z" clip-path="url(#clipPath1339)"/>
   <path d="m706.11 557.86c12.785-6.0667 13.208-26.649 0.68103-33.127-8.7836-4.5422-20.682-1.5884-25.512 6.3333-9.7836 16.046 7.7078 34.919 24.831 26.793z"/>
   <path d="m506.26 557.39c8.6439-5.2705 11.782-15.093 7.7082-24.127-3.2135-7.1262-9.0939-10.598-17.95-10.598-6.3145 0-7.4865 0.48928-11.977 5-6.8015 6.8325-7.9169 13.143-3.7921 21.454 5.0528 10.181 16.768 13.906 26.011 8.271z"/>
   <path d="m244.14 595.64c11.976-8.0002 11.701-24.085-0.54193-31.778-6.3128-3.9665-16.956-2.9449-22.26 2.1366-4.853 4.6495-7.2067 11.378-6.0803 17.382 0.95538 5.0926 6.4267 12.291 10.637 13.994 5.3905 2.1807 13.544 1.4054 18.245-1.7348z"/>
   <path d="m570.4 671.46c9.6785-5.0357 13.761-16.791 9.0175-25.965-6.2934-12.17-25.658-12.818-32.804-1.0971-3.2096 5.2639-3.4045 14.517-0.41241 19.582 4.6512 7.8739 16.439 11.518 24.199 7.48z"/>
   <path d="m443.68 670.67c9.1221-5.5618 12.343-17.581 7.0418-26.276-3.4275-5.6213-9.0952-8.3981-17.141-8.3981-10.602 0-17.579 7.4523-17.579 18.776 0 14.303 15.599 23.263 27.679 15.897z"/>
   <path d="m370.57 671c9.789-4.9915 13.338-16.05 8.1273-25.322-3.8692-6.8842-8.8297-9.6762-17.192-9.6762-5.6209 0-7.5214 0.67916-11.38 4.0666-16.96 14.891 0.39821 41.153 20.444 30.931z"/>
   <path d="m241.84 671.48c12.4-5.181 14.61-22.126 4.0904-31.362-3.9336-3.4538-5.796-4.1218-11.491-4.1218-9.1674 0-14.913 3.6474-17.847 11.329-6.2539 16.376 8.9811 30.952 25.247 24.155z"/>
   <path id="letter-a" transform="translate(-1.54)" d="m846.49 743.05c5.4751-4.0113 8.4413-10.781 7.4713-17.052-1.2712-8.2181-2.2643-46-1.2091-46 2.5994 0 25.961 14.397 30.691 18.915 9.2987 8.8797 19.548 9.1425 28.343 0.72677 3.971-3.8001 33.177-20.975 35.668-20.975 0.85888 0-0.29816 36.699-1.4811 46.978-0.73968 6.4273-0.43227 8.3691 1.93 12.191 7.3456 11.886 24.482 11.447 32.188-0.82418 2.254-3.5895 2.5608-5.5053 1.7635-11.012-0.53084-3.6667-0.9112-19.417-0.84524-35 0.15-35.436 0.14929-37.961-0.0205-73.333-0.0765-15.95 0.33912-31.765 0.92376-35.145 0.81751-4.7257 0.53323-7.2609-1.2311-10.979-2.5108-5.2912-9.2623-10.21-14.014-10.21-4.2283 0-49.476-27.128-55.806-33.458-4.7692-4.7692-5.8165-5.2091-12.403-5.2091-7.4664 0-11.708 1.9659-16.089 7.4565-2.0823 2.6097-40.289 25.546-53.919 32.369-3.0549 1.5292-6.8741 4.6339-8.4872 6.8992-2.5972 3.6474-2.8168 5.0623-1.9196 12.364 0.55728 4.5346 0.95068 20.695 0.87422 35.911-0.0764 15.217-0.15221 31.417-0.16836 36-0.0161 4.5833 0.28426 20.177 0.66751 34.654 0.54788 20.694 0.29141 27.52-1.1998 31.931-3.324 9.8334 0.0396 19.387 8.4542 24.012 5.6943 3.1299 14.639 2.583 19.819-1.2116z" clip-path="url(#clipPath1355)"/>
   <path id="letter-m" d="m643.62 744.44c7.3901-3.5068 9.9865-8.8408 8.976-18.44-1.1484-10.909-1.1065-61.005 0.0583-69.735 0.61741-4.6276 0.37464-8.4411-0.70302-11.043-2.9222-7.0548-0.403-5.5689 4.042 2.3841 2.3754 4.2501 8.4481 14.714 13.495 23.253 5.0468 8.5391 9.1759 16.819 9.1759 18.4 0 3.9664 3.3967 10.168 6.9216 12.637 1.6152 1.1314 4.8619 5.1781 7.2148 8.9927l4.278 6.9357 3.9748-6.2675c2.1861-3.4472 5.5466-7.504 7.4678-9.0152 4.0324-3.1719 6.1765-6.7779 7.4883-12.594 1.3791-6.1147 29.884-52.21 30.462-49.259 0.26054 1.3317-0.30118 4.7693-1.2483 7.639-1.3601 4.1212-1.3896 6.4604-0.14037 11.131 2.0911 7.8186 2.1374 56.815 0.0591 62.563-3.3234 9.1907 2.5857 20.592 12.159 23.461 15.282 4.5785 28.648-9.3463 23.409-24.387-2.947-8.461-2.8796-51.505 0.0943-60.232 1.964-5.7641 1.964-6.8167 0-12.821-3.0382-9.2887-3.0629-52.05-0.0355-61.306 1.7746-5.4257 1.8384-7.24 0.40736-11.584-0.93964-2.8521-2.0274-15.145-2.4376-27.546l-0.74062-22.396-11.176 18.258c-6.147 10.042-13.19 20.027-15.652 22.188-2.8584 2.5097-5.1758 6.2864-6.4124 10.451-1.065 3.5863-11.952 22.778-24.194 42.647-18.025 29.257-22.571 35.79-23.904 34.354-0.90528-0.97501-11.024-17.935-22.487-37.69-13.444-23.169-20.841-37.248-20.841-39.667 0-2.5574-1.5954-5.3449-5.0178-8.7673-4.1972-4.1972-13.25-18.367-26.45-41.401l-2.5325-4.4192-0.96885 26.419c-0.53288 14.531-0.94923 29.269-0.92521 32.753 0.10106 14.665 0.16097 66.242 0.0848 73-0.0455 4.0333 3e-3 20.533 0.10746 36.667 0.10454 16.133-0.25248 32.033-0.79345 35.333-2.4464 14.923 12.752 25.765 26.784 19.107z"/>
   <path d="m570.4 744.79c6.5648-3.4157 9.9397-8.2506 10.607-15.196 1.1856-12.339-6.1276-20.264-18.699-20.264-11.487 0-18.307 7.1113-18.307 19.087 0 12.92 15.071 22.267 26.4 16.373z"/>
   <path d="m443.68 744.01c9.1221-5.5618 12.343-17.581 7.0418-26.276-3.4511-5.66-9.1047-8.3981-17.341-8.3981-5.7852 0-7.4427 0.63254-11.571 4.416-4.0937 3.7516-4.9218 5.4884-5.5036 11.544-0.516 5.3702-0.0792 8.2524 1.7714 11.689 4.7277 8.7789 17.14 12.185 25.602 7.0252z"/>
   <path d="m242.29 744.44c9.2082-4.3696 13.041-15.473 8.5459-24.759-3.4878-7.2049-8.6688-10.35-17.041-10.343-8.834 7e-3 -14.212 3.5094-17.133 11.158-6.4242 16.822 9.4277 31.631 25.628 23.944z"/>
   <path d="m908.16 779.03c5.3323-3.1498 9.7228-12.485 8.735-18.572-2.3239-14.321-19.569-21.125-30.917-12.198-3.9175 3.0815-7.307 9.8589-7.307 14.611 0 4.7386 4.9324 13.601 8.9581 16.095 4.8678 3.0162 15.478 3.0495 20.531 0.0647z"/>
   <path d="m707.6 778.72c7.9713-4.8604 10.99-17.254 6.1848-25.389-2.7936-4.7291-10.866-9.3314-16.368-9.3314-9.1974 0-17.373 7.3546-18.411 16.562-0.84555 7.5016 1.3677 13.155 6.8388 17.468 5.3337 4.2048 15.465 4.5267 21.755 0.69109z"/>
   <path id="letter-k" d="m309.49 776.16c4.6815-4.6815 5.1765-5.8373 5.1765-12.088 0-3.8012-0.61747-8.0649-1.3721-9.475-0.79794-1.491-1.2164-9.7507-1-19.738l0.37214-17.174 15.397 8.8255c8.4685 4.854 17.61 11.047 20.314 13.761 15.034 15.094 38.592 0.20624 31.025-19.607-2.4147-6.3227-8.6608-11.329-14.135-11.329-1.6963 0-9.1254-3.5304-16.509-7.8454-7.3838-4.315-17.025-9.935-21.425-12.489-4.6792-2.7161-7.8177-5.4025-7.5608-6.472 1.1289-4.7004 50.618-84.87 54.489-88.268 12.303-10.802 6.4953-30.782-9.4709-32.582-10.649-1.2003-19.488 4.9619-21.349 14.884-0.49029 2.6135-7.6151 15.969-15.833 29.679l-14.941 24.927-0.35326-39.634c-0.22245-24.958 0.14784-40.571 1-42.163 1.8646-3.4841 1.664-13.345-0.35249-17.331-2.7277-5.3907-9.8814-9.374-16.825-9.3684-11.921 9e-3 -20.07 9.236-18.074 20.464 0.5406 3.0419 0.92899 35.231 0.86309 71.531s-0.0892 69.3-0.0519 73.333c0.33505 36.176-0.0249 68.286-0.81566 72.762-2.103 11.905 5.9318 20.557 19.099 20.566 6.5387 4e-3 7.604-0.44212 12.333-5.1715z"/>
   <path d="m905.82 852.83c12.859-5.3727 14.981-21.833 4.0532-31.428-3.8582-3.3875-5.7586-4.0666-11.38-4.0666-8.6919 0-13.799 3.0588-17.348 10.39-4.7148 9.7394-1.366 19.687 8.2836 24.608 5.5101 2.8097 10.494 2.9608 16.391 0.49697z"/>
   <path d="m706.11 852.52c12.785-6.0667 13.208-26.649 0.68103-33.127-9.1713-4.7427-21.759-1.1739-26.209 7.4304-3.3318 6.443-2.0125 16.186 2.894 21.372 2.121 2.2419 5.0564 4.5758 6.5231 5.1865 4.3321 1.8037 11.275 1.4319 16.111-0.86263z"/>
   <path id="letter-y" d="m506.26 852.06c8.497-5.1809 11.777-15.103 7.863-23.784-1.9001-4.2136-2.1752-8.8078-1.8135-30.288 0.30863-18.33 0.95475-26.51 2.3404-29.628 1.6467-3.7056 1.6546-5.1023 0.0563-10-1.2574-3.8531-2.0119-14.407-2.3347-32.658-0.39513-22.339-0.1248-27.646 1.5753-30.934 1.1288-2.1828 2.0523-4.9672 2.0523-6.1876 0-3.1797 52.731-88.614 57.057-92.442 5.8915-5.2143 8.2586-9.7581 8.2679-15.871 0.0175-11.376-7.4242-18.924-18.658-18.924-9.9726 0-16.764 5.6175-18.58 15.367-0.69464 3.73-45.214 77.901-46.782 77.939-1.3478 0.0329-43.971-74.125-43.971-76.503 0-4.4613-4.2513-11.418-8.6327-14.125-5.6278-3.4781-14.666-3.5115-20.303-0.0749-10.736 6.546-11.371 23.978-1.1509 31.582 1.827 1.3594 6.2617 7.5717 9.8548 13.805 3.5931 6.2333 14.783 25.433 24.867 42.667 10.084 17.233 19.288 34.333 20.454 38 3.186 10.022 3.839 57.454 0.9195 66.786-1.9387 6.1971-1.9396 7.3261-0.0107 13.008 1.7088 5.0331 2.0234 10.998 1.6464 31.214-0.2894 15.516-1.1276 27.13-2.2107 30.63-1.6062 5.1913-1.4944 6.143 1.4104 12 5.1253 10.334 16.775 14.095 26.083 8.4202z"/>
   <path d="m304.96 852.44c12.33-5.8511 13.08-25.343 1.2726-33.08-1.7777-1.1648-5.9718-2.1728-9.3202-2.24-19.741-0.39626-26.841 24.57-9.9204 34.887 5.31 3.2376 11.732 3.3922 17.968 0.43285z"/>
  </g>
  <g fill="none">
   <path d="m514.77 359.7c-0.35731-45.517-0.58338-82.899-0.50239-83.069 0.081-0.17088 7.1479 3.8463 15.704 8.9271l15.557 9.2378-1.1109 129.54-12.746 7.9892c-7.0101 4.3941-13.535 8.471-14.499 9.0599-1.2998 0.79366-1.9216-20.341-2.4032-81.688z" opacity=".987"/>
   <path d="m514.77 359.7c-0.35731-45.517-0.58338-82.899-0.50239-83.069 0.081-0.17088 7.1479 3.8463 15.704 8.9271l15.557 9.2378-1.1109 129.54-12.746 7.9892c-7.0101 4.3941-13.535 8.471-14.499 9.0599-1.2998 0.79366-1.9216-20.341-2.4032-81.688z" opacity=".987"/>
   <path d="m514.77 359.7c-0.35731-45.517-0.58338-82.899-0.50239-83.069 0.081-0.17088 7.1479 3.8463 15.704 8.9271l15.557 9.2378-1.1109 129.54-12.746 7.9892c-7.0101 4.3941-13.535 8.471-14.499 9.0599-1.2998 0.79366-1.9216-20.341-2.4032-81.688z" opacity=".987"/>
   <path d="m514.77 359.7c-0.35731-45.517-0.58338-82.899-0.50239-83.069 0.081-0.17088 7.1479 3.8463 15.704 8.9271l15.557 9.2378-1.1109 129.54-12.746 7.9892c-7.0101 4.3941-13.535 8.471-14.499 9.0599-1.2998 0.79366-1.9216-20.341-2.4032-81.688z" opacity=".987"/>
   <path d="m514.77 359.7c-0.35731-45.517-0.58338-82.899-0.50239-83.069 0.081-0.17088 7.1479 3.8463 15.704 8.9271l15.557 9.2378-1.1109 129.54-12.746 7.9892c-7.0101 4.3941-13.535 8.471-14.499 9.0599-1.2998 0.79366-1.9216-20.341-2.4032-81.688z" opacity=".987"/>
   <path d="m514.77 359.7c-0.35731-45.517-0.58338-82.899-0.50239-83.069 0.081-0.17088 7.1479 3.8463 15.704 8.9271l15.557 9.2378-1.1109 129.54-12.746 7.9892c-7.0101 4.3941-13.535 8.471-14.499 9.0599-1.2998 0.79366-1.9216-20.341-2.4032-81.688z" opacity=".987"/>
  </g>
 </g>
</svg>
