<?xml version="1.0" encoding="UTF-8" standalone="no"?>
<svg
   xmlns:dc="http://purl.org/dc/elements/1.1/"
   xmlns:cc="http://creativecommons.org/ns#"
   xmlns:rdf="http://www.w3.org/1999/02/22-rdf-syntax-ns#"
   xmlns:svg="http://www.w3.org/2000/svg"
   xmlns="http://www.w3.org/2000/svg"
   xmlns:sodipodi="http://sodipodi.sourceforge.net/DTD/sodipodi-0.dtd"
   xmlns:inkscape="http://www.inkscape.org/namespaces/inkscape"
   inkscape:version="1.0 (4035a4f, 2020-05-01)"
   sodipodi:docname="bandName1.svg"
   version="1.1"
   id="prefix__svg912"
   width="185"
   height="65">
  <metadata
     id="metadata61">
    <rdf:RDF>
      <cc:Work
         rdf:about="">
        <dc:format>image/svg+xml</dc:format>
        <dc:type
           rdf:resource="http://purl.org/dc/dcmitype/StillImage" />
        <dc:title></dc:title>
        <dc:title></dc:title>
      </cc:Work>
    </rdf:RDF>
  </metadata>
  <sodipodi:namedview
     inkscape:current-layer="prefix__svg912"
     inkscape:window-maximized="0"
     inkscape:window-y="23"
     inkscape:window-x="0"
     inkscape:cy="41.552924"
     inkscape:cx="92.5"
     inkscape:zoom="4.4184618"
     showgrid="false"
     id="namedview59"
     inkscape:window-height="775"
     inkscape:window-width="1346"
     inkscape:pageshadow="2"
     inkscape:pageopacity="0"
     guidetolerance="10"
     gridtolerance="10"
     objecttolerance="10"
     borderopacity="1"
     bordercolor="#666666"
     pagecolor="#ffffff" />
  <style
     id="style867" />
  <style
     id="style11" />
  <defs
     id="prefix__defs916">
    <clipPath
       clipPathUnits="userSpaceOnUse"
       id="prefix__clipPath1339">
      <path
         stroke-opacity="1"
         stroke-width="4.62"
         stroke="none"
         fill="#ff0000"
         opacity="0.987"
         id="prefix__lpe_path-effect1343"
         class="prefix__powerclip"
         d="M 472.668,213.792 H 586.035 V 507.685 H 472.668 Z m 42.105,145.906 c 0.481,61.347 1.103,82.482 2.403,81.688 0.964,-0.589 7.489,-4.666 14.5,-9.06 l 12.745,-7.99 0.555,-64.77 0.556,-64.773 -15.557,-9.237 c -8.557,-5.081 -15.624,-9.098 -15.705,-8.928 -0.08,0.171 0.145,37.553 0.503,83.07 z" />
    </clipPath>
    <clipPath
       clipPathUnits="userSpaceOnUse"
       id="prefix__clipPath1347">
      <path
         stroke-opacity="1"
         stroke-width="4.62"
         stroke="none"
         fill="#ff0000"
         opacity="0.987"
         id="prefix__lpe_path-effect1351"
         class="prefix__powerclip"
         d="M 674.063,212.337 H 787.377 V 492.142 H 674.063 Z m 39.987,110.296 -0.456,41.592 15.34,-8.022 c 10.435,-5.458 15.62,-9.071 16.22,-11.303 0.484,-1.805 0.865,-13.33 0.846,-25.611 l -0.035,-22.33 -14.67,-9.015 c -8.07,-4.958 -15.148,-8.54 -15.73,-7.96 -0.582,0.582 -1.264,19.773 -1.515,42.649 z" />
    </clipPath>
    <clipPath
       clipPathUnits="userSpaceOnUse"
       id="prefix__clipPath1355">
      <path
         stroke-opacity="1"
         stroke-dasharray="none"
         stroke-miterlimit="4"
         stroke-width="1.9"
         stroke="#f80000"
         fill="#ff0000"
         opacity="0.987"
         id="prefix__lpe_path-effect1359"
         class="prefix__powerclip"
         d="M 811.947,517.667 H 987.345 V 751.489 H 811.947 Z m 63.408,136.773 22.25,12.834 22.409,-11.699 c 12.325,-6.434 23.276,-12.398 24.335,-13.253 1.401,-1.132 1.925,-8.572 1.925,-27.362 V 589.153 L 922.3,575.109 c -13.185,-7.724 -24.25,-14.044 -24.588,-14.044 -1.128,0 -36.85,21.52 -40.758,24.555 -3.842,2.982 -3.85,3.046 -3.85,29.488 v 26.5 z" />
    </clipPath>
  </defs>
  <g
     transform="translate(-7.5000869,-17.50076)"
     id="prefix__g249">
    <g
       id="prefix__g252">
      <g
         transform="matrix(0.14134,0,0,0.14134,46.568,-46.726)"
         id="prefix__g7123"
         fill="#f9f9f9"
         stroke-width="1.333">
        <path
           d="m 3.654,597.611 c 5.743,-2.97 9.197,-9.373 9.203,-17.063 0.01,-11.114 -7.454,-18.205 -19.16,-18.205 -12.876,0 -22.184,15.08 -16.295,26.4 2.065,3.968 7.017,8.855 10.127,9.991 4.006,1.465 12.228,0.892 16.125,-1.123 z"
           id="prefix__dot-r1" />
        <path
           d="m -195.77,596.988 c 5.003,-3.092 8.632,-9.81 8.632,-15.979 0,-14.117 -15.377,-23.194 -28.125,-16.602 -11.896,6.152 -12.379,25.602 -0.81,32.656 5.636,3.437 14.675,3.403 20.303,-0.075 z"
           id="prefix__dot-d1" />
        <path
           d="m 3.151,672.116 c 6.53,-3.098 9.7,-8.847 9.706,-17.597 0.004,-6.539 -0.442,-7.604 -5.171,-12.333 -4.73,-4.73 -5.795,-5.176 -12.334,-5.172 -8.75,0.007 -14.498,3.177 -17.597,9.706 -2.959,6.236 -2.804,12.658 0.433,17.968 5.424,8.896 15.531,11.904 24.963,7.428 z"
           id="prefix__dot-r2" />
        <path
           d="m -196.792,671.683 c 9.122,-5.562 12.343,-17.581 7.041,-26.276 -3.383,-5.548 -9.077,-8.398 -16.781,-8.398 -10.687,0 -17.94,7.591 -17.94,18.777 0,14.303 15.6,23.262 27.68,15.897 z"
           id="prefix__dot-d2" />
        <path
           d="m 3.55,745.192 c 16.844,-9.007 10.285,-35.448 -8.7,-35.067 -12.153,0.244 -20.037,8.614 -18.874,20.037 0.712,6.989 4.136,12.028 10.314,15.178 5.895,3.006 11.45,2.958 17.26,-0.148 z"
           id="prefix__dot-r3" />
        <path
           d="m -197.831,745.34 c 9.832,-4.94 13.641,-17.48 8.08,-26.6 -7.28,-11.94 -26.359,-11.366 -32.747,0.987 -8.392,16.23 8.478,33.747 24.667,25.613 z"
           id="prefix__dot-d3" />
        <path
           d="m 708.353,483.697 c 2.028,-1.416 4.578,-4.297 5.667,-6.403 2.285,-4.418 2.608,-13.63 0.609,-17.365 -0.803,-1.5 -1.217,-10.037 -1,-20.61 L 714,421.27 l 15.333,9.532 c 8.434,5.243 17.015,11.543 19.07,14 4.357,5.207 11.982,7.923 18.706,6.661 10.005,-1.877 16.93,-13.418 14.179,-23.633 -1.55,-5.753 -9.305,-13.163 -13.776,-13.163 -2.556,0 -9.44,-3.861 -35.5,-19.909 -2.478,-1.525 -3.024,-1.098 11.308,-8.844 8.691,-4.698 14.149,-6.734 19.85,-7.406 9.642,-1.137 14.044,-4.227 17.358,-12.186 2.398,-5.757 2.415,-6.416 0.333,-12.78 -3.051,-9.33 -3.131,-52.74 -0.113,-61.408 4.42,-12.693 -4.015,-25.449 -16.838,-25.462 -3.73,-0.004 -9.34,-2.907 -26,-13.455 -11.684,-7.397 -23.043,-15.446 -25.243,-17.886 -4.38,-4.86 -8.503,-7.329 -12.246,-7.335 -1.332,-0.003 -6.021,-2.402 -10.421,-5.332 l -8,-5.327 -1.07,10.998 c -0.587,6.05 -0.974,14.598 -0.858,18.998 0.205,7.802 0.303,128.081 0.117,144 -0.052,4.4 -0.014,21.5 0.084,38 0.098,16.5 -0.29,33.051 -0.863,36.78 -1.581,10.302 2.195,16.449 12.244,19.928 5.884,2.038 11.565,1.24 16.7,-2.344 z"
           id="prefix__letter-r"
           clip-path="url(#prefix__clipPath1347)"
           transform="translate(-640.471,295.676)" />
        <path
           d="M 532.81,470.483 C 549.024,460.317 563.304,452 564.545,452 c 3.312,0 8.987,-3.245 12.79,-7.313 2.873,-3.074 3.28,-4.609 2.953,-11.126 -0.349,-6.937 -0.645,-53.946 -0.46,-72.894 0.044,-4.4 0.035,-21.2 -0.019,-37.334 -0.053,-16.133 0.325,-32.47 0.84,-36.304 0.791,-5.876 0.48,-7.713 -1.983,-11.699 -3.105,-5.024 -8.711,-8.663 -13.344,-8.663 -3.674,0 -47.705,-25.867 -51.85,-30.46 -4.609,-5.108 -9.645,-8.184 -13.471,-8.228 -1.833,-0.022 -6.633,-2.098 -10.667,-4.613 l -7.334,-4.574 -0.829,8.937 c -0.456,4.916 -1.554,11.391 -2.441,14.39 -1.347,4.554 -1.265,6.282 0.496,10.496 3.13,7.491 3.158,124.339 0.032,133.896 -1.873,5.726 -1.875,6.923 -0.02,12.25 3.039,8.727 2.986,55.483 -0.07,63.489 -2,5.235 -2,6.182 0,12.295 1.272,3.893 2.165,11.058 2.165,17.381 v 10.759 l 11,-6.86 c 6.05,-3.772 24.265,-15.176 40.478,-25.342 z"
           id="prefix__letter-d"
           clip-path="url(#prefix__clipPath1339)"
           transform="translate(-640.471,295.676)" />
        <path
           d="m 706.11,557.858 c 12.785,-6.067 13.209,-26.649 0.682,-33.127 -8.784,-4.542 -20.683,-1.588 -25.513,6.334 -9.783,16.045 7.708,34.919 24.832,26.793 z"
           id="prefix__dot-m1" />
        <path
           d="m 506.26,557.392 c 8.645,-5.27 11.783,-15.093 7.71,-24.127 -3.214,-7.126 -9.095,-10.598 -17.95,-10.598 -6.315,0 -7.487,0.489 -11.978,5 -6.801,6.832 -7.917,13.143 -3.792,21.454 5.053,10.181 16.768,13.906 26.01,8.271 z"
           id="prefix__dot-y1" />
        <path
           d="m 244.136,595.64 c 11.976,-8 11.701,-24.085 -0.542,-31.778 -6.313,-3.966 -16.955,-2.945 -22.26,2.137 -4.852,4.65 -7.206,11.378 -6.08,17.382 0.956,5.093 6.427,12.29 10.637,13.994 5.39,2.18 13.545,1.405 18.245,-1.735 z"
           id="prefix__dot-k1" />
        <path
           d="m 570.4,671.46 c 9.678,-5.036 13.76,-16.791 9.017,-25.965 -6.293,-12.17 -25.658,-12.818 -32.804,-1.097 -3.21,5.264 -3.405,14.517 -0.413,19.582 4.652,7.874 16.44,11.518 24.2,7.48 z"
           id="prefix__dot-y4" />
        <path
           d="m 443.679,670.674 c 9.122,-5.562 12.343,-17.581 7.042,-26.276 C 447.293,638.777 441.625,636 433.579,636 422.977,636 416,643.452 416,654.776 c 0,14.304 15.599,23.263 27.679,15.898 z"
           id="prefix__dot-y2" />
        <path
           d="m 370.572,670.998 c 9.789,-4.992 13.338,-16.05 8.127,-25.322 -3.869,-6.884 -8.83,-9.676 -17.192,-9.676 -5.62,0 -7.521,0.68 -11.38,4.067 -16.959,14.89 0.399,41.153 20.445,30.93 z"
           id="prefix__dot-k5" />
        <path
           d="m 241.845,671.484 c 12.4,-5.18 14.61,-22.126 4.09,-31.362 -3.934,-3.454 -5.796,-4.122 -11.49,-4.122 -9.168,0 -14.914,3.647 -17.848,11.329 -6.253,16.375 8.982,30.952 25.248,24.155 z"
           id="prefix__dot-k2" />
        <path
           d="m 846.486,743.052 c 5.475,-4.011 8.441,-10.781 7.471,-17.052 -1.271,-8.218 -2.264,-46 -1.21,-46 2.6,0 25.962,14.397 30.692,18.915 9.299,8.88 19.549,9.142 28.343,0.727 3.971,-3.8 33.177,-20.975 35.668,-20.975 0.859,0 -0.298,36.699 -1.481,46.978 -0.74,6.427 -0.432,8.37 1.93,12.191 7.346,11.886 24.482,11.447 32.187,-0.824 2.254,-3.59 2.561,-5.505 1.764,-11.012 -0.53,-3.667 -0.911,-19.417 -0.845,-35 0.15,-35.436 0.149,-37.961 -0.02,-73.333 -0.077,-15.95 0.338,-31.765 0.923,-35.145 0.817,-4.726 0.533,-7.26 -1.231,-10.979 -2.511,-5.291 -9.262,-10.21 -14.015,-10.21 -4.228,0 -49.476,-27.127 -55.806,-33.457 -4.769,-4.77 -5.816,-5.21 -12.402,-5.21 -7.467,0 -11.709,1.967 -16.09,7.457 -2.082,2.61 -40.288,25.547 -53.918,32.37 -3.055,1.529 -6.874,4.633 -8.488,6.899 -2.597,3.647 -2.816,5.062 -1.92,12.363 0.558,4.535 0.952,20.695 0.875,35.912 -0.076,15.216 -0.152,31.416 -0.168,36 -0.016,4.583 0.284,20.177 0.667,34.653 0.548,20.694 0.292,27.52 -1.2,31.931 -3.324,9.833 0.04,19.387 8.455,24.012 5.694,3.13 14.64,2.584 19.819,-1.211 z"
           id="prefix__letter-a"
           clip-path="url(#prefix__clipPath1355)"
           transform="translate(-1.54)" />
        <path
           d="m 643.623,744.44 c 7.39,-3.507 9.986,-8.84 8.976,-18.44 -1.149,-10.909 -1.107,-61.005 0.058,-69.735 0.617,-4.628 0.374,-8.441 -0.703,-11.043 -2.922,-7.055 -0.403,-5.569 4.042,2.384 2.375,4.25 8.448,14.714 13.495,23.253 5.046,8.54 9.176,16.819 9.176,18.4 0,3.966 3.396,10.167 6.921,12.636 1.615,1.132 4.862,5.178 7.215,8.993 l 4.278,6.936 3.975,-6.268 c 2.186,-3.447 5.546,-7.504 7.468,-9.015 4.032,-3.172 6.176,-6.778 7.488,-12.594 1.38,-6.115 29.884,-52.21 30.462,-49.26 0.26,1.333 -0.302,4.77 -1.249,7.64 -1.36,4.121 -1.39,6.46 -0.14,11.131 2.091,7.819 2.137,56.816 0.06,62.563 -3.324,9.19 2.585,20.593 12.158,23.46 15.282,4.58 28.648,-9.346 23.409,-24.387 -2.947,-8.46 -2.88,-51.504 0.094,-60.232 1.964,-5.764 1.964,-6.817 0,-12.821 -3.038,-9.289 -3.063,-52.05 -0.035,-61.307 1.774,-5.425 1.838,-7.24 0.407,-11.583 -0.94,-2.853 -2.027,-15.145 -2.437,-27.547 L 778,525.208 766.824,543.466 c -6.147,10.042 -13.19,20.027 -15.653,22.188 -2.858,2.51 -5.175,6.287 -6.412,10.45 -1.065,3.587 -11.952,22.778 -24.194,42.648 -18.025,29.257 -22.57,35.79 -23.904,34.354 -0.905,-0.975 -11.024,-17.935 -22.487,-37.69 -13.443,-23.169 -20.84,-37.248 -20.84,-39.666 0,-2.558 -1.596,-5.345 -5.018,-8.768 -4.198,-4.197 -13.25,-18.366 -26.45,-41.401 l -2.533,-4.42 -0.969,26.42 c -0.532,14.53 -0.949,29.269 -0.925,32.752 0.101,14.666 0.161,66.242 0.085,73 -0.045,4.034 0.003,20.534 0.108,36.667 0.104,16.133 -0.253,32.033 -0.794,35.333 -2.446,14.924 12.752,25.766 26.785,19.107 z"
           id="prefix__letter-m" />
        <path
           d="m 570.4,744.793 c 6.564,-3.415 9.94,-8.25 10.607,-15.195 1.185,-12.34 -6.128,-20.265 -18.7,-20.265 -11.486,0 -18.307,7.112 -18.307,19.088 0,12.92 15.07,22.267 26.4,16.372 z"
           id="prefix__dot-y5" />
        <path
           d="m 443.679,744.007 c 9.122,-5.562 12.343,-17.581 7.042,-26.276 -3.451,-5.66 -9.105,-8.398 -17.341,-8.398 -5.785,0 -7.443,0.633 -11.571,4.416 -4.094,3.752 -4.922,5.489 -5.504,11.544 -0.516,5.37 -0.079,8.253 1.772,11.689 4.727,8.779 17.14,12.185 25.602,7.025 z"
           id="prefix__dot-y3" />
        <path
           d="m 242.29,744.44 c 9.207,-4.37 13.04,-15.473 8.545,-24.759 -3.488,-7.205 -8.669,-10.35 -17.04,-10.343 -8.835,0.007 -14.213,3.51 -17.134,11.158 -6.424,16.822 9.428,31.632 25.628,23.944 z"
           id="prefix__dot-k3" />
        <path
           d="m 908.156,779.03 c 5.332,-3.15 9.723,-12.486 8.735,-18.573 -2.324,-14.321 -19.569,-21.125 -30.917,-12.198 -3.918,3.081 -7.307,9.859 -7.307,14.61 0,4.74 4.932,13.601 8.958,16.096 4.868,3.016 15.478,3.049 20.53,0.064 z"
           id="prefix__dot-a1" />
        <path
           d="m 707.602,778.72 c 7.971,-4.86 10.99,-17.253 6.185,-25.389 C 710.993,748.602 702.92,744 697.419,744 c -9.197,0 -17.373,7.355 -18.411,16.562 -0.846,7.501 1.368,13.154 6.839,17.468 5.333,4.204 15.464,4.526 21.755,0.69 z"
           id="prefix__dot-m2" />
        <path
           d="m 309.49,776.157 c 4.682,-4.682 5.177,-5.837 5.177,-12.088 0,-3.8 -0.618,-8.065 -1.372,-9.475 -0.798,-1.49 -1.217,-9.75 -1,-19.738 l 0.372,-17.174 15.397,8.826 c 8.468,4.854 17.61,11.046 20.314,13.761 15.034,15.094 38.591,0.206 31.025,-19.607 -2.415,-6.322 -8.661,-11.329 -14.135,-11.329 -1.697,0 -9.126,-3.53 -16.51,-7.845 -7.383,-4.315 -17.025,-9.935 -21.425,-12.49 -4.679,-2.715 -7.817,-5.402 -7.56,-6.471 1.128,-4.7 50.618,-84.87 54.488,-88.268 12.303,-10.803 6.495,-30.783 -9.47,-32.582 -10.65,-1.2 -19.488,4.962 -21.35,14.884 -0.49,2.614 -7.615,15.97 -15.833,29.68 l -14.941,24.927 -0.354,-39.635 c -0.222,-24.958 0.148,-40.57 1,-42.162 1.865,-3.485 1.664,-13.346 -0.352,-17.331 -2.728,-5.39 -9.882,-9.374 -16.825,-9.368 -11.92,0.009 -20.07,9.236 -18.074,20.464 0.54,3.042 0.93,35.23 0.863,71.53 -0.066,36.3 -0.089,69.3 -0.052,73.334 0.335,36.176 -0.025,68.286 -0.815,72.762 -2.103,11.905 5.931,20.557 19.099,20.566 6.539,0.004 7.604,-0.442 12.333,-5.171 z"
           id="prefix__letter-k" />
        <path
           d="m 905.819,852.828 c 12.859,-5.372 14.981,-21.833 4.053,-31.428 -3.858,-3.388 -5.758,-4.067 -11.38,-4.067 -8.691,0 -13.798,3.06 -17.348,10.39 -4.714,9.74 -1.366,19.688 8.284,24.608 5.51,2.81 10.494,2.961 16.391,0.497 z"
           id="prefix__dot-a2" />
        <path
           d="m 706.11,852.525 c 12.785,-6.067 13.209,-26.65 0.682,-33.127 -9.171,-4.743 -21.76,-1.174 -26.209,7.43 -3.332,6.443 -2.012,16.187 2.894,21.373 2.12,2.242 5.056,4.576 6.523,5.186 4.332,1.804 11.275,1.432 16.11,-0.862 z"
           id="prefix__dot-m3" />
        <path
           d="m 506.26,852.059 c 8.498,-5.181 11.778,-15.104 7.864,-23.784 -1.9,-4.214 -2.175,-8.808 -1.814,-30.288 0.309,-18.33 0.955,-26.51 2.34,-29.627 1.648,-3.706 1.655,-5.103 0.057,-10 -1.257,-3.854 -2.012,-14.407 -2.335,-32.658 -0.395,-22.34 -0.124,-27.646 1.576,-30.934 1.128,-2.183 2.052,-4.967 2.052,-6.188 0,-3.18 52.731,-88.613 57.057,-92.442 5.891,-5.214 8.258,-9.758 8.268,-15.87 0.017,-11.377 -7.425,-18.925 -18.658,-18.925 -9.973,0 -16.765,5.618 -18.58,15.368 -0.695,3.73 -45.215,77.9 -46.782,77.939 -1.348,0.033 -43.972,-74.126 -43.972,-76.504 0,-4.46 -4.25,-11.417 -8.632,-14.125 -5.628,-3.478 -14.667,-3.512 -20.303,-0.075 -10.736,6.546 -11.37,23.978 -1.15,31.582 1.826,1.36 6.26,7.572 9.854,13.805 3.593,6.234 14.783,25.434 24.867,42.667 10.084,17.233 19.289,34.333 20.454,38 3.186,10.022 3.84,57.454 0.92,66.786 -1.939,6.197 -1.94,7.326 -0.011,13.008 1.709,5.034 2.023,10.999 1.646,31.214 -0.29,15.516 -1.127,27.13 -2.21,30.63 -1.607,5.192 -1.495,6.144 1.41,12 5.125,10.335 16.776,14.096 26.083,8.42 z"
           id="prefix__letter-y" />
        <path
           d="m 304.956,852.44 c 12.33,-5.851 13.08,-25.343 1.272,-33.08 -1.777,-1.164 -5.971,-2.172 -9.32,-2.24 -19.741,-0.396 -26.84,24.57 -9.92,34.887 5.31,3.238 11.731,3.392 17.968,0.433 z"
           id="prefix__dot-k4" />
        <path
           id="prefix__path7072"
           d="m 65.64,853.534 c 12.784,-6.067 13.207,-26.649 0.68,-33.127 -8.783,-4.542 -20.682,-1.588 -25.512,6.334 -9.783,16.045 7.708,34.919 24.832,26.793 z" />
        <path
           id="prefix__path7074"
           d="m -134.21,853.068 c 8.644,-5.27 11.782,-15.093 7.708,-24.127 -3.214,-7.127 -9.094,-10.598 -17.95,-10.598 -6.315,0 -7.487,0.489 -11.977,5 -6.801,6.832 -7.917,13.143 -3.792,21.454 5.053,10.181 16.768,13.906 26.01,8.27 z" />
      </g>
    </g>
  </g>
</svg>
