<?xml version="1.0" encoding="UTF-8" standalone="no"?>
<svg
   xmlns:dc="http://purl.org/dc/elements/1.1/"
   xmlns:cc="http://creativecommons.org/ns#"
   xmlns:rdf="http://www.w3.org/1999/02/22-rdf-syntax-ns#"
   xmlns:svg="http://www.w3.org/2000/svg"
   xmlns="http://www.w3.org/2000/svg"
   xmlns:sodipodi="http://sodipodi.sourceforge.net/DTD/sodipodi-0.dtd"
   xmlns:inkscape="http://www.inkscape.org/namespaces/inkscape"
   version="1.1"
   id="svg912"
   width="1200"
   height="1200"
   viewBox="0 0 1200 1200"
   sodipodi:docname="copyLogo0.svg"
   inkscape:version="1.0.1 (c497b03c, 2020-09-10)">
  <metadata
     id="metadata918">
    <rdf:RDF>
      <cc:Work
         rdf:about="">
        <dc:format>image/svg+xml</dc:format>
        <dc:type
           rdf:resource="http://purl.org/dc/dcmitype/StillImage" />
        <dc:title />
      </cc:Work>
    </rdf:RDF>
  </metadata>
  <defs
     id="defs916" />
  <sodipodi:namedview
     pagecolor="#ffffff"
     bordercolor="#666666"
     borderopacity="1"
     objecttolerance="10"
     gridtolerance="10"
     guidetolerance="10"
     inkscape:pageopacity="0"
     inkscape:pageshadow="2"
     inkscape:window-width="1270"
     inkscape:window-height="760"
     id="namedview914"
     showgrid="false"
     inkscape:zoom="0.32467986"
     inkscape:cx="293.23223"
     inkscape:cy="603.49722"
     inkscape:window-x="10"
     inkscape:window-y="23"
     inkscape:window-maximized="0"
     inkscape:current-layer="layer1"
     showborder="false"
     inkscape:document-rotation="0" />
  <g
     inkscape:groupmode="layer"
     inkscape:label="Image"
     id="g920"
     style="display:inline" />
  <g
     inkscape:groupmode="layer"
     id="layer1"
     inkscape:label="Image 1"
     style="display:inline">
    <path
       style="fill:#07704f;stroke-width:1.33333"
       d="m 572.66667,1075.9359 c -63.89226,-3.673 -123.64544,-19.2178 -181.33334,-47.1742 -50.4499,-24.4488 -90.57621,-53.10479 -130.70076,-93.33935 C 181.17415,855.74607 132.71985,751.95747 122.71296,640 c -1.75089,-19.58897 -1.74695,-61.35427 0.008,-82 17.1328,-201.58648 163.15143,-373.21057 359.4036,-422.42769 39.10595,-9.8072 75.35719,-14.20546 117.20905,-14.22066 29.79304,-0.0108 48.40372,1.47922 76.64924,6.13681 99.54362,16.41443 188.34954,62.10217 260.07154,133.79826 57.62777,57.60695 98.82921,126.76953 121.30291,203.62459 33.7918,115.56037 22.7511,239.36977 -30.8908,346.40837 -71.47506,142.62311 -208.69967,240.72522 -365.47139,261.27602 -15.57094,2.0412 -56.3583,4.8515 -65.6615,4.5242 -2.93333,-0.1032 -13.13333,-0.636 -22.66666,-1.184 z M 304.95591,852.44005 c 12.33034,-5.85113 13.08018,-25.34297 1.27256,-33.07962 -1.7777,-1.1648 -5.9718,-2.1728 -9.32024,-2.24 -19.74134,-0.39626 -26.84082,24.57028 -9.92042,34.88677 5.31,3.23755 11.73164,3.39224 17.9681,0.43285 z m 201.30498,-0.38138 c 8.49696,-5.18092 11.77736,-15.1034 7.86303,-23.78387 -1.90009,-4.21364 -2.17517,-8.80781 -1.81351,-30.2876 0.30863,-18.3302 0.95475,-26.50963 2.3404,-29.62769 1.64672,-3.70559 1.65459,-5.1023 0.0563,-10 -1.25741,-3.85312 -2.01191,-14.40699 -2.33472,-32.65796 -0.39513,-22.33874 -0.1248,-27.64602 1.57532,-30.93379 1.12876,-2.18276 2.05228,-4.96717 2.05228,-6.18759 0,-3.17972 52.73117,-88.61366 57.05661,-92.44194 5.89152,-5.21434 8.25856,-9.75811 8.26794,-15.87111 0.0175,-11.37616 -7.42416,-18.92381 -18.65788,-18.92381 -9.97258,0 -16.76448,5.61752 -18.5802,15.36749 -0.69464,3.73004 -45.21443,77.90069 -46.78163,77.93892 -1.34779,0.0329 -43.97147,-74.12548 -43.97147,-76.50333 0,-4.46127 -4.2513,-11.41755 -8.63266,-14.12538 -5.62775,-3.47814 -14.6665,-3.51153 -20.3026,-0.0749 -10.73579,6.54599 -11.371,23.9776 -1.15088,31.58224 1.82702,1.35945 6.26169,7.57173 9.85481,13.80507 3.59313,6.23333 14.78345,25.43333 24.86737,42.66666 10.08392,17.23334 19.28812,34.33334 20.45378,38 3.18597,10.0218 3.83901,57.45371 0.9195,66.78608 -1.93869,6.19714 -1.9396,7.32608 -0.0107,13.00832 1.70878,5.03312 2.02341,10.9984 1.64636,31.21392 -0.2894,15.51603 -1.1276,27.12954 -2.21074,30.63018 -1.60622,5.1913 -1.49436,6.14304 1.41044,12 5.12527,10.33408 16.77548,14.09509 26.0826,8.42017 z m 199.84992,0.46605 c 12.78456,-6.06668 13.2077,-26.64887 0.68103,-33.12665 -9.17133,-4.74268 -21.75941,-1.17386 -26.20887,7.43044 -3.33178,6.44296 -2.01246,16.18629 2.89396,21.37236 2.12102,2.2419 5.0564,4.57582 6.52307,5.18648 4.33211,1.8037 11.27537,1.43193 16.11081,-0.86263 z m 199.70815,0.30352 c 12.85859,-5.37267 14.98147,-21.83315 4.05324,-31.42827 -3.85815,-3.38748 -5.7586,-4.06664 -11.37953,-4.06664 -8.69194,0 -13.79916,3.0588 -17.34818,10.3901 -4.71477,9.73942 -1.36605,19.68734 8.28362,24.60784 5.51012,2.80966 10.49412,2.96078 16.39085,0.49697 z M 309.4902,776.15687 c 4.68152,-4.68152 5.17647,-5.8373 5.17647,-12.08766 0,-3.80116 -0.61747,-8.06493 -1.37214,-9.47505 -0.79794,-1.49096 -1.21641,-9.75067 -1,-19.73781 l 0.37214,-17.17395 15.39725,8.82547 c 8.46849,4.854 17.60965,11.04661 20.31368,13.76136 15.03431,15.09388 38.59165,0.20624 31.02492,-19.60695 -2.41467,-6.32273 -8.66076,-11.32895 -14.13476,-11.32895 -1.69628,0 -9.12545,-3.53045 -16.50928,-7.84544 -7.38383,-4.315 -17.02515,-9.93505 -21.42515,-12.48902 -4.67925,-2.71606 -7.81772,-5.40254 -7.56085,-6.47199 1.12892,-4.70035 50.61811,-84.86996 54.48851,-88.26821 12.30309,-10.80227 6.49532,-30.78232 -9.47088,-32.58194 -10.64902,-1.2003 -19.48754,4.9619 -21.34903,14.8845 -0.49029,2.61349 -7.61511,15.96909 -15.83292,29.6791 l -14.94149,24.9273 -0.35326,-39.63426 c -0.22245,-24.95841 0.14784,-40.57053 1,-42.16282 1.86462,-3.48407 1.66404,-13.34532 -0.35249,-17.33052 -2.72771,-5.39067 -9.88145,-9.37402 -16.82476,-9.36838 -11.92084,0.009 -20.06955,9.23604 -18.07408,20.46432 0.5406,3.04188 0.92899,35.2307 0.86309,71.5307 -0.0659,36.3 -0.0892,69.3 -0.0519,73.33333 0.33505,36.17611 -0.0249,68.28551 -0.81566,72.76197 -2.10305,11.90518 5.93178,20.5572 19.09926,20.56638 6.53869,0.004 7.60397,-0.44212 12.33333,-5.17148 z m 398.11173,2.56377 c 7.97127,-4.86036 10.99039,-17.25409 6.18483,-25.38924 C 710.99321,748.60231 702.92049,744 697.41892,744 c -9.19736,0 -17.37316,7.35455 -18.41092,16.56155 -0.84555,7.5016 1.36772,13.15484 6.83879,17.468 5.33366,4.20484 15.4646,4.52666 21.75514,0.69109 z m 200.554,0.30848 c 5.3323,-3.14985 9.7228,-12.48496 8.73496,-18.57228 -2.32394,-14.32081 -19.56886,-21.12453 -30.9172,-12.19793 -3.91754,3.08154 -7.30702,9.85892 -7.30702,14.61064 0,4.73856 4.93244,13.60066 8.95808,16.09497 4.86785,3.01615 15.47812,3.04953 20.53118,0.0647 z M 242.28924,744.44005 c 9.20825,-4.36961 13.04089,-15.47328 8.54591,-24.75868 -3.48783,-7.20489 -8.6688,-10.34952 -17.04087,-10.34305 -8.83405,0.007 -14.2124,3.50941 -17.1334,11.15795 -6.4242,16.82152 9.42773,31.63148 25.62836,23.94378 z m 201.38961,-0.43285 c 9.1221,-5.5618 12.34323,-17.58116 7.04179,-26.2758 -3.45112,-5.66003 -9.10472,-8.39807 -17.34068,-8.39807 -5.78525,0 -7.44267,0.63254 -11.57119,4.41604 -4.09373,3.75163 -4.92176,5.48842 -5.50361,11.54379 -0.516,5.37017 -0.0792,8.25245 1.77139,11.6888 4.72773,8.77887 17.14,12.18477 25.6023,7.02524 z m 126.7207,0.78615 c 6.5648,-3.41566 9.93974,-8.25062 10.60708,-15.1957 1.18562,-12.339 -6.12763,-20.26432 -18.69931,-20.26432 -11.48659,0 -18.30732,7.11134 -18.30732,19.08731 0,12.92035 15.07076,22.26708 26.39955,16.37271 z m 73.22302,-0.3533 c 7.3901,-3.50684 9.9865,-8.84082 8.97595,-18.44005 -1.1484,-10.90857 -1.10649,-61.00501 0.0583,-69.73533 0.61741,-4.62756 0.37464,-8.4411 -0.70302,-11.04276 -2.92217,-7.05476 -0.403,-5.56891 4.04204,2.38406 2.37543,4.25006 8.44811,14.71392 13.49487,23.25304 5.04676,8.53914 9.17592,16.81894 9.17592,18.39955 0,3.9664 3.39669,10.16765 6.9216,12.6366 1.61525,1.13136 4.86193,5.17809 7.21485,8.99273 l 4.27803,6.93571 3.97475,-6.26752 c 2.1861,-3.44715 5.54664,-7.50399 7.46785,-9.0152 4.03245,-3.17193 6.17649,-6.77792 7.48831,-12.59432 1.37908,-6.11467 29.88432,-52.20964 30.46166,-49.25865 0.26054,1.33173 -0.30118,4.76929 -1.24829,7.63904 -1.36013,4.12124 -1.38963,6.46036 -0.14037,11.13117 2.09114,7.81857 2.13742,56.81549 0.0591,62.56303 -3.32341,9.19074 2.58571,20.59244 12.15884,23.46062 15.28162,4.57848 28.6478,-9.3463 23.40907,-24.38736 -2.94695,-8.46104 -2.87955,-51.50454 0.0943,-60.23236 1.96402,-5.76412 1.96402,-6.81669 0,-12.82138 -3.03819,-9.28871 -3.06292,-52.05035 -0.0355,-61.30627 1.77465,-5.42569 1.83845,-7.24005 0.40736,-11.58387 -0.93964,-2.8521 -2.02741,-15.14472 -2.43757,-27.54638 L 778,525.20829 766.82371,543.46633 c -6.14698,10.04194 -13.1905,20.02654 -15.65228,22.18802 -2.85843,2.50973 -5.17578,6.28641 -6.41239,10.45053 -1.06503,3.58632 -11.95232,22.77759 -24.19401,42.64727 -18.0251,29.25682 -22.57062,35.78958 -23.90359,34.35394 -0.90528,-0.97501 -11.02445,-17.93545 -22.48704,-37.68986 -13.44384,-23.16887 -20.84107,-37.24795 -20.84107,-39.66667 0,-2.55741 -1.59537,-5.34493 -5.01777,-8.76733 -4.19721,-4.19722 -13.24955,-18.36671 -26.44976,-41.40146 l -2.53247,-4.41922 -0.96885,26.41922 c -0.53288,14.53058 -0.94923,29.26923 -0.92521,32.75256 0.10106,14.66532 0.16097,66.2418 0.0848,73 -0.0455,4.03334 0.003,20.53334 0.10746,36.66667 0.10454,16.13333 -0.25248,32.03333 -0.79345,35.33333 -2.4464,14.92343 12.75228,25.76543 26.78447,19.10672 z m 202.86308,-1.38821 c 5.47514,-4.01127 8.44132,-10.781 7.47134,-17.05184 -1.27119,-8.21807 -2.26426,-46 -1.20908,-46 2.59945,0 25.96098,14.39741 30.69144,18.91475 9.29866,8.87972 19.54834,9.14254 28.34269,0.72677 3.97105,-3.80011 33.17688,-20.97485 35.66795,-20.97485 0.85888,0 -0.29816,36.69936 -1.48112,46.97832 -0.73968,6.42729 -0.43227,8.36914 1.93001,12.19138 7.34564,11.8855 24.48221,11.44671 32.18753,-0.82418 2.25399,-3.58954 2.56079,-5.50531 1.76354,-11.01219 -0.53084,-3.66667 -0.9112,-19.41667 -0.84524,-35 0.15,-35.43579 0.14929,-37.96133 -0.0205,-73.33333 -0.0765,-15.95 0.33912,-31.76506 0.92376,-35.14458 0.81751,-4.72566 0.53323,-7.26094 -1.2311,-10.97898 -2.51083,-5.29122 -9.26226,-10.20978 -14.01438,-10.20978 -4.2283,0 -49.47625,-27.12753 -55.80632,-33.45758 -4.7692,-4.7692 -5.81653,-5.20908 -12.4026,-5.20908 -7.46641,0 -11.70832,1.96589 -16.08934,7.45652 -2.08232,2.60973 -40.28858,25.54636 -53.91858,32.36933 -3.0549,1.52924 -6.87413,4.63388 -8.48717,6.89919 -2.59716,3.64737 -2.81684,5.0623 -1.91957,12.36352 0.55728,4.53462 0.95068,20.69477 0.87422,35.91144 -0.0764,15.21666 -0.15221,31.41666 -0.16836,36 -0.0161,4.58333 0.28426,20.17741 0.66751,34.65352 0.54788,20.69381 0.29141,27.51956 -1.19975,31.93084 -3.32404,9.83345 0.0396,19.38733 8.45418,24.01245 5.69428,3.12991 14.63946,2.58304 19.81898,-1.21164 z M 874.33333,655.02269 852,642.09432 l 0.0181,-25.38049 c 0.0107,-13.95927 0.37664,-26.71764 0.81471,-28.35192 0.56729,-2.11636 7.14261,-6.66272 22.84984,-15.79902 l 22.05335,-12.82757 5.0345,2.82955 c 2.76898,1.55625 13.92835,8.1057 24.79862,14.55434 l 19.76412,11.7248 v 26.55211 26.55211 l -24,13.00378 c -13.2,7.15207 -24.6,13.00271 -25.33334,13.00142 -0.73333,-10e-4 -11.38333,-5.82012 -23.66666,-12.93074 z m -632.48872,16.4615 c 12.39991,-5.18102 14.60995,-22.12611 4.0904,-31.36239 -3.9336,-3.45375 -5.79598,-4.1218 -11.49069,-4.1218 -9.16736,0 -14.91324,3.64741 -17.84684,11.32895 -6.25387,16.37552 8.98112,30.95161 25.24713,24.15524 z m 128.72728,-0.48626 c 9.78898,-4.99153 13.3383,-16.04996 8.12727,-25.32173 C 374.83,638.79196 369.86949,636 361.50733,636 c -5.62093,0 -7.52138,0.67916 -11.37953,4.06664 -16.95975,14.89087 0.39821,41.15293 20.44409,30.93129 z m 73.10696,-0.32406 c 9.1221,-5.5618 12.34323,-17.58116 7.04179,-26.2758 C 447.29315,638.77677 441.62548,636 433.57936,636 422.97721,636 416,643.45232 416,654.77641 c 0,14.30346 15.59885,23.26272 27.67885,15.89746 z m 126.7207,0.78614 c 9.67852,-5.03572 13.76122,-16.79144 9.01748,-25.96484 -6.2934,-12.17009 -25.65787,-12.81772 -32.80434,-1.0971 -3.20962,5.26394 -3.40449,14.51673 -0.41241,19.58192 4.65123,7.87392 16.4392,11.51758 24.19927,7.48002 z M 244.13616,595.64009 c 11.97563,-8.00024 11.70132,-24.08518 -0.54193,-31.77797 -6.31275,-3.96647 -16.95562,-2.94489 -22.25958,2.13661 -4.85302,4.6495 -7.20672,11.37816 -6.08034,17.38226 0.95538,5.09264 6.42669,12.29065 10.63694,13.99388 5.39052,2.18069 13.54434,1.4054 18.24491,-1.73478 z M 506.26089,557.392 c 8.64392,-5.27053 11.78206,-15.09303 7.70823,-24.12715 -3.21348,-7.12622 -9.09389,-10.59818 -17.95003,-10.59818 -6.31454,0 -7.48653,0.48928 -11.97678,5 -6.80152,6.83254 -7.91692,13.1431 -3.7921,21.45437 5.05284,10.18116 16.76822,13.90645 26.01068,8.27096 z m 199.84992,0.46605 c 12.78456,-6.06668 13.2077,-26.64886 0.68103,-33.12665 -8.78359,-4.54217 -20.68235,-1.58837 -25.51248,6.33333 -9.78364,16.0457 7.70777,34.91904 24.83145,26.79332 z M 532.81063,470.48307 C 549.02313,460.31739 563.30292,452 564.54351,452 c 3.31222,0 8.98745,-3.24484 12.78982,-7.31267 2.87351,-3.07409 3.28094,-4.60901 2.9535,-11.12668 -0.3485,-6.93657 -0.64474,-53.9461 -0.45935,-72.89398 0.0431,-4.4 0.0345,-21.2 -0.0191,-37.33334 -0.0535,-16.13333 0.32474,-32.47024 0.84051,-36.30424 0.79053,-5.87624 0.47892,-7.71338 -1.98432,-11.699 -3.10491,-5.02394 -8.71059,-8.66342 -13.34371,-8.66342 -3.67372,0 -47.70512,-25.86646 -51.84933,-30.45914 -4.60943,-5.10824 -9.64512,-8.18421 -13.47156,-8.22886 -1.83333,-0.0213 -6.63333,-2.0972 -10.66667,-4.61291 L 482,218.79173 l -0.82905,8.93747 c -0.45599,4.91561 -1.55443,11.3908 -2.44099,14.38931 -1.34659,4.55438 -1.26499,6.2822 0.49572,10.49616 3.13019,7.49161 3.15823,124.339 0.0321,133.89652 -1.87274,5.7256 -1.87464,6.9225 -0.0193,12.25053 3.03852,8.72627 2.98601,55.48255 -0.0713,63.48801 -1.99943,5.23543 -1.99943,6.1822 0,12.29511 1.27326,3.89276 2.16624,11.05785 2.16624,17.38149 v 10.75862 l 11,-6.8594 c 6.05,-3.77268 24.26477,-15.17679 40.47729,-25.34248 z M 513.89445,421 c 0.801,-26.98509 0.80131,-19.31235 -0.004,-90.00065 l -0.6415,-56.33399 11.70868,6.88889 c 6.43977,3.7889 13.98129,8.311 16.75893,10.04911 l 5.05024,3.1602 -0.68216,28.95156 c -0.76539,32.48275 -0.76645,32.69053 -0.37096,72.15161 l 0.28632,28.5334 -15.33333,9.71578 c -8.43334,5.34368 -15.8107,9.75364 -16.39412,9.79993 -0.58344,0.0463 -0.75358,-10.26584 -0.3781,-22.91584 z m 194.459,62.69697 c 2.02774,-1.41562 4.57774,-4.29677 5.66667,-6.40254 2.285,-4.41872 2.60793,-13.62954 0.60881,-17.36495 -0.80316,-1.50071 -1.21737,-10.03785 -1,-20.61065 L 714,421.27004 l 15.33333,9.53236 c 8.43334,5.2428 17.01498,11.54244 19.07032,13.9992 4.35676,5.20764 11.98167,7.92316 18.70556,6.66175 10.0048,-1.87691 16.92899,-13.41823 14.17848,-23.63286 -1.54924,-5.75344 -9.30434,-13.16382 -13.77618,-13.16382 -2.55548,0 -9.43986,-3.86075 -35.5004,-19.90859 -2.47678,-1.52517 -3.02327,-1.09779 11.30897,-8.84425 8.69095,-4.69738 14.14867,-6.73364 19.84957,-7.40584 9.64196,-1.13688 14.04387,-4.22715 17.35831,-12.18604 2.39759,-5.75731 2.41477,-6.41635 0.33333,-12.78002 -3.05148,-9.32932 -3.13141,-52.74034 -0.11306,-61.40801 4.42,-12.69281 -4.01566,-25.44884 -16.83838,-25.46227 -3.73048,-0.004 -9.34026,-2.90678 -26,-13.45416 -11.68374,-7.39704 -23.04317,-15.44609 -25.24317,-17.8868 -4.37987,-4.85905 -8.5024,-7.32837 -12.24568,-7.33493 -1.33155,-0.003 -6.02099,-2.40151 -10.42099,-5.33148 l -8,-5.32724 -1.06913,10.99815 c -0.58803,6.04897 -0.97455,14.59814 -0.85895,18.99814 0.20496,7.80144 0.30258,128.08107 0.1168,144 -0.0513,4.4 -0.0133,21.5 0.0844,38 0.0977,16.5 -0.29049,33.05064 -0.86281,36.7792 -1.58139,10.30247 2.19503,16.44926 12.24363,19.9287 5.88445,2.03756 11.56528,1.24008 16.69942,-2.34426 z m 4.97988,-162.99229 c 0,-35.49887 0.34786,-44.66713 1.66667,-43.92811 0.91667,0.51368 8.42303,5.1991 16.68081,10.41203 l 15.01415,9.47807 -0.34748,25.80397 -0.34748,25.80397 -16.33333,8.64607 -16.33334,8.64605 z M 442.64009,449.6646 c 9.83198,-4.93976 13.6414,-17.47977 8.08055,-26.59987 -7.28096,-11.94117 -26.35927,-11.36628 -32.74728,0.98679 -8.39233,16.22897 8.47803,33.74656 24.66673,25.61308 z m 201.38071,-0.14873 c 16.84472,-9.0068 10.28489,-35.44778 -8.6998,-35.06672 -12.15272,0.24393 -20.03728,8.61426 -18.87368,20.0365 0.71203,6.98947 4.13623,12.02876 10.31412,15.17895 5.89457,3.00571 11.44939,2.95784 17.25936,-0.14873 z M 443.67885,376.0072 c 9.1221,-5.5618 12.34323,-17.58116 7.04179,-26.2758 -3.38312,-5.54852 -9.07741,-8.39807 -16.78193,-8.39807 -10.68634,0 -17.93871,7.59104 -17.93871,18.77642 0,14.30345 15.59885,23.26272 27.67885,15.89745 z m 199.94372,0.43285 c 6.52886,-3.09814 9.69968,-8.84697 9.70578,-17.59692 0.004,-6.53869 -0.44212,-7.60397 -5.17148,-12.33333 -4.72936,-4.72936 -5.79464,-5.17604 -12.33334,-5.17148 -8.74994,0.007 -14.49877,3.17692 -17.59692,9.70577 -2.95938,6.23646 -2.80469,12.6581 0.43286,17.9681 5.42409,8.89624 15.53114,11.90362 24.9631,7.42786 z m -198.9219,-75.12773 c 5.00304,-3.09204 8.63266,-9.81047 8.63266,-15.97899 0,-14.11762 -15.37682,-23.19436 -28.12517,-16.60193 -11.89645,6.15189 -12.37895,25.60197 -0.81009,32.65591 5.6361,3.43654 14.67485,3.40316 20.3026,-0.0749 z m 199.4245,0.62295 c 5.74346,-2.97006 9.19724,-9.37342 9.20318,-17.06278 0.009,-11.11456 -7.45428,-18.20582 -19.15983,-18.20582 -12.87623,0 -22.1846,15.08032 -16.2952,26.39954 2.06513,3.96915 7.01728,8.8555 10.12668,9.99215 4.0064,1.46456 12.22861,0.89189 16.12517,-1.12309 z"
       id="path1536" />
    <path
       style="fill:#004d2f;stroke-width:1.33333"
       d="M 562,1075.1013 C 419.22187,1063.0429 292.49124,991.02015 209.31689,874.66667 162.68403,809.43144 134.11769,734.21799 123.7345,649.33333 c -2.19596,-17.95244 -2.20208,-82.77734 -0.009,-100.66666 11.06079,-90.24518 41.6659,-167.466 94.06286,-237.33334 23.46814,-31.29296 61.98069,-69.79762 93.54548,-93.52632 69.5567,-52.28894 146.77834,-82.905 237.33333,-94.09552 20.44663,-2.52674 85.28127,-2.07246 106.50864,0.74627 131.06024,17.40317 241.01904,79.91469 321.38185,182.70543 51.44254,65.79922 84.01184,144.49198 96.36644,232.83681 3.3886,24.23096 3.3804,92.12477 -0.014,117.33333 -14.6427,108.73963 -60.3456,202.05374 -136.20139,278.08902 -37.79448,37.88394 -75.66688,65.55245 -122.04157,89.15995 -68.89991,35.0743 -139.91718,51.7799 -217.62875,51.1936 C 580.7004,1075.6526 564.93333,1075.349 562,1075.1013 Z M 305.29443,852.68679 c 6.18174,-3.19671 9.88506,-9.53731 9.88506,-16.92463 0,-19.66463 -26.87178,-26.45001 -35.86628,-9.05659 -2.8037,5.42178 -2.48929,14.15543 0.6951,19.30787 4.85958,7.86299 16.86077,11.03025 25.28612,6.67335 z m 203.50917,-2.13067 c 5.83929,-5.45509 7.62912,-10.21443 6.43467,-17.1104 -0.8798,-5.07944 -1.21712,-37.03595 -0.73304,-69.44572 0.0603,-4.03333 -0.22047,-19.93333 -0.62382,-35.33333 -0.52712,-20.12567 -0.26029,-30.06232 0.94879,-35.33334 1.27383,-5.55329 8.12401,-17.85172 28.22116,-50.66666 14.59647,-23.83334 28.53024,-45.13334 30.96396,-47.33334 5.69647,-5.14941 7.31801,-8.54226 7.31801,-15.31189 0,-11.13781 -7.53569,-18.67813 -18.66666,-18.67813 -9.9554,0 -16.41092,5.32169 -18.68462,15.40292 -0.86589,3.83925 -45.16361,77.75658 -46.64872,77.84033 -1.43165,0.0808 -44,-74.69752 -44,-77.29319 0,-8.30624 -8.81109,-15.94672 -18.39954,-15.95505 -9.86875,-0.008 -16.97016,5.28856 -18.96856,14.14917 -1.66558,7.38498 -0.16047,12.31727 5.47982,17.95756 5.92692,5.92692 54.33528,88.28474 57.11463,97.16992 1.26545,4.04544 2.06511,14.6712 2.41211,32.0517 0.44566,22.32304 0.18349,26.99745 -1.85383,33.05301 -2.25403,6.69969 -2.25797,7.37657 -0.0788,13.51228 3.23072,9.09629 3.34829,51.91943 0.16348,59.54176 -3.68113,8.81019 -0.56379,18.06512 7.86976,23.36416 5.941,3.73289 16.89573,2.93552 21.73116,-1.58176 z m 197.30721,1.9686 c 6.9827,-3.31351 10.33344,-9.81621 9.60215,-18.63463 -2.02975,-24.47605 -37.04629,-22.39829 -37.04629,2.1982 0,14.07198 14.33485,22.65719 27.44414,16.43643 z m 201.56804,-0.51752 c 20.08716,-12.24728 5.0639,-42.68472 -16.75853,-33.95312 -6.86624,2.74732 -11.09013,8.36184 -11.83723,15.73437 -1.54365,15.2331 15.58942,26.14882 28.59576,18.21875 z M 303.10508,780.84796 c 9.73293,-4.06667 14.74219,-15.17913 10.94216,-24.27389 -2.15479,-5.15712 -3.05992,-37.91463 -1.04724,-37.90027 2.57819,0.0184 31.56543,17.6854 33.91192,20.66849 9.8544,12.52784 30.39297,7.96375 33.79139,-7.50913 2.26564,-10.31537 -4.97046,-21.40951 -15.07808,-23.11717 -5.7287,-0.96787 -46.45166,-23.72163 -46.0289,-25.71843 0.74248,-3.50697 49.24535,-82.86016 52.56236,-85.99475 9.16867,-8.66441 11.28892,-16.99092 6.63487,-26.05593 -3.35759,-6.5398 -8.88452,-9.61355 -17.28623,-9.61355 -8.86292,0 -15.24765,5.22851 -18.09561,14.81867 -1.78011,5.99427 -25.32533,47.20176 -29.5978,51.80039 -1.5328,1.64978 -1.81392,-4.14651 -1.81392,-37.4 0,-28.68859 0.43079,-39.78318 1.58975,-40.94214 0.87436,-0.87436 1.58974,-4.59672 1.58974,-8.27192 0,-20.10324 -26.81005,-26.81225 -36.0147,-9.01241 -1.63151,3.155 -1.88202,5.69809 -1.07322,10.89488 0.82638,5.30961 1.31095,95.88577 0.76387,142.7792 -0.0513,4.4 -0.0133,21.5 0.0844,38 0.0977,16.5 -0.29049,33.05064 -0.86281,36.7792 -1.2119,7.89527 0.94286,13.39756 6.90281,17.62667 6.20196,4.40084 11.67303,5.13798 18.1252,2.44209 z m 401.33333,0 c 2.39403,-1.00028 5.97475,-3.74632 7.95718,-6.10229 2.90276,-3.44974 3.60344,-5.62634 3.59942,-11.18131 -0.0107,-15.50556 -13.47001,-24.0512 -27.43916,-17.42241 -13.5275,6.41922 -13.03797,27.23484 0.80406,34.18932 5.58672,2.80685 9.29338,2.93388 15.0785,0.51669 z m 204.14098,-2.12736 c 11.73902,-7.25511 11.20445,-24.68012 -0.98516,-32.1126 -9.11224,-5.55608 -21.65444,-1.74267 -26.59216,8.08524 -4.8714,9.69593 -1.43543,19.9064 8.42992,25.05068 6.80261,3.54721 12.22066,3.25765 19.1474,-1.02332 z M 244.13616,743.64009 c 13.12707,-8.76945 11.39487,-27.80373 -3.05648,-33.58601 -21.90951,-8.76645 -36.92584,21.65696 -16.75853,33.95312 5.90506,3.60036 14.10342,3.44848 19.81501,-0.36711 z m 201.51092,-0.39652 c 15.29819,-11.38974 5.80423,-37.03006 -12.86497,-34.74437 -17.76474,2.17496 -23.54164,24.85255 -8.91803,35.00821 3.94681,2.74095 6.00708,3.24418 11.5622,2.82416 3.90309,-0.29512 8.22225,-1.60005 10.2208,-3.088 z m 126.20815,1.29652 c 10.14156,-5.99077 12.75713,-19.95449 5.40778,-28.87052 -7.94934,-9.64393 -20.80598,-9.76454 -29.13936,-0.27337 -3.48582,3.97015 -4.12229,5.77213 -4.11486,11.6502 0.009,7.79827 2.73326,13.05952 8.84628,17.08975 4.71048,3.10557 14.08913,3.30496 19.00016,0.40394 z m 72.10586,0.1467 c 8.45831,-4.37396 12.45688,-15.24764 8.81352,-23.96742 -3.1131,-7.45073 -3.02301,-50.08732 0.12614,-59.71546 2.07212,-6.33511 2.07666,-7.26842 0.0628,-12.86884 -1.19426,-3.32111 -1.95112,-6.25862 -1.68194,-6.52782 0.57619,-0.57617 17.26371,27.50538 23.21114,39.05942 2.2649,4.4 4.46594,9.74537 4.89121,11.87858 0.42527,2.13323 2.86169,5.96708 5.41427,8.51966 2.55258,2.55258 6.17422,7.25721 8.0481,10.45474 1.87388,3.19752 3.83955,5.81368 4.36816,5.81368 0.52862,0 2.32327,-2.42361 3.98812,-5.38582 1.66486,-2.9622 5.36432,-7.54838 8.22103,-10.19152 3.47145,-3.2119 5.47377,-6.40042 6.03752,-9.61418 0.79956,-4.55806 29.88743,-53.90433 31.07477,-52.71697 0.30812,0.30812 -0.21785,3.80353 -1.16881,7.76759 -1.0708,4.4636 -1.31081,8.65404 -0.63048,11.00748 1.34936,4.66769 1.41353,58.59962 0.0807,67.80009 -0.79784,5.50745 -0.49131,7.42228 1.76292,11.01219 11.13093,17.72624 38.5779,8.6322 35.2483,-11.67886 -0.54097,-3.3 -0.93017,-19.05 -0.86488,-35 0.13214,-32.28537 0.13027,-30.55204 0.0808,-72.66666 -0.0196,-16.68334 0.038,-33.03334 0.12787,-36.33334 0.09,-3.3 -0.28704,-17.7 -0.83775,-32 l -1.00124,-26 -4.73077,7.33334 c -2.60192,4.03333 -7.95652,12.6217 -11.89909,19.08526 -3.94259,6.46358 -8.79466,13.06358 -10.78239,14.66667 -3.8688,3.12017 -7.92111,10.07753 -7.92111,13.59961 0,3.10639 -45.64531,76.87628 -46.81743,75.66422 -3.75181,-3.87975 -42.32225,-72.66342 -43.08504,-76.83468 -0.61882,-3.38412 -2.90492,-7.27344 -6.66154,-11.33334 C 644.29032,562.11483 636.68036,550.63333 630.52497,540 l -11.19164,-19.33333 -1.01697,26.66666 c -0.55933,14.66667 -0.94808,29.96667 -0.86389,34 0.0841,4.03334 0.12186,20.38334 0.0839,36.33334 -0.0863,36.13945 -0.0861,37.34233 0.008,72.66666 0.0427,15.95 -0.31277,32 -0.78981,35.66667 -0.70265,5.40085 -0.35264,7.49176 1.84341,11.01219 5.44048,8.72144 16.73158,12.13802 25.3629,7.6746 z m 201.0511,-0.67959 c 6.81768,-4.15679 9.9261,-10.17249 8.96017,-17.34053 C 852.90629,718.75555 851.63392,680 852.44025,680 c 2.38988,0 29.04262,16.69628 30.70652,19.23573 1.1417,1.74244 4.82048,4.21628 8.17507,5.49742 5.24465,2.00294 6.87951,2.09556 11.66784,0.66093 3.06272,-0.91761 7.39297,-3.62375 9.62279,-6.01364 2.22981,-2.38991 11.1042,-8.07808 19.72086,-12.6404 L 948,678.44491 v 18.19368 c 0,13.18618 -0.59621,20.01652 -2.16624,24.81657 -2.01416,6.15797 -2.00688,7.04017 0.10387,12.56701 3.209,8.40264 8.69318,11.97783 18.3735,11.97783 7.06127,0 8.02759,-0.38304 12.66667,-5.02097 4.77917,-4.77798 5.00384,-5.39099 4.64239,-12.66667 -0.32354,-6.51215 -0.40319,-20.91641 -0.40726,-73.64569 -3.3e-4,-4.4 -0.0384,-21.05 -0.0845,-37 -0.0461,-15.95 0.33411,-32.0773 0.84497,-35.83844 0.69904,-5.14643 0.38884,-7.8827 -1.25366,-11.05896 -2.43986,-4.71818 -9.2203,-9.42336 -13.59051,-9.43095 -4.19105,-0.007 -48.26096,-26.1832 -54.12937,-32.15088 -9.30176,-9.45909 -21.20048,-9.62852 -29.66651,-0.42244 -3.91397,4.25612 -42.69492,27.90036 -53.41891,32.56883 -11.14858,4.8533 -16.05884,15.33308 -12.0736,25.76826 3.16571,8.28931 3.11504,51.84872 -0.0708,60.81852 -2.08436,5.86864 -2.08436,6.7236 0,13.09615 3.14514,9.61572 3.23227,52.25865 0.122,59.70261 -6.86105,16.42079 11.92515,32.55234 27.12014,23.28783 z M 874.35193,654.91677 852.03719,642 852.0368,616.66667 c -2.1e-4,-13.93334 0.33756,-26.59215 0.7506,-28.13071 0.50633,-1.88608 7.74561,-6.88117 22.22227,-15.33333 11.80921,-6.89478 21.83737,-12.69406 22.28478,-12.88728 1.11014,-0.47944 48.45448,27.63816 49.70116,29.51729 0.54759,0.82539 0.84759,12.79435 0.66667,26.59771 l -0.32895,25.09701 -24,13.19468 c -13.2,7.25707 -24.6,13.17596 -25.33333,13.15308 -0.73333,-0.0229 -11.37496,-5.85413 -23.64807,-12.95835 z m -631.73678,16.4432 c 11.5086,-5.95133 14.0697,-20.72862 5.17017,-29.83128 -6.05075,-6.18885 -12.84153,-7.83934 -20.39125,-4.95609 -7.2458,2.7672 -11.54383,8.31213 -12.31098,15.88252 -1.48124,14.61713 14.54434,25.62107 27.53206,18.90485 z m 128,0 c 15.6038,-8.06904 13.30716,-30.34758 -3.65226,-35.42874 -11.1401,-3.33766 -22.67602,4.64474 -23.8798,16.52389 -1.48124,14.61713 14.54434,25.62107 27.53206,18.90485 z m 72.829,-0.16858 c 12.55904,-5.95966 13.23418,-25.44364 1.1559,-33.35764 -5.08876,-3.33428 -15.45392,-3.20596 -20.08408,0.24864 -6.31778,4.71373 -8.96041,9.34292 -8.96041,15.69622 0,14.80543 14.41563,23.80611 27.88859,17.41278 z m 128,0 c 14.91918,-7.07963 12.42382,-30.91859 -3.69064,-35.25776 -7.24738,-1.95152 -14.5326,0.3238 -19.63171,6.13136 -7.67132,8.73714 -4.85108,23.95146 5.37352,28.98846 5.72353,2.81962 12.19284,2.86932 17.94883,0.13794 z M 246.72593,593.94323 c 8.57086,-8.2114 8.22867,-20.56879 -0.7888,-28.48624 -3.93584,-3.45571 -5.79744,-4.12366 -11.49281,-4.12366 -8.63995,0 -14.56255,3.53684 -17.74663,10.59788 -4.27382,9.47764 -0.8492,20.10456 7.96898,24.72848 6.38772,3.34948 17.10536,2.02967 22.05926,-2.71646 z M 508.8036,555.88945 c 7.32625,-6.84421 9.03747,-14.94 4.96979,-23.51202 -6.65534,-14.02506 -26.97626,-13.75178 -33.85376,0.45526 -4.63007,9.56443 -1.90639,18.94636 7.15281,24.63852 5.941,3.7329 16.89573,2.93552 21.73116,-1.58176 z m 198.79833,1.49786 C 713.24928,553.94393 716,548.28572 716,540.11261 c 0,-5.57206 -0.68697,-7.4689 -4.1218,-11.38096 -12.12687,-13.81174 -33.23099,-5.6458 -33.20275,12.84736 0.0221,14.48559 16.4087,23.44084 28.92648,15.8083 z M 523.61881,476.41776 C 545.04249,462.988 563.55181,452 564.75064,452 c 4.18397,0 10.60667,-4.04741 13.74853,-8.66395 2.8251,-4.1511 3.05395,-5.47789 2.12626,-12.32725 -0.57178,-4.22151 -0.97307,-20.12547 -0.89178,-35.34213 0.17119,-32.03744 0.17294,-34.11371 0.0615,-72.66667 -0.0461,-15.95 0.33411,-32.07729 0.84497,-35.83844 0.69904,-5.14643 0.38884,-7.88269 -1.25366,-11.05896 -2.44334,-4.72489 -9.22196,-9.42337 -13.60626,-9.43095 -4.0515,-0.007 -49.58086,-27.27793 -54.50428,-32.64668 -2.57765,-2.81082 -6.56974,-5.17056 -10.94581,-6.4701 -3.7886,-1.1251 -9.61273,-3.64222 -12.94253,-5.5936 l -6.05422,-3.54799 v 7.6144 c 0,4.18793 -1.04082,10.54495 -2.31296,14.12671 -2.19505,6.18032 -2.19505,6.84424 0,13.02456 2.06354,5.81 2.31296,12.94414 2.31296,66.15438 0,53.21024 -0.24942,60.34439 -2.31296,66.15439 -2.19505,6.18032 -2.19505,6.84424 0,13.02456 3.34512,9.41839 3.37091,53.48443 0.0368,62.87183 -2.14598,6.04216 -2.14598,6.82161 0,13.62946 1.32599,4.20654 2.27616,11.51832 2.27616,17.51564 0,7.87724 0.39139,10.06135 1.66667,9.30058 0.91667,-0.54684 19.19513,-11.98226 40.61881,-25.41203 z m -9.71222,-55.32324 C 514.31975,408.39253 514.6272,395.3 514.58983,392 c -0.0373,-3.3 -0.34846,-30.75 -0.69131,-61 -0.34285,-30.25 -0.23839,-55 0.23216,-55 0.47055,0 8.00663,4.23165 16.74684,9.40369 l 15.89131,9.40368 -0.68968,28.26299 c -0.84772,34.73884 -0.84947,37.62947 -0.0433,71.59631 0.35676,15.03333 0.19467,28.01345 -0.36021,28.84472 -0.94469,1.41522 -22.61563,15.43732 -29.43117,19.04333 l -3.08898,1.63433 0.75119,-23.09453 z m 190.53182,65.08677 C 711.75476,483.12433 716,476.86827 716,469.14337 c 0,-3.65861 -0.61699,-7.80485 -1.37107,-9.21389 -0.80205,-1.49864 -1.21708,-9.98955 -1,-20.45909 L 714,421.57317 l 15.65105,9.68042 c 8.60807,5.32422 16.91106,11.28225 18.45106,13.24005 4.30556,5.47363 10.0833,7.90741 16.93782,7.13481 21.3448,-2.40588 23.57898,-31.16122 2.87908,-37.05569 -5.42185,-1.54391 -37.23437,-19.69563 -37.22402,-21.23943 0.003,-0.36666 6.14709,-3.82062 13.65474,-7.67545 9.95879,-5.11339 15.1294,-7.00643 19.11976,-7 10.69631,0.0172 20.23842,-10.32483 18.44496,-19.99121 -1.77978,-9.59267 -2.17094,-60.46555 -0.51882,-67.47446 2.05596,-8.72208 0.20325,-14.84546 -6.1901,-20.4589 -3.56714,-3.13199 -5.89977,-4.06664 -10.14921,-4.06664 -4.70469,0 -8.67561,-2.00191 -26.9536,-13.58847 -11.78983,-7.47367 -23.43623,-15.87767 -25.88088,-18.67555 -2.97365,-3.40332 -6.28593,-5.55066 -10.00731,-6.48772 -3.05936,-0.77036 -8.85918,-3.43785 -12.8885,-5.92776 L 682,217.46007 l -1.05571,10.93664 c -0.58064,6.01514 -0.99664,14.38662 -0.92444,18.60329 0.10414,6.07912 0.1854,107.01621 0.1168,145 -0.008,4.4 0.0181,21.35 0.058,37.66667 0.0399,16.31666 -0.33221,32.96666 -0.82681,37 -0.77969,6.35809 -0.48361,7.95394 2.22633,12 3.35398,5.0076 10.50656,9.32789 15.44863,9.33126 1.67355,10e-4 5.00157,-0.81634 7.39559,-1.81664 z m 8.89492,-165.60309 v -44.84007 l 4.33334,2.77587 c 2.38333,1.52672 9.88668,6.23564 16.6741,10.46427 l 12.34078,7.6884 -0.34078,25.71709 -0.34077,25.71711 -16.33333,8.65869 -16.33334,8.65871 z M 443.44415,449.85805 c 13.53022,-6.42052 13.04518,-27.08853 -0.80406,-34.2612 -11.79878,-6.11072 -27.08453,3.39807 -27.08453,16.84843 0,14.69889 14.51257,23.76011 27.88859,17.41277 z m 199.7338,0.2928 c 14.50761,-6.06166 14.527,-27.19366 0.0315,-34.21086 -16.94112,-8.20107 -34.27942,10.4478 -24.54988,26.40553 5.27568,8.65281 15.04607,11.76316 24.51848,7.80533 z m -199.7338,-73.62613 c 12.42798,-5.89747 13.37466,-24.34635 1.67672,-32.67601 -11.818,-8.41516 -29.57582,0.65661 -29.55843,15.10024 0.0183,15.20712 14.12881,24.10194 27.88171,17.57577 z m 200.51694,0.16207 c 9.03923,-4.67438 12.67992,-15.76642 8.20739,-25.00542 C 643.38051,333.52784 616,339.32057 616,359.33333 c 0,7.34792 5.70405,16.09018 12,18.3917 3.94547,1.44229 12.20299,0.90514 15.96109,-1.03824 z M 444.93527,301.38731 c 11.56885,-7.05394 11.08636,-26.50402 -0.8101,-32.65591 -8.73566,-4.5174 -21.00866,-1.39396 -26.30913,6.69557 -3.14561,4.8008 -3.04083,14.8125 0.20681,19.76064 5.66008,8.62379 18.19931,11.51239 26.91242,6.1997 z m 199.99229,0.005 c 11.44015,-6.97551 12.53096,-21.65644 2.27797,-30.65869 -3.89933,-3.42366 -5.7311,-4.06586 -11.58526,-4.06166 -8.5348,0.007 -14.32372,3.23638 -17.39366,9.70578 -4.36042,9.18893 -1.66576,19.63802 6.44006,24.97256 5.24986,3.455 14.63153,3.47445 20.26089,0.042 z"
       id="path1534" />
    <path
       style="fill:#000000;stroke-width:1.33333"
       d="m 568,1075.2155 c -2.56667,-0.2935 -11.24985,-1.17 -19.29596,-1.9478 -61.29188,-5.925 -124.71816,-26.0455 -182.97249,-58.0438 -15.03242,-8.2571 -49.46158,-31.53713 -65.06488,-43.99503 -18.80526,-15.01438 -59.62323,-55.81932 -73.91914,-73.89554 -39.62557,-50.1039 -69.34849,-107.12994 -85.9484,-164.89961 -43.508787,-151.41577 -11.80072,-309.76528 86.72447,-433.10039 15.18188,-19.00488 53.11417,-56.95598 71.80973,-71.84536 146.43242,-116.62057 342.16519,-138.769829 508,-57.48564 48.78294,23.91102 85.17212,49.56527 123.83542,87.30351 81.17835,79.23611 128.23915,175.49905 142.43955,291.36083 2.1934,17.89576 2.1866,82.71629 -0.011,100.66666 -8.61,70.34166 -27.8029,128.83903 -61.6825,188 -40.64585,70.97618 -103.51895,133.84655 -174.58187,174.57437 -57.5705,32.9949 -114.55729,52.0612 -182,60.8922 -15.07446,1.9739 -76.36888,3.6692 -87.33333,2.4156 z M 309.36445,849.97019 c 8.2664,-7.91972 8.522,-19.99484 0.59111,-27.92575 -8.21275,-8.21273 -20.61744,-7.62435 -28.49857,1.35176 -3.43678,3.91427 -4.12366,5.81036 -4.12366,11.38308 0,13.37833 7.28526,20.37975 20.3347,19.5424 6.26264,-0.40185 8.40633,-1.19939 11.69642,-4.35149 z m 198.0756,2.18224 c 5.97375,-3.64279 9.03858,-10.90126 7.86008,-18.61518 -0.81082,-5.30736 -0.9321,-17.13489 -0.72329,-70.53725 0.0165,-4.21667 -0.29879,-19.66667 -0.7006,-34.33333 -0.87828,-32.05827 -0.004,-37.02267 9.27123,-52.66667 22.20049,-37.44281 48.11902,-77.94145 52.14184,-81.47353 9.00394,-7.90556 9.06066,-21.09756 0.12453,-28.94364 -11.54296,-10.13487 -27.42252,-4.8518 -32.02768,10.65546 -1.8526,6.23815 -44.31512,77.09504 -46.20093,77.09504 -0.4758,0 -7.031,-10.65 -14.56714,-23.66666 C 475.08197,616.65 465.73744,600.6 461.85247,594 c -3.88498,-6.6 -7.64216,-14.61611 -8.3493,-17.81356 -3.53452,-15.98181 -22.6086,-21.05763 -33.31374,-8.86515 -7.33182,8.35048 -6.80842,19.09958 1.30457,26.79211 3.68733,3.49624 11.73805,16.50401 34.17655,55.21993 4.03765,6.96667 8.76354,14.9038 10.50198,17.63808 1.73844,2.73428 3.1608,5.27527 3.1608,5.64664 0,0.37138 1.70768,3.53423 3.79486,7.02859 6.18946,10.36244 7.14269,17.75164 6.32373,49.02003 -0.40335,15.4 -0.68405,31.3 -0.62381,35.33333 0.52828,35.3686 0.23406,64.17471 -0.69719,68.26095 -0.61765,2.7102 -0.74996,6.41394 -0.29401,8.23057 1.04537,4.16511 7.07189,11.40712 10.72101,12.88335 5.0022,2.0236 14.57535,1.40382 18.88213,-1.22244 z m 200.15418,-0.0937 c 12.74072,-7.7685 12.31896,-25.78682 -0.77588,-33.14654 -10.13691,-5.69726 -21.80947,-1.92575 -26.95839,8.7105 -4.43561,9.16274 -1.41179,19.17646 7.41631,24.56 5.37457,3.27751 14.83404,3.2198 20.31796,-0.124 z m 200.20005,0.49547 c 5.67168,-3.38555 8.64808,-8.4762 9.23472,-15.79452 0.43843,-5.46937 -0.0585,-7.65036 -2.60348,-11.42628 -8.11551,-12.04079 -24.73329,-12.10991 -32.73228,-0.13616 -5.6634,8.4776 -3.00223,21.13187 5.64009,26.81948 4.93434,3.24733 15.45811,3.52377 20.46095,0.53748 z M 304.82475,780.50228 c 8.88254,-4.21504 12.47262,-12.75933 9.93357,-23.64164 -0.9254,-3.96625 -1.42303,-13.40569 -1.17952,-22.37456 L 314,718.97216 l 14.17197,8.18059 c 7.79459,4.49932 16.93119,10.73058 20.30355,13.84725 5.68319,5.25228 6.67379,5.66667 13.54632,5.66667 6.75691,0 7.90161,-0.45414 12.90229,-5.11872 4.88707,-4.55862 5.5461,-5.90819 6.0226,-12.33334 0.41623,-5.61237 -0.0709,-8.17968 -2.19365,-11.56013 -3.1576,-5.02855 -10.06941,-9.64229 -14.4558,-9.64949 -2.96681,-0.005 -42.16959,-21.64099 -43.70084,-24.11862 -1.07565,-1.74045 49.86988,-86.35198 53.00313,-88.02886 4.30302,-2.3029 7.7234,-9.38095 7.72878,-15.99367 0.007,-8.30016 -4.2064,-14.36651 -12.31024,-17.72507 -5.51019,-2.28364 -6.91967,-2.39062 -11.88711,-0.90234 -7.01275,2.10106 -12.76468,8.09133 -13.94784,14.52574 -0.496,2.69748 -7.26512,15.53368 -15.04249,28.5249 L 314,627.90748 313.61713,590.28707 c -0.25925,-25.47312 0.1148,-39.43292 1.15838,-43.23383 2.16457,-7.88369 0.60484,-14.25067 -4.81995,-19.67547 -8.2654,-8.26538 -20.61429,-7.62793 -28.60835,1.4768 -4.0701,4.63559 -4.19816,5.13655 -3.31884,12.98352 0.75415,6.72995 0.94191,42.52164 0.76326,145.49524 -0.008,4.76667 0.0156,21.71667 0.0531,37.66667 0.0375,15.95 -0.3335,32.61029 -0.82441,37.02287 -0.78629,7.06786 -0.53728,8.4745 2.09197,11.81705 6.64522,8.44801 15.76707,10.90723 24.71246,6.66236 z m 404.2344,-1.64037 c 5.15217,-3.66867 8.90849,-13.06271 7.73165,-19.3358 -1.73927,-9.27107 -9.69305,-15.52984 -19.72459,-15.52112 -7.92858,0.007 -13.96496,4.00689 -17.24841,11.42969 -4.17629,9.44121 -1.01047,19.06363 8.04915,24.46507 6.03913,3.6006 15.31614,3.14628 21.1922,-1.03784 z m 197.58094,1.46936 c 2.55204,-1.2822 6.0555,-4.43127 7.78543,-6.99794 2.60337,-3.86257 3.04547,-5.90978 2.56575,-11.88128 -0.51395,-6.39746 -1.20112,-7.79436 -6.06714,-12.33333 C 906.02636,744.55013 904.69564,744 898.54235,744 c -12.11858,0 -19.87568,7.67723 -19.87568,19.671 0,9.71891 9.43949,18.99152 19.33333,18.99152 2.2,0 6.08804,-1.04907 8.64009,-2.33125 z M 245.27892,743.17451 c 11.68584,-9.83298 10.36203,-26.30724 -2.63883,-32.83911 -16.70354,-8.39215 -34.12452,9.14873 -25.95114,26.12976 4.94449,10.27268 20.1222,13.83452 28.58997,6.70935 z m 199.65635,0.87946 c 8.4006,-5.12214 11.5898,-19.11026 6.05972,-26.5785 C 447.01271,712.09749 440.09783,708 435.00433,708 c -19.64332,0 -27.39049,24.78439 -11.14049,35.64009 5.79109,3.8687 15.10529,4.05166 21.07143,0.41388 z m 128.15544,-0.0945 c 5.70149,-3.47608 10.03237,-12.83732 8.85141,-19.13239 -2.56185,-13.65584 -15.73577,-20.52998 -28.1002,-14.66268 -13.56263,6.43588 -14.27371,26.06535 -1.23232,34.01824 5.44863,3.32267 14.83291,3.22042 20.48111,-0.22317 z m 72.37878,-0.31936 c 6.63483,-4.43236 9.57716,-10.87621 8.35907,-18.30676 -1.27747,-7.79271 -1.18247,-61.84413 0.12,-68.30015 0.5926,-2.93733 0.39676,-6.70317 -0.47929,-9.21621 -0.81474,-2.33717 -1.30932,-4.42141 -1.09907,-4.63167 0.33773,-0.33774 23.89616,39.95828 24.55792,42.00563 0.14384,0.44499 0.88148,3.22732 1.63923,6.18295 0.82209,3.20668 3.67405,7.80522 7.07182,11.40272 3.13176,3.31585 6.97531,8.38597 8.54122,11.26692 l 2.8471,5.23809 3.81956,-6.51653 c 2.10076,-3.58408 4.94315,-7.47244 6.31644,-8.6408 5.60631,-4.76972 7.64087,-7.62287 9.08734,-12.74352 1.67656,-5.9353 28.96553,-51.94214 30.12294,-50.78471 0.39823,0.39821 -0.0433,3.0494 -0.98138,5.89152 -1.09826,3.32775 -1.35071,7.24637 -0.7091,11.00663 1.28076,7.50608 1.26892,59.78536 -0.0155,68.44581 -1.88966,12.74123 6.76389,21.54627 20.08948,20.44121 11.80705,-0.97913 18.9317,-9.6261 17.20581,-20.88218 -0.51996,-3.39115 -0.89869,-19.36571 -0.84163,-35.49904 0.0571,-16.13334 0.0668,-32.63334 0.0217,-36.66667 -0.1371,-12.25143 -0.0917,-64.17996 0.0629,-72 0.29428,-14.88063 -1.40056,-57.33307 -2.2886,-57.32485 -0.50465,0.005 -6.21948,8.71134 -12.69961,19.34818 -6.48014,10.63683 -12.96224,19.97131 -14.40468,20.74328 -3.29051,1.76103 -7.80167,9.03096 -7.80827,12.58336 -0.003,1.47582 -9.95396,18.87582 -22.11381,38.66667 -12.15984,19.79084 -22.56459,36.78856 -23.12166,37.77271 -0.68864,1.2166 -2.93612,-1.55743 -7.02161,-8.66667 -3.30484,-5.7508 -11.5992,-20.056 -18.43193,-31.78933 -17.71106,-30.41387 -18.25523,-31.46127 -19.22856,-37.01044 -0.58122,-3.31359 -2.60308,-6.7002 -5.97018,-10 -2.80024,-2.74426 -6.00064,-6.48956 -7.11201,-8.3229 -1.11137,-1.83333 -6.4422,-10.83333 -11.84629,-20 l -9.82562,-16.66666 -0.98412,26 c -0.54125,14.3 -0.9643,29.45 -0.94009,33.66666 0.0993,17.31034 0.152,64.92664 0.0807,73 -0.0421,4.76667 -0.0353,21.26667 0.0152,36.66667 0.0505,15.4 -0.32331,31.45491 -0.83064,35.67757 -0.76491,6.36659 -0.4789,8.37806 1.67498,11.77988 5.93984,9.38132 18.16138,12.1675 27.12016,6.18264 z m 200.34211,0.49605 c 8.04503,-5.30397 10.95735,-15.04094 7.48124,-25.01252 -0.75799,-2.17434 -1.20625,-11.79697 -1,-21.466 l 0.37383,-17.52504 13.72025,7.8951 c 7.54615,4.34229 15.24036,9.70162 17.09827,11.90962 7.02894,8.35343 20.20928,8.6349 28.24109,0.60308 2.52044,-2.52044 8.26312,-6.60548 12.76151,-9.07784 C 942.40865,681.61301 945.45572,680 946.14117,680 c 0.89308,0 -0.31349,38.77224 -1.43149,46 -2.31501,14.9662 16.13823,26.23705 29.55892,18.05397 6.49136,-3.958 8.80929,-9.52964 7.71409,-18.54234 C 981.48065,721.38024 981.1112,705.4 981.16168,690 c 0.0505,-15.4 0.0576,-31.9 0.0159,-36.66667 -0.20304,-23.17414 0.0256,-65.02513 0.40113,-73.43578 0.41845,-9.37114 0.38783,-9.46651 -4.47113,-13.91942 -2.83002,-2.5935 -7.03986,-4.88648 -9.98638,-5.43924 -6.88438,-1.29152 -48.90076,-26.16078 -54.96036,-32.53074 -8.35838,-8.7865 -21.43792,-8.57283 -29.09046,0.47521 -2.05535,2.43015 -10.03699,8.03595 -17.73699,12.45733 -7.7,4.42138 -18.47883,10.64462 -23.95296,13.82942 -5.47413,3.18478 -12.37413,7.01438 -15.33333,8.51021 -7.19995,3.63944 -10.4651,9.99175 -9.27944,18.05301 0.73202,4.97698 1.10826,40.78724 0.75646,72 -0.0455,4.03334 0.0255,20.53334 0.15756,36.66667 0.13214,16.13333 -0.26542,31.55076 -0.88341,34.26095 -0.618,2.7102 -0.75059,6.41394 -0.29464,8.23057 1.04537,4.16511 7.07189,11.40712 10.72101,12.88335 5.04762,2.04197 14.57387,1.4071 18.58702,-1.23872 z m 29.51669,-89.27702 -22.66162,-12.97051 -0.36091,-26.09587 c -0.32308,-23.35962 -0.11333,-26.38609 2,-28.86377 1.72416,-2.02139 30.98711,-19.91133 43.02757,-26.30499 C 897.7,560.42927 908.8,566.67917 922,574.51265 l 24,14.2427 v 26.56522 26.56522 l -8,4.50121 c -4.4,2.47567 -15.20227,8.31303 -24.00504,12.97191 l -16.00503,8.4707 z m -628.40416,13.3555 c 4.86602,-4.53897 5.55319,-5.93586 6.06714,-12.33333 0.47972,-5.97149 0.0376,-8.01871 -2.56575,-11.88128 -3.60752,-5.35239 -10.60931,-9.32919 -16.42552,-9.32919 -10.33799,0 -19.33973,9.25104 -19.32455,19.8597 0.0163,11.34044 7.81736,18.77922 19.70951,18.79404 6.34143,0.008 7.60432,-0.50675 12.53917,-5.10994 z m 125.55414,2.5882 c 12.63986,-8.3333 11.62266,-27.03777 -1.83818,-33.80074 -8.98249,-4.51296 -19.23681,-1.65011 -25.06561,6.99793 -2.60337,3.86257 -3.04547,5.90979 -2.56575,11.88128 0.51395,6.39747 1.20112,7.79436 6.06714,12.33333 4.93485,4.60319 6.19774,5.11784 12.53917,5.10994 4.65863,-0.005 8.34512,-0.86156 10.86323,-2.52174 z m 71.48282,0.55064 c 6.23663,-3.22509 9.67994,-9.24306 9.67994,-16.91797 0,-7.5568 -2.50631,-11.92219 -9.62747,-16.76881 -12.92755,-8.79842 -31.76387,4.36501 -28.80621,20.13069 0.99589,5.30855 6.39746,12.51012 10.6839,14.24417 4.47667,1.811 13.93352,1.4509 18.06984,-0.68808 z m 128,0 c 9.39794,-4.85986 13.14212,-18.96722 7.17272,-27.02537 -7.01942,-9.47559 -16.64662,-11.97929 -25.95216,-6.74929 -9.68002,5.44048 -12.95102,18.26438 -7.01057,27.48486 4.85004,7.528 17.45216,10.60147 25.79001,6.2898 z M 242.12728,597.46149 c 14.71495,-6.6828 14.97375,-26.96309 0.44073,-34.53697 -13.36274,-6.964 -27.90962,2.07951 -27.89636,17.3426 0.007,7.71481 4.01046,13.93133 11.02256,17.11445 7.02399,3.18852 9.56104,3.20086 16.43307,0.0799 z m 265.31277,-39.97573 c 8.37538,-5.10729 11.13808,-18.56551 5.53338,-26.95525 -10.7901,-16.15179 -35.6401,-8.60323 -35.6401,10.82621 0,5.36188 2.89703,10.81148 8.05442,15.15112 5.22028,4.39259 15.6912,4.85692 22.0523,0.97792 z m 200.15418,-0.0937 c 13.46894,-8.21254 11.72848,-28.53235 -2.92318,-34.12786 -17.82105,-6.80593 -33.83628,12.66396 -23.5172,28.59014 5.15328,7.95342 18.04892,10.6543 26.44038,5.53772 z M 522.28507,477.78591 c 21.84321,-13.68442 41.76849,-25.34459 44.27841,-25.9115 6.75633,-1.52601 11.11841,-5.38482 14.05227,-12.43096 2.51412,-6.0381 2.52706,-6.53181 0.33333,-12.70842 -1.84967,-5.20784 -2.28241,-11.2438 -2.28241,-31.8353 0,-13.97496 0.53198,-25.7378 1.18218,-26.13965 2.41787,-1.49432 2.88548,-9.85873 0.87403,-15.63421 -2.928,-8.40714 -2.89849,-52.04968 0.0412,-61.0375 1.6696,-5.10452 1.80181,-7.51076 0.64808,-11.7954 -1.76809,-6.56618 -8.59979,-12.92698 -15.21737,-14.16845 -6.57055,-1.23264 -49.67898,-26.80327 -55.49674,-32.919 -3.18254,-3.34556 -6.4409,-5.28657 -9.99325,-5.95299 -2.89903,-0.54386 -8.17,-2.69817 -11.71325,-4.78736 -3.5432,-2.08917 -6.9523,-3.7985 -7.57571,-3.7985 -1.24024,0 -3.00204,18.24012 -2.73669,28.33333 0.12946,4.92513 0.22146,102.22557 0.13772,145.66667 -0.008,4.03333 -0.0141,21.13333 -0.0141,38 0,16.86666 -0.034,33.81666 -0.0755,37.66666 -0.1455,13.4887 1.4612,34.33334 2.64638,34.33334 0.65808,0 19.06824,-11.19635 40.91146,-24.88076 z m -8.48588,-55.25734 c 0.32653,-12.02405 1.02572,-24.48952 1.55374,-27.70104 0.5775,-3.51232 0.3435,-7.76282 -0.5872,-10.66666 -1.09406,-3.41358 -1.4328,-19.96803 -1.15649,-56.51999 L 514,275.94844 l 15.33333,8.9598 c 8.43334,4.92789 15.77415,9.58949 16.31292,10.35911 0.53878,0.76962 0.98878,12.71878 1,26.5537 0.0164,20.15931 -0.4224,26.40115 -2.20952,31.4329 -2.08436,5.86864 -2.08436,6.7236 0,13.09614 1.75667,5.37072 2.22994,12.02639 2.22994,31.36046 0,28.22665 1.55237,24.76668 -16,35.66114 -6.23334,3.86894 -12.71211,7.9309 -14.39727,9.0266 l -3.06392,1.99218 z m 195.25996,61.66667 c 2.30705,-1.64277 5.05021,-5.47141 6.34009,-8.84893 1.97535,-5.17235 2.04528,-6.70062 0.53315,-11.64982 -1.87583,-6.13957 -3.3793,-41.02982 -1.76804,-41.02982 2.20413,0 31.43957,19.1404 32.90992,21.54606 3.26945,5.34927 9.87053,8.14971 17.68305,7.50183 10.67604,-0.88535 17.90935,-8.57848 17.90935,-19.04789 0,-9.13578 -5.66051,-16.13227 -14.99919,-18.53924 C 762.18321,412.71389 732,395.2268 732,393.46293 c 0,-0.47938 5.91647,-4.00466 13.14772,-7.83394 10.30268,-5.45575 14.46408,-6.96232 19.23103,-6.96232 11.08317,0 19.448,-10.12862 17.52557,-21.22095 -1.32491,-7.64461 -1.36088,-61.11693 -0.0472,-70.11239 0.78148,-5.35109 0.46721,-7.58756 -1.59256,-11.33333 -3.16979,-5.76435 -9.73672,-9.76759 -16.56612,-10.09879 -4.03387,-0.19564 -9.93347,-3.26414 -26.76965,-13.92349 -11.87751,-7.51991 -22.08044,-14.50041 -22.67318,-15.51224 -2.24477,-3.83197 -7.01574,-7.25072 -12.20821,-8.74807 -2.95943,-0.85341 -8.54241,-3.53894 -12.40665,-5.96786 -3.86422,-2.42892 -7.31422,-4.41622 -7.66664,-4.41622 -0.35243,0 -0.64951,3.75 -0.66018,8.33334 -0.0107,4.58333 -0.92724,10.93997 -2.03681,14.12586 -2.01145,5.77548 -1.54384,14.1399 0.87403,15.63422 0.65964,0.40768 1.18218,27.84298 1.18218,62.06808 0,52.85849 -0.29768,62.24756 -2.15346,67.9213 -1.98242,6.06087 -1.98242,7.10687 0,13.16774 3.07744,9.40873 3.11257,55.48228 0.0484,63.50562 -4.9607,12.98938 5.59076,26.7323 19.60136,25.53016 3.4516,-0.29616 7.95202,-1.80272 10.22949,-3.42441 z m 4.27418,-163.43872 c 0,-23.88276 0.45,-43.42311 1,-43.423 0.55,1.1e-4 7.9,4.42157 16.33334,9.82548 L 746,296.98428 l 0.33415,25.17453 0.33414,25.17452 -14.19213,7.63755 c -7.80568,4.20064 -15.30604,7.99107 -16.66748,8.42317 -2.37699,0.75443 -2.47535,-0.93986 -2.47535,-42.63753 z M 444.93527,449.38731 c 8.4006,-5.12215 11.5898,-19.11027 6.05972,-26.57851 -6.73806,-9.09957 -16.1774,-11.64731 -25.5111,-6.88561 -18.01245,9.18928 -11.26632,36.08833 9.04662,36.07182 3.73156,-0.003 7.80892,-1.02492 10.40476,-2.6077 z m 203.09585,-2.08379 c 10.2412,-9.81169 7.64681,-26.89821 -4.87883,-32.13176 -8.55884,-3.57611 -16.39853,-1.75312 -23.04174,5.35797 -4.55032,4.87079 -5.48279,16.38322 -1.79834,22.20243 4.50098,7.10879 9.28806,9.47821 18.02248,8.92047 6.2646,-0.40003 8.40531,-1.19602 11.69643,-4.34911 z M 444.93527,376.05397 c 13.01,-7.93265 11.05832,-28.72873 -3.21108,-34.21553 -10.6286,-4.08685 -21.15995,0.43703 -25.11286,10.78756 -3.14965,8.24724 -1.74336,14.55569 4.67574,20.97479 4.60934,4.60936 5.71082,5.06542 12.22273,5.06089 4.74436,-0.003 8.59577,-0.88233 11.42547,-2.60771 z m 201.67698,-0.87946 c 6.01159,-5.0584 8.47006,-10.56376 7.71376,-17.27368 -2.11881,-18.79802 -25.91692,-24.23599 -35.71801,-8.16172 -3.14875,5.16408 -3.39767,14.1996 -0.54327,19.7194 4.87687,9.43082 20.4314,12.54526 28.54752,5.716 z M 440.24763,303.95356 c 9.07637,-2.52089 15.27062,-13.59924 13.06694,-23.37009 -2.32613,-10.31372 -13.96264,-17.07598 -24.13824,-14.0273 -6.08129,1.822 -12.75529,9.17692 -13.90932,15.32842 -1.7183,9.15934 4.52002,19.41578 13.39966,22.03042 5.43162,1.59938 5.955,1.60111 11.58096,0.0385 z m 203.22096,-1.35237 c 6.78212,-3.28316 9.64632,-7.30211 10.70413,-15.01962 2.26605,-16.53274 -17.80316,-28.26432 -30.82677,-18.01994 -9.98335,7.8529 -9.82622,24.32504 0.3006,31.5109 6.78388,4.81376 12.17678,5.22966 19.82204,1.52866 z"
       id="path1532" />
  </g>
</svg>
