<?xml version="1.0" encoding="UTF-8" standalone="no"?>
<svg
   xmlns:dc="http://purl.org/dc/elements/1.1/"
   xmlns:cc="http://creativecommons.org/ns#"
   xmlns:rdf="http://www.w3.org/1999/02/22-rdf-syntax-ns#"
   xmlns:svg="http://www.w3.org/2000/svg"
   xmlns="http://www.w3.org/2000/svg"
   xmlns:sodipodi="http://sodipodi.sourceforge.net/DTD/sodipodi-0.dtd"
   xmlns:inkscape="http://www.inkscape.org/namespaces/inkscape"
   version="1.1"
   id="svg912"
   width="1200"
   height="1200"
   viewBox="0 0 1200 1200"
   sodipodi:docname="copyLogo0.svg"
   inkscape:version="1.0.1 (c497b03c, 2020-09-10)">
  <style
     id="style867"></style>
  <style></style>
  <metadata
     id="metadata918">
    <rdf:RDF>
      <cc:Work
         rdf:about="">
        <dc:format>image/svg+xml</dc:format>
        <dc:type
           rdf:resource="http://purl.org/dc/dcmitype/StillImage" />
        <dc:title />
      </cc:Work>
    </rdf:RDF>
  </metadata>
  <defs
     id="defs916" />
  <sodipodi:namedview
     pagecolor="#ffffff"
     bordercolor="#666666"
     borderopacity="1"
     objecttolerance="10"
     gridtolerance="10"
     guidetolerance="10"
     inkscape:pageopacity="0"
     inkscape:pageshadow="2"
     inkscape:window-width="1270"
     inkscape:window-height="760"
     id="namedview914"
     showgrid="false"
     inkscape:zoom="0.32467986"
     inkscape:cx="293.23223"
     inkscape:cy="849.89378"
     inkscape:window-x="10"
     inkscape:window-y="28"
     inkscape:window-maximized="0"
     inkscape:current-layer="layer1"
     showborder="false"
     inkscape:document-rotation="0" />
  <g
     inkscape:groupmode="layer"
     inkscape:label="Image"
     id="g920"
     style="display:inline" />
  <g
     inkscape:groupmode="layer"
     id="layer1"
     inkscape:label="Image 1"
     style="display:inline">
    <path
       style="fill:#000000;stroke-width:1.33333"
       d="m 304.95591,852.44005 c 12.33034,-5.85113 13.08018,-25.34297 1.27256,-33.07962 -1.7777,-1.1648 -5.9718,-2.1728 -9.32024,-2.24 -19.74134,-0.39626 -26.84082,24.57028 -9.92042,34.88677 5.31,3.23755 11.73164,3.39224 17.9681,0.43285 z m 201.30498,-0.38138 c 8.49696,-5.18092 11.77736,-15.1034 7.86303,-23.78387 -1.90009,-4.21364 -2.17517,-8.80781 -1.81351,-30.2876 0.30863,-18.3302 0.95475,-26.50963 2.3404,-29.62769 1.64672,-3.70559 1.65459,-5.1023 0.0563,-10 -1.25741,-3.85312 -2.01191,-14.40699 -2.33472,-32.65796 -0.39513,-22.33874 -0.1248,-27.64602 1.57532,-30.93379 1.12876,-2.18276 2.05228,-4.96717 2.05228,-6.18759 0,-3.17972 52.73117,-88.61366 57.05661,-92.44194 5.89152,-5.21434 8.25856,-9.75811 8.26794,-15.87111 0.0175,-11.37616 -7.42416,-18.92381 -18.65788,-18.92381 -9.97258,0 -16.76448,5.61752 -18.5802,15.36749 -0.69464,3.73004 -45.21443,77.90069 -46.78163,77.93892 -1.34779,0.0329 -43.97147,-74.12548 -43.97147,-76.50333 0,-4.46127 -4.2513,-11.41755 -8.63266,-14.12538 -5.62775,-3.47814 -14.6665,-3.51153 -20.3026,-0.0749 -10.73579,6.54599 -11.371,23.9776 -1.15088,31.58224 1.82702,1.35945 6.26169,7.57173 9.85481,13.80507 3.59313,6.23333 14.78345,25.43333 24.86737,42.66666 10.08392,17.23334 19.28812,34.33334 20.45378,38 3.18597,10.0218 3.83901,57.45371 0.9195,66.78608 -1.93869,6.19714 -1.9396,7.32608 -0.0107,13.00832 1.70878,5.03312 2.02341,10.9984 1.64636,31.21392 -0.2894,15.51603 -1.1276,27.12954 -2.21074,30.63018 -1.60622,5.1913 -1.49436,6.14304 1.41044,12 5.12527,10.33408 16.77548,14.09509 26.0826,8.42017 z m 199.84992,0.46605 c 12.78456,-6.06668 13.2077,-26.64887 0.68103,-33.12665 -9.17133,-4.74268 -21.75941,-1.17386 -26.20887,7.43044 -3.33178,6.44296 -2.01246,16.18629 2.89396,21.37236 2.12102,2.2419 5.0564,4.57582 6.52307,5.18648 4.33211,1.8037 11.27537,1.43193 16.11081,-0.86263 z m 199.70815,0.30352 c 12.85859,-5.37267 14.98147,-21.83315 4.05324,-31.42827 -3.85815,-3.38748 -5.7586,-4.06664 -11.37953,-4.06664 -8.69194,0 -13.79916,3.0588 -17.34818,10.3901 -4.71477,9.73942 -1.36605,19.68734 8.28362,24.60784 5.51012,2.80966 10.49412,2.96078 16.39085,0.49697 z M 309.4902,776.15687 c 4.68152,-4.68152 5.17647,-5.8373 5.17647,-12.08766 0,-3.80116 -0.61747,-8.06493 -1.37214,-9.47505 -0.79794,-1.49096 -1.21641,-9.75067 -1,-19.73781 l 0.37214,-17.17395 15.39725,8.82547 c 8.46849,4.854 17.60965,11.04661 20.31368,13.76136 15.03431,15.09388 38.59165,0.20624 31.02492,-19.60695 -2.41467,-6.32273 -8.66076,-11.32895 -14.13476,-11.32895 -1.69628,0 -9.12545,-3.53045 -16.50928,-7.84544 -7.38383,-4.315 -17.02515,-9.93505 -21.42515,-12.48902 -4.67925,-2.71606 -7.81772,-5.40254 -7.56085,-6.47199 1.12892,-4.70035 50.61811,-84.86996 54.48851,-88.26821 12.30309,-10.80227 6.49532,-30.78232 -9.47088,-32.58194 -10.64902,-1.2003 -19.48754,4.9619 -21.34903,14.8845 -0.49029,2.61349 -7.61511,15.96909 -15.83292,29.6791 l -14.94149,24.9273 -0.35326,-39.63426 c -0.22245,-24.95841 0.14784,-40.57053 1,-42.16282 1.86462,-3.48407 1.66404,-13.34532 -0.35249,-17.33052 -2.72771,-5.39067 -9.88145,-9.37402 -16.82476,-9.36838 -11.92084,0.009 -20.06955,9.23604 -18.07408,20.46432 0.5406,3.04188 0.92899,35.2307 0.86309,71.5307 -0.0659,36.3 -0.0892,69.3 -0.0519,73.33333 0.33505,36.17611 -0.0249,68.28551 -0.81566,72.76197 -2.10305,11.90518 5.93178,20.5572 19.09926,20.56638 6.53869,0.004 7.60397,-0.44212 12.33333,-5.17148 z m 398.11173,2.56377 c 7.97127,-4.86036 10.99039,-17.25409 6.18483,-25.38924 C 710.99321,748.60231 702.92049,744 697.41892,744 c -9.19736,0 -17.37316,7.35455 -18.41092,16.56155 -0.84555,7.5016 1.36772,13.15484 6.83879,17.468 5.33366,4.20484 15.4646,4.52666 21.75514,0.69109 z m 200.554,0.30848 c 5.3323,-3.14985 9.7228,-12.48496 8.73496,-18.57228 -2.32394,-14.32081 -19.56886,-21.12453 -30.9172,-12.19793 -3.91754,3.08154 -7.30702,9.85892 -7.30702,14.61064 0,4.73856 4.93244,13.60066 8.95808,16.09497 4.86785,3.01615 15.47812,3.04953 20.53118,0.0647 z M 242.28924,744.44005 c 9.20825,-4.36961 13.04089,-15.47328 8.54591,-24.75868 -3.48783,-7.20489 -8.6688,-10.34952 -17.04087,-10.34305 -8.83405,0.007 -14.2124,3.50941 -17.1334,11.15795 -6.4242,16.82152 9.42773,31.63148 25.62836,23.94378 z m 201.38961,-0.43285 c 9.1221,-5.5618 12.34323,-17.58116 7.04179,-26.2758 -3.45112,-5.66003 -9.10472,-8.39807 -17.34068,-8.39807 -5.78525,0 -7.44267,0.63254 -11.57119,4.41604 -4.09373,3.75163 -4.92176,5.48842 -5.50361,11.54379 -0.516,5.37017 -0.0792,8.25245 1.77139,11.6888 4.72773,8.77887 17.14,12.18477 25.6023,7.02524 z m 126.7207,0.78615 c 6.5648,-3.41566 9.93974,-8.25062 10.60708,-15.1957 1.18562,-12.339 -6.12763,-20.26432 -18.69931,-20.26432 -11.48659,0 -18.30732,7.11134 -18.30732,19.08731 0,12.92035 15.07076,22.26708 26.39955,16.37271 z m 73.22302,-0.3533 c 7.3901,-3.50684 9.9865,-8.84082 8.97595,-18.44005 -1.1484,-10.90857 -1.10649,-61.00501 0.0583,-69.73533 0.61741,-4.62756 0.37464,-8.4411 -0.70302,-11.04276 -2.92217,-7.05476 -0.403,-5.56891 4.04204,2.38406 2.37543,4.25006 8.44811,14.71392 13.49487,23.25304 5.04676,8.53914 9.17592,16.81894 9.17592,18.39955 0,3.9664 3.39669,10.16765 6.9216,12.6366 1.61525,1.13136 4.86193,5.17809 7.21485,8.99273 l 4.27803,6.93571 3.97475,-6.26752 c 2.1861,-3.44715 5.54664,-7.50399 7.46785,-9.0152 4.03245,-3.17193 6.17649,-6.77792 7.48831,-12.59432 1.37908,-6.11467 29.88432,-52.20964 30.46166,-49.25865 0.26054,1.33173 -0.30118,4.76929 -1.24829,7.63904 -1.36013,4.12124 -1.38963,6.46036 -0.14037,11.13117 2.09114,7.81857 2.13742,56.81549 0.0591,62.56303 -3.32341,9.19074 2.58571,20.59244 12.15884,23.46062 15.28162,4.57848 28.6478,-9.3463 23.40907,-24.38736 -2.94695,-8.46104 -2.87955,-51.50454 0.0943,-60.23236 1.96402,-5.76412 1.96402,-6.81669 0,-12.82138 -3.03819,-9.28871 -3.06292,-52.05035 -0.0355,-61.30627 1.77465,-5.42569 1.83845,-7.24005 0.40736,-11.58387 -0.93964,-2.8521 -2.02741,-15.14472 -2.43757,-27.54638 L 778,525.20829 766.82371,543.46633 c -6.14698,10.04194 -13.1905,20.02654 -15.65228,22.18802 -2.85843,2.50973 -5.17578,6.28641 -6.41239,10.45053 -1.06503,3.58632 -11.95232,22.77759 -24.19401,42.64727 -18.0251,29.25682 -22.57062,35.78958 -23.90359,34.35394 -0.90528,-0.97501 -11.02445,-17.93545 -22.48704,-37.68986 -13.44384,-23.16887 -20.84107,-37.24795 -20.84107,-39.66667 0,-2.55741 -1.59537,-5.34493 -5.01777,-8.76733 -4.19721,-4.19722 -13.24955,-18.36671 -26.44976,-41.40146 l -2.53247,-4.41922 -0.96885,26.41922 c -0.53288,14.53058 -0.94923,29.26923 -0.92521,32.75256 0.10106,14.66532 0.16097,66.2418 0.0848,73 -0.0455,4.03334 0.003,20.53334 0.10746,36.66667 0.10454,16.13333 -0.25248,32.03333 -0.79345,35.33333 -2.4464,14.92343 12.75228,25.76543 26.78447,19.10672 z m 202.86308,-1.38821 c 5.47514,-4.01127 8.44132,-10.781 7.47134,-17.05184 -1.27119,-8.21807 -2.26426,-46 -1.20908,-46 2.59945,0 25.96098,14.39741 30.69144,18.91475 9.29866,8.87972 19.54834,9.14254 28.34269,0.72677 3.97105,-3.80011 33.17688,-20.97485 35.66795,-20.97485 0.85888,0 -0.29816,36.69936 -1.48112,46.97832 -0.73968,6.42729 -0.43227,8.36914 1.93001,12.19138 7.34564,11.8855 24.48221,11.44671 32.18753,-0.82418 2.25399,-3.58954 2.56079,-5.50531 1.76354,-11.01219 -0.53084,-3.66667 -0.9112,-19.41667 -0.84524,-35 0.15,-35.43579 0.14929,-37.96133 -0.0205,-73.33333 -0.0765,-15.95 0.33912,-31.76506 0.92376,-35.14458 0.81751,-4.72566 0.53323,-7.26094 -1.2311,-10.97898 -2.51083,-5.29122 -9.26226,-10.20978 -14.01438,-10.20978 -4.2283,0 -49.47625,-27.12753 -55.80632,-33.45758 -4.7692,-4.7692 -5.81653,-5.20908 -12.4026,-5.20908 -7.46641,0 -11.70832,1.96589 -16.08934,7.45652 -2.08232,2.60973 -40.28858,25.54636 -53.91858,32.36933 -3.0549,1.52924 -6.87413,4.63388 -8.48717,6.89919 -2.59716,3.64737 -2.81684,5.0623 -1.91957,12.36352 0.55728,4.53462 0.95068,20.69477 0.87422,35.91144 -0.0764,15.21666 -0.15221,31.41666 -0.16836,36 -0.0161,4.58333 0.28426,20.17741 0.66751,34.65352 0.54788,20.69381 0.29141,27.51956 -1.19975,31.93084 -3.32404,9.83345 0.0396,19.38733 8.45418,24.01245 5.69428,3.12991 14.63946,2.58304 19.81898,-1.21164 z M 874.33333,655.02269 852,642.09432 l 0.0181,-25.38049 c 0.0107,-13.95927 0.37664,-26.71764 0.81471,-28.35192 0.56729,-2.11636 7.14261,-6.66272 22.84984,-15.79902 l 22.05335,-12.82757 5.0345,2.82955 c 2.76898,1.55625 13.92835,8.1057 24.79862,14.55434 l 19.76412,11.7248 v 26.55211 26.55211 l -24,13.00378 c -13.2,7.15207 -24.6,13.00271 -25.33334,13.00142 -0.73333,-10e-4 -11.38333,-5.82012 -23.66666,-12.93074 z m -632.48872,16.4615 c 12.39991,-5.18102 14.60995,-22.12611 4.0904,-31.36239 -3.9336,-3.45375 -5.79598,-4.1218 -11.49069,-4.1218 -9.16736,0 -14.91324,3.64741 -17.84684,11.32895 -6.25387,16.37552 8.98112,30.95161 25.24713,24.15524 z m 128.72728,-0.48626 c 9.78898,-4.99153 13.3383,-16.04996 8.12727,-25.32173 C 374.83,638.79196 369.86949,636 361.50733,636 c -5.62093,0 -7.52138,0.67916 -11.37953,4.06664 -16.95975,14.89087 0.39821,41.15293 20.44409,30.93129 z m 73.10696,-0.32406 c 9.1221,-5.5618 12.34323,-17.58116 7.04179,-26.2758 C 447.29315,638.77677 441.62548,636 433.57936,636 422.97721,636 416,643.45232 416,654.77641 c 0,14.30346 15.59885,23.26272 27.67885,15.89746 z m 126.7207,0.78614 c 9.67852,-5.03572 13.76122,-16.79144 9.01748,-25.96484 -6.2934,-12.17009 -25.65787,-12.81772 -32.80434,-1.0971 -3.20962,5.26394 -3.40449,14.51673 -0.41241,19.58192 4.65123,7.87392 16.4392,11.51758 24.19927,7.48002 z M 244.13616,595.64009 c 11.97563,-8.00024 11.70132,-24.08518 -0.54193,-31.77797 -6.31275,-3.96647 -16.95562,-2.94489 -22.25958,2.13661 -4.85302,4.6495 -7.20672,11.37816 -6.08034,17.38226 0.95538,5.09264 6.42669,12.29065 10.63694,13.99388 5.39052,2.18069 13.54434,1.4054 18.24491,-1.73478 z M 506.26089,557.392 c 8.64392,-5.27053 11.78206,-15.09303 7.70823,-24.12715 -3.21348,-7.12622 -9.09389,-10.59818 -17.95003,-10.59818 -6.31454,0 -7.48653,0.48928 -11.97678,5 -6.80152,6.83254 -7.91692,13.1431 -3.7921,21.45437 5.05284,10.18116 16.76822,13.90645 26.01068,8.27096 z m 199.84992,0.46605 c 12.78456,-6.06668 13.2077,-26.64886 0.68103,-33.12665 -8.78359,-4.54217 -20.68235,-1.58837 -25.51248,6.33333 -9.78364,16.0457 7.70777,34.91904 24.83145,26.79332 z M 532.81063,470.48307 C 549.02313,460.31739 563.30292,452 564.54351,452 c 3.31222,0 8.98745,-3.24484 12.78982,-7.31267 2.87351,-3.07409 3.28094,-4.60901 2.9535,-11.12668 -0.3485,-6.93657 -0.64474,-53.9461 -0.45935,-72.89398 0.0431,-4.4 0.0345,-21.2 -0.0191,-37.33334 -0.0535,-16.13333 0.32474,-32.47024 0.84051,-36.30424 0.79053,-5.87624 0.47892,-7.71338 -1.98432,-11.699 -3.10491,-5.02394 -8.71059,-8.66342 -13.34371,-8.66342 -3.67372,0 -47.70512,-25.86646 -51.84933,-30.45914 -4.60943,-5.10824 -9.64512,-8.18421 -13.47156,-8.22886 -1.83333,-0.0213 -6.63333,-2.0972 -10.66667,-4.61291 L 482,218.79173 l -0.82905,8.93747 c -0.45599,4.91561 -1.55443,11.3908 -2.44099,14.38931 -1.34659,4.55438 -1.26499,6.2822 0.49572,10.49616 3.13019,7.49161 3.15823,124.339 0.0321,133.89652 -1.87274,5.7256 -1.87464,6.9225 -0.0193,12.25053 3.03852,8.72627 2.98601,55.48255 -0.0713,63.48801 -1.99943,5.23543 -1.99943,6.1822 0,12.29511 1.27326,3.89276 2.16624,11.05785 2.16624,17.38149 v 10.75862 l 11,-6.8594 c 6.05,-3.77268 24.26477,-15.17679 40.47729,-25.34248 z M 513.89445,421 c 0.801,-26.98509 0.80131,-19.31235 -0.004,-90.00065 l -0.6415,-56.33399 11.70868,6.88889 c 6.43977,3.7889 13.98129,8.311 16.75893,10.04911 l 5.05024,3.1602 -0.68216,28.95156 c -0.76539,32.48275 -0.76645,32.69053 -0.37096,72.15161 l 0.28632,28.5334 -15.33333,9.71578 c -8.43334,5.34368 -15.8107,9.75364 -16.39412,9.79993 -0.58344,0.0463 -0.75358,-10.26584 -0.3781,-22.91584 z m 194.459,62.69697 c 2.02774,-1.41562 4.57774,-4.29677 5.66667,-6.40254 2.285,-4.41872 2.60793,-13.62954 0.60881,-17.36495 -0.80316,-1.50071 -1.21737,-10.03785 -1,-20.61065 L 714,421.27004 l 15.33333,9.53236 c 8.43334,5.2428 17.01498,11.54244 19.07032,13.9992 4.35676,5.20764 11.98167,7.92316 18.70556,6.66175 10.0048,-1.87691 16.92899,-13.41823 14.17848,-23.63286 -1.54924,-5.75344 -9.30434,-13.16382 -13.77618,-13.16382 -2.55548,0 -9.43986,-3.86075 -35.5004,-19.90859 -2.47678,-1.52517 -3.02327,-1.09779 11.30897,-8.84425 8.69095,-4.69738 14.14867,-6.73364 19.84957,-7.40584 9.64196,-1.13688 14.04387,-4.22715 17.35831,-12.18604 2.39759,-5.75731 2.41477,-6.41635 0.33333,-12.78002 -3.05148,-9.32932 -3.13141,-52.74034 -0.11306,-61.40801 4.42,-12.69281 -4.01566,-25.44884 -16.83838,-25.46227 -3.73048,-0.004 -9.34026,-2.90678 -26,-13.45416 -11.68374,-7.39704 -23.04317,-15.44609 -25.24317,-17.8868 -4.37987,-4.85905 -8.5024,-7.32837 -12.24568,-7.33493 -1.33155,-0.003 -6.02099,-2.40151 -10.42099,-5.33148 l -8,-5.32724 -1.06913,10.99815 c -0.58803,6.04897 -0.97455,14.59814 -0.85895,18.99814 0.20496,7.80144 0.30258,128.08107 0.1168,144 -0.0513,4.4 -0.0133,21.5 0.0844,38 0.0977,16.5 -0.29049,33.05064 -0.86281,36.7792 -1.58139,10.30247 2.19503,16.44926 12.24363,19.9287 5.88445,2.03756 11.56528,1.24008 16.69942,-2.34426 z m 4.97988,-162.99229 c 0,-35.49887 0.34786,-44.66713 1.66667,-43.92811 0.91667,0.51368 8.42303,5.1991 16.68081,10.41203 l 15.01415,9.47807 -0.34748,25.80397 -0.34748,25.80397 -16.33333,8.64607 -16.33334,8.64605 z M 442.64009,449.6646 c 9.83198,-4.93976 13.6414,-17.47977 8.08055,-26.59987 -7.28096,-11.94117 -26.35927,-11.36628 -32.74728,0.98679 -8.39233,16.22897 8.47803,33.74656 24.66673,25.61308 z m 201.38071,-0.14873 c 16.84472,-9.0068 10.28489,-35.44778 -8.6998,-35.06672 -12.15272,0.24393 -20.03728,8.61426 -18.87368,20.0365 0.71203,6.98947 4.13623,12.02876 10.31412,15.17895 5.89457,3.00571 11.44939,2.95784 17.25936,-0.14873 z M 443.67885,376.0072 c 9.1221,-5.5618 12.34323,-17.58116 7.04179,-26.2758 -3.38312,-5.54852 -9.07741,-8.39807 -16.78193,-8.39807 -10.68634,0 -17.93871,7.59104 -17.93871,18.77642 0,14.30345 15.59885,23.26272 27.67885,15.89745 z m 199.94372,0.43285 c 6.52886,-3.09814 9.69968,-8.84697 9.70578,-17.59692 0.004,-6.53869 -0.44212,-7.60397 -5.17148,-12.33333 -4.72936,-4.72936 -5.79464,-5.17604 -12.33334,-5.17148 -8.74994,0.007 -14.49877,3.17692 -17.59692,9.70577 -2.95938,6.23646 -2.80469,12.6581 0.43286,17.9681 5.42409,8.89624 15.53114,11.90362 24.9631,7.42786 z m -198.9219,-75.12773 c 5.00304,-3.09204 8.63266,-9.81047 8.63266,-15.97899 0,-14.11762 -15.37682,-23.19436 -28.12517,-16.60193 -11.89645,6.15189 -12.37895,25.60197 -0.81009,32.65591 5.6361,3.43654 14.67485,3.40316 20.3026,-0.0749 z m 199.4245,0.62295 c 5.74346,-2.97006 9.19724,-9.37342 9.20318,-17.06278 0.009,-11.11456 -7.45428,-18.20582 -19.15983,-18.20582 -12.87623,0 -22.1846,15.08032 -16.2952,26.39954 2.06513,3.96915 7.01728,8.8555 10.12668,9.99215 4.0064,1.46456 12.22861,0.89189 16.12517,-1.12309 z"
       id="path1536"
       sodipodi:nodetypes="sssssssssssssssssssscssssscssssssssssssssssssssscssssssssssscssscsscscsssssssssssssssscssssssssssssssssssssssscsssssssssssssscssssssssscssssssssssssssssssssssssssssssssssscccsscsscccscscsssssssssssssssssssssssssssssssssssssssssssssssscsssscssscssssccsscsccssssssscsssssssssssssscscssssssssssscccccsssssssssssssssscscsssssssssscssss" />
    <path
       style="fill:#000000;stroke-width:1.33333"
       d="m 304.95591,852.44005 c 12.33034,-5.85113 13.08018,-25.34297 1.27256,-33.07962 -1.7777,-1.1648 -5.9718,-2.1728 -9.32024,-2.24 -19.74134,-0.39626 -26.84082,24.57028 -9.92042,34.88677 5.31,3.23755 11.73164,3.39224 17.9681,0.43285 z m 201.30498,-0.38138 c 8.49696,-5.18092 11.77736,-15.1034 7.86303,-23.78387 -1.90009,-4.21364 -2.17517,-8.80781 -1.81351,-30.2876 0.30863,-18.3302 0.95475,-26.50963 2.3404,-29.62769 1.64672,-3.70559 1.65459,-5.1023 0.0563,-10 -1.25741,-3.85312 -2.01191,-14.40699 -2.33472,-32.65796 -0.39513,-22.33874 -0.1248,-27.64602 1.57532,-30.93379 1.12876,-2.18276 2.05228,-4.96717 2.05228,-6.18759 0,-3.17972 52.73117,-88.61366 57.05661,-92.44194 5.89152,-5.21434 8.25856,-9.75811 8.26794,-15.87111 0.0175,-11.37616 -7.42416,-18.92381 -18.65788,-18.92381 -9.97258,0 -16.76448,5.61752 -18.5802,15.36749 -0.69464,3.73004 -45.21443,77.90069 -46.78163,77.93892 -1.34779,0.0329 -43.97147,-74.12548 -43.97147,-76.50333 0,-4.46127 -4.2513,-11.41755 -8.63266,-14.12538 -5.62775,-3.47814 -14.6665,-3.51153 -20.3026,-0.0749 -10.73579,6.54599 -11.371,23.9776 -1.15088,31.58224 1.82702,1.35945 6.26169,7.57173 9.85481,13.80507 3.59313,6.23333 14.78345,25.43333 24.86737,42.66666 10.08392,17.23334 19.28812,34.33334 20.45378,38 3.18597,10.0218 3.83901,57.45371 0.9195,66.78608 -1.93869,6.19714 -1.9396,7.32608 -0.0107,13.00832 1.70878,5.03312 2.02341,10.9984 1.64636,31.21392 -0.2894,15.51603 -1.1276,27.12954 -2.21074,30.63018 -1.60622,5.1913 -1.49436,6.14304 1.41044,12 5.12527,10.33408 16.77548,14.09509 26.0826,8.42017 z m 199.84992,0.46605 c 12.78456,-6.06668 13.2077,-26.64887 0.68103,-33.12665 -9.17133,-4.74268 -21.75941,-1.17386 -26.20887,7.43044 -3.33178,6.44296 -2.01246,16.18629 2.89396,21.37236 2.12102,2.2419 5.0564,4.57582 6.52307,5.18648 4.33211,1.8037 11.27537,1.43193 16.11081,-0.86263 z m 199.70815,0.30352 c 12.85859,-5.37267 14.98147,-21.83315 4.05324,-31.42827 -3.85815,-3.38748 -5.7586,-4.06664 -11.37953,-4.06664 -8.69194,0 -13.79916,3.0588 -17.34818,10.3901 -4.71477,9.73942 -1.36605,19.68734 8.28362,24.60784 5.51012,2.80966 10.49412,2.96078 16.39085,0.49697 z M 309.4902,776.15687 c 4.68152,-4.68152 5.17647,-5.8373 5.17647,-12.08766 0,-3.80116 -0.61747,-8.06493 -1.37214,-9.47505 -0.79794,-1.49096 -1.21641,-9.75067 -1,-19.73781 l 0.37214,-17.17395 15.39725,8.82547 c 8.46849,4.854 17.60965,11.04661 20.31368,13.76136 15.03431,15.09388 38.59165,0.20624 31.02492,-19.60695 -2.41467,-6.32273 -8.66076,-11.32895 -14.13476,-11.32895 -1.69628,0 -9.12545,-3.53045 -16.50928,-7.84544 -7.38383,-4.315 -17.02515,-9.93505 -21.42515,-12.48902 -4.67925,-2.71606 -7.81772,-5.40254 -7.56085,-6.47199 1.12892,-4.70035 50.61811,-84.86996 54.48851,-88.26821 12.30309,-10.80227 6.49532,-30.78232 -9.47088,-32.58194 -10.64902,-1.2003 -19.48754,4.9619 -21.34903,14.8845 -0.49029,2.61349 -7.61511,15.96909 -15.83292,29.6791 l -14.94149,24.9273 -0.35326,-39.63426 c -0.22245,-24.95841 0.14784,-40.57053 1,-42.16282 1.86462,-3.48407 1.66404,-13.34532 -0.35249,-17.33052 -2.72771,-5.39067 -9.88145,-9.37402 -16.82476,-9.36838 -11.92084,0.009 -20.06955,9.23604 -18.07408,20.46432 0.5406,3.04188 0.92899,35.2307 0.86309,71.5307 -0.0659,36.3 -0.0892,69.3 -0.0519,73.33333 0.33505,36.17611 -0.0249,68.28551 -0.81566,72.76197 -2.10305,11.90518 5.93178,20.5572 19.09926,20.56638 6.53869,0.004 7.60397,-0.44212 12.33333,-5.17148 z m 398.11173,2.56377 c 7.97127,-4.86036 10.99039,-17.25409 6.18483,-25.38924 C 710.99321,748.60231 702.92049,744 697.41892,744 c -9.19736,0 -17.37316,7.35455 -18.41092,16.56155 -0.84555,7.5016 1.36772,13.15484 6.83879,17.468 5.33366,4.20484 15.4646,4.52666 21.75514,0.69109 z m 200.554,0.30848 c 5.3323,-3.14985 9.7228,-12.48496 8.73496,-18.57228 -2.32394,-14.32081 -19.56886,-21.12453 -30.9172,-12.19793 -3.91754,3.08154 -7.30702,9.85892 -7.30702,14.61064 0,4.73856 4.93244,13.60066 8.95808,16.09497 4.86785,3.01615 15.47812,3.04953 20.53118,0.0647 z M 242.28924,744.44005 c 9.20825,-4.36961 13.04089,-15.47328 8.54591,-24.75868 -3.48783,-7.20489 -8.6688,-10.34952 -17.04087,-10.34305 -8.83405,0.007 -14.2124,3.50941 -17.1334,11.15795 -6.4242,16.82152 9.42773,31.63148 25.62836,23.94378 z m 201.38961,-0.43285 c 9.1221,-5.5618 12.34323,-17.58116 7.04179,-26.2758 -3.45112,-5.66003 -9.10472,-8.39807 -17.34068,-8.39807 -5.78525,0 -7.44267,0.63254 -11.57119,4.41604 -4.09373,3.75163 -4.92176,5.48842 -5.50361,11.54379 -0.516,5.37017 -0.0792,8.25245 1.77139,11.6888 4.72773,8.77887 17.14,12.18477 25.6023,7.02524 z m 126.7207,0.78615 c 6.5648,-3.41566 9.93974,-8.25062 10.60708,-15.1957 1.18562,-12.339 -6.12763,-20.26432 -18.69931,-20.26432 -11.48659,0 -18.30732,7.11134 -18.30732,19.08731 0,12.92035 15.07076,22.26708 26.39955,16.37271 z m 73.22302,-0.3533 c 7.3901,-3.50684 9.9865,-8.84082 8.97595,-18.44005 -1.1484,-10.90857 -1.10649,-61.00501 0.0583,-69.73533 0.61741,-4.62756 0.37464,-8.4411 -0.70302,-11.04276 -2.92217,-7.05476 -0.403,-5.56891 4.04204,2.38406 2.37543,4.25006 8.44811,14.71392 13.49487,23.25304 5.04676,8.53914 9.17592,16.81894 9.17592,18.39955 0,3.9664 3.39669,10.16765 6.9216,12.6366 1.61525,1.13136 4.86193,5.17809 7.21485,8.99273 l 4.27803,6.93571 3.97475,-6.26752 c 2.1861,-3.44715 5.54664,-7.50399 7.46785,-9.0152 4.03245,-3.17193 6.17649,-6.77792 7.48831,-12.59432 1.37908,-6.11467 29.88432,-52.20964 30.46166,-49.25865 0.26054,1.33173 -0.30118,4.76929 -1.24829,7.63904 -1.36013,4.12124 -1.38963,6.46036 -0.14037,11.13117 2.09114,7.81857 2.13742,56.81549 0.0591,62.56303 -3.32341,9.19074 2.58571,20.59244 12.15884,23.46062 15.28162,4.57848 28.6478,-9.3463 23.40907,-24.38736 -2.94695,-8.46104 -2.87955,-51.50454 0.0943,-60.23236 1.96402,-5.76412 1.96402,-6.81669 0,-12.82138 -3.03819,-9.28871 -3.06292,-52.05035 -0.0355,-61.30627 1.77465,-5.42569 1.83845,-7.24005 0.40736,-11.58387 -0.93964,-2.8521 -2.02741,-15.14472 -2.43757,-27.54638 L 778,525.20829 766.82371,543.46633 c -6.14698,10.04194 -13.1905,20.02654 -15.65228,22.18802 -2.85843,2.50973 -5.17578,6.28641 -6.41239,10.45053 -1.06503,3.58632 -11.95232,22.77759 -24.19401,42.64727 -18.0251,29.25682 -22.57062,35.78958 -23.90359,34.35394 -0.90528,-0.97501 -11.02445,-17.93545 -22.48704,-37.68986 -13.44384,-23.16887 -20.84107,-37.24795 -20.84107,-39.66667 0,-2.55741 -1.59537,-5.34493 -5.01777,-8.76733 -4.19721,-4.19722 -13.24955,-18.36671 -26.44976,-41.40146 l -2.53247,-4.41922 -0.96885,26.41922 c -0.53288,14.53058 -0.94923,29.26923 -0.92521,32.75256 0.10106,14.66532 0.16097,66.2418 0.0848,73 -0.0455,4.03334 0.003,20.53334 0.10746,36.66667 0.10454,16.13333 -0.25248,32.03333 -0.79345,35.33333 -2.4464,14.92343 12.75228,25.76543 26.78447,19.10672 z m 202.86308,-1.38821 c 5.47514,-4.01127 8.44132,-10.781 7.47134,-17.05184 -1.27119,-8.21807 -2.26426,-46 -1.20908,-46 2.59945,0 25.96098,14.39741 30.69144,18.91475 9.29866,8.87972 19.54834,9.14254 28.34269,0.72677 3.97105,-3.80011 33.17688,-20.97485 35.66795,-20.97485 0.85888,0 -0.29816,36.69936 -1.48112,46.97832 -0.73968,6.42729 -0.43227,8.36914 1.93001,12.19138 7.34564,11.8855 24.48221,11.44671 32.18753,-0.82418 2.25399,-3.58954 2.56079,-5.50531 1.76354,-11.01219 -0.53084,-3.66667 -0.9112,-19.41667 -0.84524,-35 0.15,-35.43579 0.14929,-37.96133 -0.0205,-73.33333 -0.0765,-15.95 0.33912,-31.76506 0.92376,-35.14458 0.81751,-4.72566 0.53323,-7.26094 -1.2311,-10.97898 -2.51083,-5.29122 -9.26226,-10.20978 -14.01438,-10.20978 -4.2283,0 -49.47625,-27.12753 -55.80632,-33.45758 -4.7692,-4.7692 -5.81653,-5.20908 -12.4026,-5.20908 -7.46641,0 -11.70832,1.96589 -16.08934,7.45652 -2.08232,2.60973 -40.28858,25.54636 -53.91858,32.36933 -3.0549,1.52924 -6.87413,4.63388 -8.48717,6.89919 -2.59716,3.64737 -2.81684,5.0623 -1.91957,12.36352 0.55728,4.53462 0.95068,20.69477 0.87422,35.91144 -0.0764,15.21666 -0.15221,31.41666 -0.16836,36 -0.0161,4.58333 0.28426,20.17741 0.66751,34.65352 0.54788,20.69381 0.29141,27.51956 -1.19975,31.93084 -3.32404,9.83345 0.0396,19.38733 8.45418,24.01245 5.69428,3.12991 14.63946,2.58304 19.81898,-1.21164 z M 874.33333,655.02269 852,642.09432 l 0.0181,-25.38049 c 0.0107,-13.95927 0.37664,-26.71764 0.81471,-28.35192 0.56729,-2.11636 7.14261,-6.66272 22.84984,-15.79902 l 22.05335,-12.82757 5.0345,2.82955 c 2.76898,1.55625 13.92835,8.1057 24.79862,14.55434 l 19.76412,11.7248 v 26.55211 26.55211 l -24,13.00378 c -13.2,7.15207 -24.6,13.00271 -25.33334,13.00142 -0.73333,-10e-4 -11.38333,-5.82012 -23.66666,-12.93074 z m -632.48872,16.4615 c 12.39991,-5.18102 14.60995,-22.12611 4.0904,-31.36239 -3.9336,-3.45375 -5.79598,-4.1218 -11.49069,-4.1218 -9.16736,0 -14.91324,3.64741 -17.84684,11.32895 -6.25387,16.37552 8.98112,30.95161 25.24713,24.15524 z m 128.72728,-0.48626 c 9.78898,-4.99153 13.3383,-16.04996 8.12727,-25.32173 C 374.83,638.79196 369.86949,636 361.50733,636 c -5.62093,0 -7.52138,0.67916 -11.37953,4.06664 -16.95975,14.89087 0.39821,41.15293 20.44409,30.93129 z m 73.10696,-0.32406 c 9.1221,-5.5618 12.34323,-17.58116 7.04179,-26.2758 C 447.29315,638.77677 441.62548,636 433.57936,636 422.97721,636 416,643.45232 416,654.77641 c 0,14.30346 15.59885,23.26272 27.67885,15.89746 z m 126.7207,0.78614 c 9.67852,-5.03572 13.76122,-16.79144 9.01748,-25.96484 -6.2934,-12.17009 -25.65787,-12.81772 -32.80434,-1.0971 -3.20962,5.26394 -3.40449,14.51673 -0.41241,19.58192 4.65123,7.87392 16.4392,11.51758 24.19927,7.48002 z M 244.13616,595.64009 c 11.97563,-8.00024 11.70132,-24.08518 -0.54193,-31.77797 -6.31275,-3.96647 -16.95562,-2.94489 -22.25958,2.13661 -4.85302,4.6495 -7.20672,11.37816 -6.08034,17.38226 0.95538,5.09264 6.42669,12.29065 10.63694,13.99388 5.39052,2.18069 13.54434,1.4054 18.24491,-1.73478 z M 506.26089,557.392 c 8.64392,-5.27053 11.78206,-15.09303 7.70823,-24.12715 -3.21348,-7.12622 -9.09389,-10.59818 -17.95003,-10.59818 -6.31454,0 -7.48653,0.48928 -11.97678,5 -6.80152,6.83254 -7.91692,13.1431 -3.7921,21.45437 5.05284,10.18116 16.76822,13.90645 26.01068,8.27096 z m 199.84992,0.46605 c 12.78456,-6.06668 13.2077,-26.64886 0.68103,-33.12665 -8.78359,-4.54217 -20.68235,-1.58837 -25.51248,6.33333 -9.78364,16.0457 7.70777,34.91904 24.83145,26.79332 z M 532.81063,470.48307 C 549.02313,460.31739 563.30292,452 564.54351,452 c 3.31222,0 8.98745,-3.24484 12.78982,-7.31267 2.87351,-3.07409 3.28094,-4.60901 2.9535,-11.12668 -0.3485,-6.93657 -0.64474,-53.9461 -0.45935,-72.89398 0.0431,-4.4 0.0345,-21.2 -0.0191,-37.33334 -0.0535,-16.13333 0.32474,-32.47024 0.84051,-36.30424 0.79053,-5.87624 0.47892,-7.71338 -1.98432,-11.699 -3.10491,-5.02394 -8.71059,-8.66342 -13.34371,-8.66342 -3.67372,0 -47.70512,-25.86646 -51.84933,-30.45914 -4.60943,-5.10824 -9.64512,-8.18421 -13.47156,-8.22886 -1.83333,-0.0213 -6.63333,-2.0972 -10.66667,-4.61291 L 482,218.79173 l -0.82905,8.93747 c -0.45599,4.91561 -1.55443,11.3908 -2.44099,14.38931 -1.34659,4.55438 -1.26499,6.2822 0.49572,10.49616 3.13019,7.49161 3.15823,124.339 0.0321,133.89652 -1.87274,5.7256 -1.87464,6.9225 -0.0193,12.25053 3.03852,8.72627 2.98601,55.48255 -0.0713,63.48801 -1.99943,5.23543 -1.99943,6.1822 0,12.29511 1.27326,3.89276 2.16624,11.05785 2.16624,17.38149 v 10.75862 l 11,-6.8594 c 6.05,-3.77268 24.26477,-15.17679 40.47729,-25.34248 z M 513.89445,421 c 0.801,-26.98509 0.80131,-19.31235 -0.004,-90.00065 l -0.6415,-56.33399 11.70868,6.88889 c 6.43977,3.7889 13.98129,8.311 16.75893,10.04911 l 5.05024,3.1602 -0.68216,28.95156 c -0.76539,32.48275 -0.76645,32.69053 -0.37096,72.15161 l 0.28632,28.5334 -15.33333,9.71578 c -8.43334,5.34368 -15.8107,9.75364 -16.39412,9.79993 -0.58344,0.0463 -0.75358,-10.26584 -0.3781,-22.91584 z m 194.459,62.69697 c 2.02774,-1.41562 4.57774,-4.29677 5.66667,-6.40254 2.285,-4.41872 2.60793,-13.62954 0.60881,-17.36495 -0.80316,-1.50071 -1.21737,-10.03785 -1,-20.61065 L 714,421.27004 l 15.33333,9.53236 c 8.43334,5.2428 17.01498,11.54244 19.07032,13.9992 4.35676,5.20764 11.98167,7.92316 18.70556,6.66175 10.0048,-1.87691 16.92899,-13.41823 14.17848,-23.63286 -1.54924,-5.75344 -9.30434,-13.16382 -13.77618,-13.16382 -2.55548,0 -9.43986,-3.86075 -35.5004,-19.90859 -2.47678,-1.52517 -3.02327,-1.09779 11.30897,-8.84425 8.69095,-4.69738 14.14867,-6.73364 19.84957,-7.40584 9.64196,-1.13688 14.04387,-4.22715 17.35831,-12.18604 2.39759,-5.75731 2.41477,-6.41635 0.33333,-12.78002 -3.05148,-9.32932 -3.13141,-52.74034 -0.11306,-61.40801 4.42,-12.69281 -4.01566,-25.44884 -16.83838,-25.46227 -3.73048,-0.004 -9.34026,-2.90678 -26,-13.45416 -11.68374,-7.39704 -23.04317,-15.44609 -25.24317,-17.8868 -4.37987,-4.85905 -8.5024,-7.32837 -12.24568,-7.33493 -1.33155,-0.003 -6.02099,-2.40151 -10.42099,-5.33148 l -8,-5.32724 -1.06913,10.99815 c -0.58803,6.04897 -0.97455,14.59814 -0.85895,18.99814 0.20496,7.80144 0.30258,128.08107 0.1168,144 -0.0513,4.4 -0.0133,21.5 0.0844,38 0.0977,16.5 -0.29049,33.05064 -0.86281,36.7792 -1.58139,10.30247 2.19503,16.44926 12.24363,19.9287 5.88445,2.03756 11.56528,1.24008 16.69942,-2.34426 z m 4.97988,-162.99229 c 0,-35.49887 0.34786,-44.66713 1.66667,-43.92811 0.91667,0.51368 8.42303,5.1991 16.68081,10.41203 l 15.01415,9.47807 -0.34748,25.80397 -0.34748,25.80397 -16.33333,8.64607 -16.33334,8.64605 z M 442.64009,449.6646 c 9.83198,-4.93976 13.6414,-17.47977 8.08055,-26.59987 -7.28096,-11.94117 -26.35927,-11.36628 -32.74728,0.98679 -8.39233,16.22897 8.47803,33.74656 24.66673,25.61308 z m 201.38071,-0.14873 c 16.84472,-9.0068 10.28489,-35.44778 -8.6998,-35.06672 -12.15272,0.24393 -20.03728,8.61426 -18.87368,20.0365 0.71203,6.98947 4.13623,12.02876 10.31412,15.17895 5.89457,3.00571 11.44939,2.95784 17.25936,-0.14873 z M 443.67885,376.0072 c 9.1221,-5.5618 12.34323,-17.58116 7.04179,-26.2758 -3.38312,-5.54852 -9.07741,-8.39807 -16.78193,-8.39807 -10.68634,0 -17.93871,7.59104 -17.93871,18.77642 0,14.30345 15.59885,23.26272 27.67885,15.89745 z m 199.94372,0.43285 c 6.52886,-3.09814 9.69968,-8.84697 9.70578,-17.59692 0.004,-6.53869 -0.44212,-7.60397 -5.17148,-12.33333 -4.72936,-4.72936 -5.79464,-5.17604 -12.33334,-5.17148 -8.74994,0.007 -14.49877,3.17692 -17.59692,9.70577 -2.95938,6.23646 -2.80469,12.6581 0.43286,17.9681 5.42409,8.89624 15.53114,11.90362 24.9631,7.42786 z m -198.9219,-75.12773 c 5.00304,-3.09204 8.63266,-9.81047 8.63266,-15.97899 0,-14.11762 -15.37682,-23.19436 -28.12517,-16.60193 -11.89645,6.15189 -12.37895,25.60197 -0.81009,32.65591 5.6361,3.43654 14.67485,3.40316 20.3026,-0.0749 z m 199.4245,0.62295 c 5.74346,-2.97006 9.19724,-9.37342 9.20318,-17.06278 0.009,-11.11456 -7.45428,-18.20582 -19.15983,-18.20582 -12.87623,0 -22.1846,15.08032 -16.2952,26.39954 2.06513,3.96915 7.01728,8.8555 10.12668,9.99215 4.0064,1.46456 12.22861,0.89189 16.12517,-1.12309 z"
       id="path865"
       sodipodi:nodetypes="sssssssssssssssssssscssssscssssssssssssssssssssscssssssssssscssscsscscsssssssssssssssscssssssssssssssssssssssscsssssssssssssscssssssssscssssssssssssssssssssssssssssssssssscccsscsscccscscsssssssssssssssssssssssssssssssssssssssssssssssscsssscssscssssccsscsccssssssscsssssssssssssscscssssssssssscccccsssssssssssssssscscsssssssssscssss" />
  </g>
</svg>
