<?xml version="1.0" encoding="UTF-8" standalone="no"?>
<svg
   xmlns:dc="http://purl.org/dc/elements/1.1/"
   xmlns:cc="http://creativecommons.org/ns#"
   xmlns:rdf="http://www.w3.org/1999/02/22-rdf-syntax-ns#"
   xmlns:svg="http://www.w3.org/2000/svg"
   xmlns="http://www.w3.org/2000/svg"
   xmlns:sodipodi="http://sodipodi.sourceforge.net/DTD/sodipodi-0.dtd"
   xmlns:inkscape="http://www.inkscape.org/namespaces/inkscape"
   inkscape:version="1.0 (4035a4f, 2020-05-01)"
   sodipodi:docname="logo-negative.svg"
   id="svg930"
   version="1.1"
   height="602"
   width="650">
  <sodipodi:namedview
     inkscape:pagecheckerboard="true"
     inkscape:current-layer="layer2"
     inkscape:window-maximized="0"
     inkscape:window-y="23"
     inkscape:window-x="0"
     inkscape:cy="288.43394"
     inkscape:cx="394.97136"
     inkscape:zoom="1.9345666"
     showgrid="false"
     id="namedview932"
     inkscape:window-height="794"
     inkscape:window-width="1392"
     inkscape:pageshadow="2"
     inkscape:pageopacity="0"
     guidetolerance="10"
     gridtolerance="10"
     objecttolerance="10"
     borderopacity="1"
     bordercolor="#666666"
     pagecolor="#ffffff" />
  <metadata
     id="metadata897">
    <rdf:RDF>
      <cc:Work
         rdf:about="">
        <dc:format>image/svg+xml</dc:format>
        <dc:type
           rdf:resource="http://purl.org/dc/dcmitype/StillImage" />
        <dc:title></dc:title>
      </cc:Work>
    </rdf:RDF>
  </metadata>
  <defs
     id="defs917">
    <filter
       color-interpolation-filters="sRGB"
       height="1"
       width="1"
       y="-6.1685e-06"
       x="-6.153e-06"
       id="filter1115">
      <feGaussianBlur
         id="feGaussianBlur899"
         stdDeviation="0.00025664964" />
    </filter>
    <filter
       color-interpolation-filters="sRGB"
       height="1"
       width="1"
       y="-6.1933001e-06"
       x="-6.1684e-06"
       id="filter1119">
      <feGaussianBlur
         id="feGaussianBlur902"
         stdDeviation="0.00025664964" />
    </filter>
    <filter
       color-interpolation-filters="sRGB"
       height="1"
       width="1"
       y="-6.1881001e-06"
       x="-6.1863998e-06"
       id="filter1123">
      <feGaussianBlur
         id="feGaussianBlur905"
         stdDeviation="0.00025664964" />
    </filter>
    <filter
       color-interpolation-filters="sRGB"
       height="1"
       width="1"
       y="-6.1799001e-06"
       x="-6.1583e-06"
       id="filter1127">
      <feGaussianBlur
         id="feGaussianBlur908"
         stdDeviation="0.00025664964" />
    </filter>
    <filter
       color-interpolation-filters="sRGB"
       height="1"
       width="1"
       y="-6.1834999e-06"
       x="-6.1624e-06"
       id="filter1131">
      <feGaussianBlur
         id="feGaussianBlur911"
         stdDeviation="0.00025664964" />
    </filter>
    <filter
       color-interpolation-filters="sRGB"
       height="1"
       width="1"
       y="-1.9199e-05"
       x="-1.9200999e-05"
       id="filter1226">
      <feGaussianBlur
         id="feGaussianBlur914"
         stdDeviation="0.0044657586" />
    </filter>
    <filter
       height="1.0001538"
       y="-7.6889715e-05"
       width="1.0001534"
       x="-7.6710494e-05"
       id="filter1342"
       style="color-interpolation-filters:sRGB"
       inkscape:collect="always">
      <feGaussianBlur
         id="feGaussianBlur1344"
         stdDeviation="0.019391696"
         inkscape:collect="always" />
    </filter>
  </defs>
  <rect
     y="-1.4142135"
     x="0"
     height="605.28345"
     width="606.69757"
     id="rect934"
     style="opacity:0.993;fill:#000000;fill-opacity:0;stroke-opacity:0.931174" />
  <g
     style="display:none;filter:url(#filter1342)"
     inkscape:label="Layer 1"
     id="layer1"
     inkscape:groupmode="layer" />
  <g
     style="display:inline"
     inkscape:label="Layer 2"
     id="layer2"
     inkscape:groupmode="layer">
    <g
       style="stroke:#000000;stroke-width:5.66929;stroke-opacity:1"
       id="g971">
      <g
         style="stroke:#000000;stroke-width:5.27572;stroke-opacity:1"
         id="logo__circle"
         transform="matrix(1.0746,0,0,1.0746,-397.29,-100.5)"
         filter="url(#filter1226)">
        <path
           sodipodi:nodetypes="ccccccccccsccccccccsscscccccccsccccccccccsccccccccscscccscccccccsscssccssccccssccccccscccccccccccccccccsccccccccccc"
           style="opacity:0.99;fill:none;fill-opacity:1;stroke:#000000;stroke-width:10.5514;stroke-opacity:1"
           d="m 689.5,930.97 c 116.66,-8.488 227.65,-53.164 317,-127.6 51.28,-42.719 94.964,-94.548 127.53,-151.31 41.985,-73.174 66.686,-154.31 72.936,-239.57 1.324,-18.07 1.323,-58.527 0,-77.313 -8.45,-119.73 -53.597,-230.43 -131.81,-323.19 -13.943,-16.535 -47.297,-49.81 -64.158,-64.003 -56.618,-47.662 -117,-81.513 -186.55,-104.59 -114.95,-38.133 -241.36,-37.386 -356.32,2.105 -138.47,47.569 -252.74,147.78 -318.56,279.36 -31.712,63.391 -48.87,124.16 -56.782,201.12 -0.812,7.898 -1.261,25.938 -1.22,49 0.07,38.977 1.027,52.483 6.022,85 25.307,164.73 124.71,310.54 269.91,395.95 19.245,11.32 54.442,28.49 75.671,36.915 52.677,20.905 109.09,33.854 165.83,38.068 15.776,1.171 64.604,1.194 80.5,0.038 z m -54,-39.668 c -168.36,-4.141 -325.85,-92.076 -418.73,-233.8 -68.085,-103.89 -96.188,-225.59 -80.707,-349.5 10.44,-83.561 42.75,-165.8 92.274,-234.89 76.445,-106.64 191.04,-181.05 318.16,-206.58 36.831,-7.397 63.274,-9.933 103.5,-9.926 32.818,0.006 51.578,1.383 80.512,5.914 82.013,12.84 160.92,46.125 228.04,96.19 38.714,28.878 77.978,68.061 105.96,105.75 51.855,69.83 85.004,149.64 97.418,234.55 4.82,32.956 6.52,80.659 4.032,113.05 -11.43,148.78 -84.367,282.85 -203.47,374.02 -41.443,31.721 -92.206,59.022 -143,76.906 -28.243,9.944 -70.214,19.895 -101,23.946 -24.52,3.227 -58.08,5 -83,4.388 z m 21.77518,-81.81853 c 8.99981,-2.34395 15.64061,-6.24977 22.79545,-13.40462 7.15578,-7.15485 11.06068,-13.79658 13.40462,-22.79546 2.93598,-11.2708 1.27997,-25.62442 -4.05881,-35.17588 l -2.44891,-4.38191 V 597.91507 l 2.50791,-4.94994 c 7.25181,-14.30969 7.2278,-32.81593 -0.059,-45.85334 l -2.44891,-4.38191 V 397.91879 l 2.36404,-4.71692 c 3.33799,-6.66183 4.70594,-11.31062 5.46994,-18.59352 0.65798,-6.25479 1.55496,-7.7789 72.59073,-123.27378 70.00745,-113.82654 72.05472,-117.02028 76.85465,-119.89205 6.09287,-3.64694 14.32272,-12.39978 17.93448,-19.07687 10.47981,-19.372786 6.53285,-43.692533 -9.60878,-59.192253 -19.52913,-18.753025 -48.58924,-19.0992 -68.27099,-0.809976 -3.20993,2.982877 -7.36385,7.961846 -9.22985,11.063651 -3.75786,6.242881 -7.1059,16.981575 -7.1059,22.788015 0,3.226875 -8.6957,17.906573 -60.92313,102.849433 -58.88517,95.77331 -60.97339,99.008 -62.4102,96.75414 -0.81798,-1.28098 -26.72623,-45.64489 -57.57491,-98.58366 -53.0095,-90.971523 -56.08785,-96.517773 -56.08785,-101.064581 0,-15.279546 -12.15466,-34.150382 -26.76159,-41.554067 -10.99665,-5.571934 -24.19691,-7.083752 -35.70072,-4.086916 -17.67449,4.603946 -32.70054,20.387121 -36.42844,38.265401 -4.07482,19.540294 4.55984,40.482043 21.26,51.567093 5.3968,3.58199 5.47292,3.70799 73.21795,119.85669 l 67.815,116.27024 0.78498,7.1729 c 0.86197,7.88182 2.95998,15.03853 5.90284,20.13401 1.83196,3.17197 1.90992,6.26987 1.90992,75.8552 v 72.54792 l -2.89484,6.14294 c -6.7668,14.35958 -6.7668,28.92611 0,43.28494 l 2.89484,6.14294 v 135.42528 l -2.89484,6.14293 c -9.34469,19.82878 -5.60879,41.41634 9.80569,56.65364 10.44668,10.32682 20.80775,14.79174 34.6287,14.92072 3.87196,0.0359 9.61679,-0.60499 12.76661,-1.42597 z M 497.39204,524.03181 c 20.23462,-7.02387 33.58038,-25.96052 33.58038,-47.64912 0,-26.7185 -22.71258,-49.39508 -49.47008,-49.39508 -14.20874,0 -25.43953,4.69692 -35.61134,14.88973 -19.71263,19.75763 -19.84163,49.83007 -0.29799,69.8227 6.50487,6.65487 16.83668,12.44677 25.43652,14.26073 6.53988,1.37998 19.57864,0.42599 26.36251,-1.92996 z m 336.74373,0.08 c 20.17263,-7.00487 33.82737,-26.02952 33.82737,-47.13013 0,-13.22575 -4.72791,-24.76554 -14.17973,-34.60735 -19.58464,-20.39662 -51.96103,-20.63462 -71.09868,-0.52399 -15.56771,16.35769 -18.99664,37.2693 -9.36782,57.12193 6.17088,12.72577 20.71361,24.03356 34.70335,26.9835 6.44288,1.35998 19.55664,0.43299 26.11551,-1.84396 z M 496.25206,331.90538 c 15.03172,-5.0399 27.1645,-16.86068 32.2444,-31.41441 2.26996,-6.50388 3.01395,-19.57664 1.52297,-26.7595 -5.1639,-24.87554 -30.55843,-42.52121 -55.89696,-38.84228 -33.20638,4.82191 -52.36102,40.43525 -38.14329,70.91368 5.5489,11.89278 20.37763,24.20255 32.6194,27.0775 7.44886,1.74996 20.94761,1.27297 27.65248,-0.97499 z m 339.76368,-0.81998 c 12.82376,-5.12991 23.97455,-16.61669 28.98646,-29.85945 2.73595,-7.22686 3.66493,-20.06662 1.97996,-27.34849 -5.90789,-25.52952 -30.77242,-42.8492 -56.01695,-39.02027 -29.10946,4.41492 -48.7591,33.60037 -41.46823,61.59185 4.38792,16.84569 18.70865,31.47542 35.46834,36.23433 7.08786,2.01196 24.23255,1.12998 31.04942,-1.59697 z M 652.96915,35.962892 c 18.85964,-2.939945 35.50933,-18.176662 40.54624,-37.1013095 6.69388,-25.1495315 -9.14683,-52.8430165 -34.47736,-60.2748785 -8.33384,-2.443954 -22.04259,-2.089961 -30.17544,0.780986 -16.53569,5.837891 -29.42945,20.461619 -32.94338,37.362304 -5.5839,26.8655004 13.53675,54.460987 41.05023,59.243898 6.47588,1.124979 8.71984,1.123979 15.99971,-0.012 z"
           transform="matrix(0.5,0,0,0.5,324.88,186.79)"
           id="path927" />
      </g>
    </g>
    <path
       id="path1364"
       d="M 282.81286,576.16141 C 170.89599,568.87383 73.636172,493.02792 38.621684,385.73433 34.063025,371.7654 30.101347,354.82289 27.637804,338.76066 25.099433,322.21055 25.129366,281.38422 27.692988,263.49296 36.356144,203.03367 63.740869,148.509 106.87591,105.83491 151.34594,61.840102 206.90246,34.916523 269.23261,27.154262 c 13.12591,-1.634631 50.70679,-1.628721 63.58013,0.01 73.02443,9.295691 138.10208,45.69965 184.06659,102.965498 15.09523,18.80671 30.58651,45.68076 40.38199,70.05412 22.83387,56.81579 25.25416,124.72379 6.53428,183.33849 -22.97751,71.94606 -73.12608,130.61518 -140.36911,164.21869 -43.03367,21.50531 -92.68723,31.54112 -140.61363,28.42035 z m 28.67745,-40.68459 c 5.22083,-2.73212 12.14293,-10.36481 14.13834,-15.58972 2.19266,-5.7414 1.68852,-19.00414 -0.91194,-23.99102 -1.51043,-2.89655 -1.72523,-7.59589 -1.72478,-37.73455 4.9e-4,-31.91978 0.15102,-34.8219 2.06765,-39.86463 2.75452,-7.24721 2.74427,-17.78072 -0.0233,-23.87974 -1.91527,-4.22096 -2.0449,-6.85166 -2.0449,-41.49849 0,-34.64683 0.12963,-37.27753 2.04494,-41.49849 1.12472,-2.47866 2.05516,-5.57193 2.06765,-6.87393 0.0125,-1.30201 1.01183,-4.32594 2.22077,-6.71986 2.07411,-4.1071 33.74369,-56.48891 34.82111,-57.59446 0.27706,-0.2843 0.15328,0.64614 -0.27506,2.06765 -0.42836,1.42151 -1.01275,5.68904 -1.29865,9.48339 -0.44008,5.8405 -0.12677,7.75736 2.04232,12.49528 5.34023,11.66461 13.96775,17.26121 26.60925,17.26121 11.73209,0 19.8786,-4.51809 25.52789,-14.15788 3.98596,-6.80152 4.58052,-18.38066 1.33161,-25.93298 -7.85257,-18.25378 -32.2342,-23.30994 -46.76059,-9.697 -1.56366,1.46533 -2.84302,2.32443 -2.84302,1.90913 0,-0.78584 28.14135,-46.58029 33.19502,-54.01828 1.58674,-2.33537 5.83622,-7.22018 9.4433,-10.85515 7.25296,-7.30905 9.05285,-11.43652 9.05285,-20.75987 0,-16.78274 -12.13251,-28.93526 -28.88761,-28.93526 -8.59012,0 -14.22475,2.29454 -20.16508,8.21165 -4.57224,4.55437 -7.35415,9.6325 -8.37065,15.2799 -0.40461,2.24796 -3.03745,8.04158 -5.85073,12.87471 -7.17376,12.32422 -54.29968,88.92046 -56.47065,91.78468 -1.7727,2.33878 -1.99398,2.00563 -25.85738,-38.928 -30.81545,-52.85869 -35.31698,-61.05721 -35.31698,-64.32194 0,-4.45621 -5.95683,-15.04549 -10.47791,-18.62624 -5.65645,-4.48 -10.4389,-5.99746 -18.98605,-6.02424 -12.08491,-0.0379 -20.83269,5.74993 -26.10873,17.27432 -2.20189,4.80957 -2.5086,6.7102 -2.09976,13.0122 0.5939,9.1547 2.33384,12.61677 11.03371,21.95451 5.17532,5.55478 10.30169,13.31038 21.09687,31.91711 7.84318,13.51863 14.05243,24.78722 13.79834,25.04131 -0.25409,0.25409 -2.42731,-0.54066 -4.82938,-1.7661 -18.69399,-9.53697 -41.32119,4.90782 -41.32119,26.37869 0,7.74918 2.61762,14.30283 7.87223,19.70942 6.36405,6.54814 11.53157,8.67531 21.07482,8.67531 16.36668,0 27.32913,-9.86054 28.79582,-25.90137 l 0.66814,-7.30727 14.73199,25.26037 c 8.84814,15.17157 14.73198,26.34977 14.73198,27.98799 0,1.50019 0.9302,5.17501 2.06713,8.16628 1.93093,5.08035 2.06715,7.94515 2.06764,43.48301 4.6e-4,33.34079 -0.21048,38.45237 -1.70616,41.34469 -2.80374,5.42182 -3.02034,15.77468 -0.46955,22.44255 2.0569,5.37681 2.17519,7.59761 2.17519,40.83602 0,33.23842 -0.11829,35.45922 -2.17519,40.83602 -2.70159,7.06206 -2.31587,17.03223 0.8999,23.26103 2.81128,5.44531 8.94381,11.25468 14.71603,13.94056 5.83272,2.71402 19.13294,2.49174 24.68271,-0.41252 z m -88.031,-153.25554 c 10.68575,-5.04362 16.46585,-15.5028 15.56046,-28.15686 -0.76458,-10.68613 -6.05797,-18.65742 -15.69923,-23.64145 -4.32209,-2.23429 -6.64739,-2.7178 -13.01586,-2.70646 -8.79307,0.0157 -13.23798,1.56251 -18.98198,6.60581 -11.2313,9.86121 -13.30453,27.36301 -4.6557,39.30237 8.18417,11.29792 23.4915,14.87451 36.79231,8.59659 z m 180.42014,0.42256 c 5.59289,-2.34933 11.46405,-8.33921 14.30385,-14.59309 2.87382,-6.32881 2.66497,-17.25224 -0.4581,-23.95897 -4.47862,-9.61777 -16.00332,-17.01869 -26.50145,-17.01869 -14.96683,0 -27.75905,12.2555 -28.75915,27.55251 -1.45329,22.2288 20.24729,36.90981 41.41485,28.01824 z m -96.73401,-261.8137 c 6.77486,-2.01192 14.40084,-8.74077 17.53567,-15.47275 3.10556,-6.669133 3.33105,-17.632585 0.49125,-23.884916 -2.75085,-6.056486 -7.97093,-11.577292 -13.68403,-14.472333 -3.96363,-2.008529 -6.55224,-2.518164 -12.79059,-2.518164 -12.74261,0 -20.88029,4.860728 -26.30196,15.71048 -7.96773,15.944828 -0.11638,34.513503 17.20592,40.692513 5.19965,1.85477 11.17631,1.83609 17.54374,-0.0548 z"
       style="opacity:0.99;fill:#000000;fill-opacity:1;stroke:#000000;stroke-width:3.90736;stroke-opacity:1" />
  </g>
</svg>
