<?xml version="1.0" encoding="UTF-8" standalone="no"?>
<!-- Created with Inkscape (http://www.inkscape.org/) -->

<svg
   xmlns:dc="http://purl.org/dc/elements/1.1/"
   xmlns:cc="http://creativecommons.org/ns#"
   xmlns:rdf="http://www.w3.org/1999/02/22-rdf-syntax-ns#"
   xmlns:svg="http://www.w3.org/2000/svg"
   xmlns="http://www.w3.org/2000/svg"
   xmlns:sodipodi="http://sodipodi.sourceforge.net/DTD/sodipodi-0.dtd"
   xmlns:inkscape="http://www.inkscape.org/namespaces/inkscape"
   version="1.1"
   id="svg912"
   width="1200"
   height="1200"
   viewBox="0 0 1200 1200"
   sodipodi:docname="logo0.svg"
   inkscape:version="1.0.1 (c497b03c, 2020-09-10)"
   inkscape:dataloss="true">
  <metadata
     id="metadata918">
    <rdf:RDF>
      <cc:Work
         rdf:about="">
        <dc:format>image/svg+xml</dc:format>
        <dc:type
           rdf:resource="http://purl.org/dc/dcmitype/StillImage" />
        <dc:title></dc:title>
      </cc:Work>
    </rdf:RDF>
  </metadata>
  <defs
     id="defs916" />
  <sodipodi:namedview
     pagecolor="#ffffff"
     bordercolor="#666666"
     borderopacity="1"
     objecttolerance="10"
     gridtolerance="10"
     guidetolerance="10"
     inkscape:pageopacity="0"
     inkscape:pageshadow="2"
     inkscape:window-width="1270"
     inkscape:window-height="760"
     id="namedview914"
     showgrid="false"
     inkscape:zoom="0.32467986"
     inkscape:cx="293.23223"
     inkscape:cy="849.89378"
     inkscape:window-x="10"
     inkscape:window-y="28"
     inkscape:window-maximized="0"
     inkscape:current-layer="layer1"
     showborder="false" />
  <g
     inkscape:groupmode="layer"
     inkscape:label="Image"
     id="g920"
     style="display:inline" />
  <g
     inkscape:groupmode="layer"
     id="layer1"
     inkscape:label="Image 1"
     style="display:inline">
    <path
       style="fill:#000000;stroke-width:1.33333"
       d="m 233.01668,800.69088 c 8.2664,-7.91972 8.522,-19.99484 0.59111,-27.92575 -8.21275,-8.21273 -20.61744,-7.62435 -28.49857,1.35176 -3.43678,3.91427 -4.12366,5.81036 -4.12366,11.38308 0,13.37833 7.28526,20.37975 20.3347,19.5424 6.26264,-0.40185 8.40633,-1.19939 11.69642,-4.35149 z m 198.0756,2.18224 c 5.97375,-3.64279 9.03858,-10.90126 7.86008,-18.61518 -0.81082,-5.30736 -0.9321,-17.13489 -0.72329,-70.53725 0.0165,-4.21667 -0.29879,-19.66667 -0.7006,-34.33333 -0.87828,-32.05827 -0.004,-37.02267 9.27123,-52.66667 22.20049,-37.44281 48.11902,-77.94145 52.14184,-81.47353 9.00394,-7.90556 9.06066,-21.09756 0.12453,-28.94364 -11.54296,-10.13487 -27.42252,-4.8518 -32.02768,10.65546 -1.8526,6.23815 -44.31512,77.09504 -46.20093,77.09504 -0.4758,0 -7.031,-10.65 -14.56714,-23.66666 -7.53612,-13.01667 -16.88065,-29.06667 -20.76562,-35.66667 -3.88498,-6.6 -7.64216,-14.61611 -8.3493,-17.81356 -3.53452,-15.98181 -22.6086,-21.05763 -33.31374,-8.86515 -7.33182,8.35048 -6.80842,19.09958 1.30457,26.79211 3.68733,3.49624 11.73805,16.50401 34.17655,55.21993 4.03765,6.96667 8.76354,14.9038 10.50198,17.63808 1.73844,2.73428 3.1608,5.27527 3.1608,5.64664 0,0.37138 1.70768,3.53423 3.79486,7.02859 6.18946,10.36244 7.14269,17.75164 6.32373,49.02003 -0.40335,15.4 -0.68405,31.3 -0.62381,35.33333 0.52828,35.3686 0.23406,64.17471 -0.69719,68.26095 -0.61765,2.7102 -0.74996,6.41394 -0.29401,8.23057 1.04537,4.16511 7.07189,11.40712 10.72101,12.88335 5.0022,2.0236 14.57535,1.40382 18.88213,-1.22244 z m 200.15418,-0.0937 c 12.74072,-7.7685 12.31896,-25.78682 -0.77588,-33.14654 -10.13691,-5.69726 -21.80947,-1.92575 -26.95839,8.7105 -4.43561,9.16274 -1.41179,19.17646 7.41631,24.56 5.37457,3.27751 14.83404,3.2198 20.31796,-0.124 z m 200.20005,0.49547 c 5.67168,-3.38555 8.64808,-8.4762 9.23472,-15.79452 0.43843,-5.46937 -0.0585,-7.65036 -2.60348,-11.42628 -8.11551,-12.04079 -24.73329,-12.10991 -32.73228,-0.13616 -5.6634,8.4776 -3.00223,21.13187 5.64009,26.81948 4.93434,3.24733 15.45811,3.52377 20.46095,0.53748 z M 228.47698,731.22297 c 8.88254,-4.21504 12.47262,-12.75933 9.93357,-23.64164 -0.9254,-3.96625 -1.42303,-13.40569 -1.17952,-22.37456 l 0.4212,-15.51392 14.17197,8.18059 c 7.79459,4.49932 16.93119,10.73058 20.30355,13.84725 5.68319,5.25228 6.67379,5.66667 13.54632,5.66667 6.75691,0 7.90161,-0.45414 12.90229,-5.11872 4.88707,-4.55862 5.5461,-5.90819 6.0226,-12.33334 0.41623,-5.61237 -0.0709,-8.17968 -2.19365,-11.56013 -3.1576,-5.02855 -10.06941,-9.64229 -14.4558,-9.64949 -2.96681,-0.005 -42.16959,-21.64099 -43.70084,-24.11862 -1.07565,-1.74045 49.86988,-86.35198 53.00313,-88.02886 4.30302,-2.3029 7.7234,-9.38095 7.72878,-15.99367 0.007,-8.30016 -4.2064,-14.36651 -12.31024,-17.72507 -5.51019,-2.28364 -6.91967,-2.39062 -11.88711,-0.90234 -7.01275,2.10106 -12.76468,8.09133 -13.94784,14.52574 -0.496,2.69748 -7.26512,15.53368 -15.04249,28.5249 l -14.14067,23.62041 -0.38287,-37.62041 c -0.25925,-25.47312 0.1148,-39.43292 1.15838,-43.23383 2.16457,-7.88369 0.60484,-14.25067 -4.81995,-19.67547 -8.2654,-8.26538 -20.61429,-7.62793 -28.60835,1.4768 -4.0701,4.63559 -4.19816,5.13655 -3.31884,12.98352 0.75415,6.72995 0.94191,42.52164 0.76326,145.49524 -0.008,4.76667 0.0156,21.71667 0.0531,37.66667 0.0375,15.95 -0.3335,32.61029 -0.82441,37.02287 -0.78629,7.06786 -0.53728,8.4745 2.09197,11.81705 6.64522,8.44801 15.76707,10.90723 24.71246,6.66236 z m 404.2344,-1.64037 c 5.15217,-3.66867 8.90849,-13.06271 7.73165,-19.3358 -1.73927,-9.27107 -9.69305,-15.52984 -19.72459,-15.52112 -7.92858,0.007 -13.96496,4.00689 -17.24841,11.42969 -4.17629,9.44121 -1.01047,19.06363 8.04915,24.46507 6.03913,3.6006 15.31614,3.14628 21.1922,-1.03784 z m 197.58094,1.46936 c 2.55204,-1.2822 6.0555,-4.43127 7.78543,-6.99794 2.60337,-3.86257 3.04547,-5.90978 2.56575,-11.88128 -0.51395,-6.39746 -1.20112,-7.79436 -6.06714,-12.33333 -4.89777,-4.56859 -6.22849,-5.11872 -12.38178,-5.11872 -12.11858,0 -19.87568,7.67723 -19.87568,19.671 0,9.71891 9.43949,18.99152 19.33333,18.99152 2.2,0 6.08804,-1.04907 8.64009,-2.33125 z M 168.93115,693.8952 c 11.68584,-9.83298 10.36203,-26.30724 -2.63883,-32.83911 -16.70354,-8.39215 -34.12452,9.14873 -25.95114,26.12976 4.94449,10.27268 20.1222,13.83452 28.58997,6.70935 z m 199.65635,0.87946 c 8.4006,-5.12214 11.5898,-19.11026 6.05972,-26.5785 -3.98228,-5.37798 -10.89716,-9.47547 -15.99066,-9.47547 -19.64332,0 -27.39049,24.78439 -11.14049,35.64009 5.79109,3.8687 15.10529,4.05166 21.07143,0.41388 z m 128.15544,-0.0945 c 5.70149,-3.47608 10.03237,-12.83732 8.85141,-19.13239 -2.56185,-13.65584 -15.73577,-20.52998 -28.1002,-14.66268 -13.56263,6.43588 -14.27371,26.06535 -1.23232,34.01824 5.44863,3.32267 14.83291,3.22042 20.48111,-0.22317 z m 72.37878,-0.31936 c 6.63483,-4.43236 9.57716,-10.87621 8.35907,-18.30676 -1.27747,-7.79271 -1.18247,-61.84413 0.12,-68.30015 0.5926,-2.93733 0.39676,-6.70317 -0.47929,-9.21621 -0.81474,-2.33717 -1.30932,-4.42141 -1.09907,-4.63167 0.33773,-0.33774 23.89616,39.95828 24.55792,42.00563 0.14384,0.44499 0.88148,3.22732 1.63923,6.18295 0.82209,3.20668 3.67405,7.80522 7.07182,11.40272 3.13176,3.31585 6.97531,8.38597 8.54122,11.26692 l 2.8471,5.23809 3.81956,-6.51653 c 2.10076,-3.58408 4.94315,-7.47244 6.31644,-8.6408 5.60631,-4.76972 7.64087,-7.62287 9.08734,-12.74352 1.67656,-5.9353 28.96553,-51.94214 30.12294,-50.78471 0.39823,0.39821 -0.0433,3.0494 -0.98138,5.89152 -1.09826,3.32775 -1.35071,7.24637 -0.7091,11.00663 1.28076,7.50608 1.26892,59.78536 -0.0155,68.44581 -1.88966,12.74123 6.76389,21.54627 20.08948,20.44121 11.80705,-0.97913 18.9317,-9.6261 17.20581,-20.88218 -0.51996,-3.39115 -0.89869,-19.36571 -0.84163,-35.49904 0.0571,-16.13334 0.0668,-32.63334 0.0217,-36.66667 -0.1371,-12.25143 -0.0917,-64.17996 0.0629,-72 0.29428,-14.88063 -1.40056,-57.33307 -2.2886,-57.32485 -0.50465,0.005 -6.21948,8.71134 -12.69961,19.34818 -6.48014,10.63683 -12.96224,19.97131 -14.40468,20.74328 -3.29051,1.76103 -7.80167,9.03096 -7.80827,12.58336 -0.003,1.47582 -9.95396,18.87582 -22.11381,38.66667 -12.15984,19.79084 -22.56459,36.78856 -23.12166,37.77271 -0.68864,1.2166 -2.93612,-1.55743 -7.02161,-8.66667 -3.30484,-5.7508 -11.5992,-20.056 -18.43193,-31.78933 -17.71106,-30.41387 -18.25523,-31.46127 -19.22856,-37.01044 -0.58122,-3.31359 -2.60308,-6.7002 -5.97018,-10 -2.80024,-2.74426 -6.00064,-6.48956 -7.11201,-8.3229 -1.11137,-1.83333 -6.4422,-10.83333 -11.84629,-20 l -9.82562,-16.66666 -0.98412,26 c -0.54125,14.3 -0.9643,29.45 -0.94009,33.66666 0.0993,17.31034 0.152,64.92664 0.0807,73 -0.0421,4.76667 -0.0353,21.26667 0.0152,36.66667 0.0505,15.4 -0.32331,31.45491 -0.83064,35.67757 -0.76491,6.36659 -0.4789,8.37806 1.67498,11.77988 5.93984,9.38132 18.16138,12.1675 27.12016,6.18264 z m 200.34211,0.49605 c 8.04503,-5.30397 10.95735,-15.04094 7.48124,-25.01252 -0.75799,-2.17434 -1.20625,-11.79697 -1,-21.466 l 0.37383,-17.52504 13.72025,7.8951 c 7.54615,4.34229 15.24036,9.70162 17.09827,11.90962 7.02894,8.35343 20.20928,8.6349 28.24109,0.60308 2.52044,-2.52044 8.26312,-6.60548 12.76151,-9.07784 17.92086,-9.84955 20.96793,-11.46256 21.65338,-11.46256 0.89308,0 -0.31349,38.77224 -1.43149,46 -2.31501,14.9662 16.13823,26.23705 29.55892,18.05397 6.49136,-3.958 8.80929,-9.52964 7.71409,-18.54234 -0.50204,-4.13139 -0.87149,-20.11163 -0.82101,-35.51163 0.0505,-15.4 0.0576,-31.9 0.0159,-36.66667 -0.20304,-23.17414 0.0256,-65.02513 0.40113,-73.43578 0.41845,-9.37114 0.38783,-9.46651 -4.47113,-13.91942 -2.83002,-2.5935 -7.03986,-4.88648 -9.98638,-5.43924 -6.88438,-1.29152 -48.90076,-26.16078 -54.96036,-32.53074 -8.35838,-8.7865 -21.43792,-8.57283 -29.09046,0.47521 -2.05535,2.43015 -10.03699,8.03595 -17.73699,12.45733 -7.7,4.42138 -18.47883,10.64462 -23.95296,13.82942 -5.47413,3.18478 -12.37413,7.01438 -15.33333,8.51021 -7.19995,3.63944 -10.4651,9.99175 -9.27944,18.05301 0.73202,4.97698 1.10826,40.78724 0.75646,72 -0.0455,4.03334 0.0255,20.53334 0.15756,36.66667 0.13214,16.13333 -0.26542,31.55076 -0.88341,34.26095 -0.618,2.7102 -0.75059,6.41394 -0.29464,8.23057 1.04537,4.16511 7.07189,11.40712 10.72101,12.88335 5.04762,2.04197 14.57387,1.4071 18.58702,-1.23872 z m 29.51669,-89.27702 -22.66162,-12.97051 -0.36091,-26.09587 c -0.32308,-23.35962 -0.11333,-26.38609 2,-28.86377 1.72416,-2.02139 30.98711,-19.91133 43.02757,-26.30499 0.36667,-0.19473 11.46667,6.05517 24.66667,13.88865 l 24,14.2427 v 26.56522 26.56522 l -8,4.50121 c -4.4,2.47567 -15.20227,8.31303 -24.00504,12.97191 l -16.00503,8.4707 z m -628.40416,13.3555 c 4.86602,-4.53897 5.55319,-5.93586 6.06714,-12.33333 0.47972,-5.97149 0.0376,-8.01871 -2.56575,-11.88128 -3.60752,-5.35239 -10.60931,-9.32919 -16.42552,-9.32919 -10.33799,0 -19.33973,9.25104 -19.32455,19.8597 0.0163,11.34044 7.81736,18.77922 19.70951,18.79404 6.34143,0.008 7.60432,-0.50675 12.53917,-5.10994 z m 125.55414,2.5882 c 12.63986,-8.3333 11.62266,-27.03777 -1.83818,-33.80074 -8.98249,-4.51296 -19.23681,-1.65011 -25.06561,6.99793 -2.60337,3.86257 -3.04547,5.90979 -2.56575,11.88128 0.51395,6.39747 1.20112,7.79436 6.06714,12.33333 4.93485,4.60319 6.19774,5.11784 12.53917,5.10994 4.65863,-0.005 8.34512,-0.86156 10.86323,-2.52174 z m 71.48282,0.55064 c 6.23663,-3.22509 9.67994,-9.24306 9.67994,-16.91797 0,-7.5568 -2.50631,-11.92219 -9.62747,-16.76881 -12.92755,-8.79842 -31.76387,4.36501 -28.80621,20.13069 0.99589,5.30855 6.39746,12.51012 10.6839,14.24417 4.47667,1.811 13.93352,1.4509 18.06984,-0.68808 z m 128,0 c 9.39794,-4.85986 13.14212,-18.96722 7.17272,-27.02537 -7.01942,-9.47559 -16.64662,-11.97929 -25.95216,-6.74929 -9.68002,5.44048 -12.95102,18.26438 -7.01057,27.48486 4.85004,7.528 17.45216,10.60147 25.79001,6.2898 z M 165.77951,548.18218 c 14.71495,-6.6828 14.97375,-26.96309 0.44073,-34.53697 -13.36274,-6.964 -27.90962,2.07951 -27.89636,17.3426 0.007,7.71481 4.01046,13.93133 11.02256,17.11445 7.02399,3.18852 9.56104,3.20086 16.43307,0.0799 z m 265.31277,-39.97573 c 8.37538,-5.10729 11.13808,-18.56551 5.53338,-26.95525 -10.7901,-16.15179 -35.6401,-8.60323 -35.6401,10.82621 0,5.36188 2.89703,10.81148 8.05442,15.15112 5.22028,4.39259 15.6912,4.85692 22.0523,0.97792 z m 200.15418,-0.0937 c 13.46894,-8.21254 11.72848,-28.53235 -2.92318,-34.12786 -17.82105,-6.80593 -33.83628,12.66396 -23.5172,28.59014 5.15328,7.95342 18.04892,10.6543 26.44038,5.53772 z M 445.9373,428.5066 c 21.84321,-13.68442 41.76849,-25.34459 44.27841,-25.9115 6.75633,-1.52601 11.11841,-5.38482 14.05227,-12.43096 2.51412,-6.0381 2.52706,-6.53181 0.33333,-12.70842 -1.84967,-5.20784 -2.28241,-11.2438 -2.28241,-31.8353 0,-13.97496 0.53198,-25.7378 1.18218,-26.13965 2.41787,-1.49432 2.88548,-9.85873 0.87403,-15.63421 -2.928,-8.40714 -2.89849,-52.04968 0.0412,-61.0375 1.6696,-5.10452 1.80181,-7.51076 0.64808,-11.7954 -1.76809,-6.56618 -8.59979,-12.92698 -15.21737,-14.16845 -6.57055,-1.23264 -49.67898,-26.80327 -55.49674,-32.919 -3.18254,-3.34556 -6.4409,-5.28657 -9.99325,-5.95299 -2.89903,-0.54386 -8.17,-2.69817 -11.71325,-4.78736 -3.5432,-2.08917 -6.9523,-3.7985 -7.57571,-3.7985 -1.24024,0 -3.00204,18.24012 -2.73669,28.33333 0.12946,4.92513 0.22146,102.22557 0.13772,145.66667 -0.008,4.03333 -0.0141,21.13333 -0.0141,38 0,16.86666 -0.034,33.81666 -0.0755,37.66666 -0.1455,13.4887 1.4612,34.33334 2.64638,34.33334 0.65808,0 19.06824,-11.19635 40.91146,-24.88076 z m -8.48588,-55.25734 c 0.32653,-12.02405 1.02572,-24.48952 1.55374,-27.70104 0.5775,-3.51232 0.3435,-7.76282 -0.5872,-10.66666 -1.09406,-3.41358 -1.4328,-19.96803 -1.15649,-56.51999 l 0.39076,-51.69244 15.33333,8.9598 c 8.43334,4.92789 15.77415,9.58949 16.31292,10.35911 0.53878,0.76962 0.98878,12.71878 1,26.5537 0.0164,20.15931 -0.4224,26.40115 -2.20952,31.4329 -2.08436,5.86864 -2.08436,6.7236 0,13.09614 1.75667,5.37072 2.22994,12.02639 2.22994,31.36046 0,28.22665 1.55237,24.76668 -16,35.66114 -6.23334,3.86894 -12.71211,7.9309 -14.39727,9.0266 l -3.06392,1.99218 z m 195.25996,61.66667 c 2.30705,-1.64277 5.05021,-5.47141 6.34009,-8.84893 1.97535,-5.17235 2.04528,-6.70062 0.53315,-11.64982 -1.87583,-6.13957 -3.3793,-41.02982 -1.76804,-41.02982 2.20413,0 31.43957,19.1404 32.90992,21.54606 3.26945,5.34927 9.87053,8.14971 17.68305,7.50183 10.67604,-0.88535 17.90935,-8.57848 17.90935,-19.04789 0,-9.13578 -5.66051,-16.13227 -14.99919,-18.53924 -5.48427,-1.41354 -35.66748,-18.90063 -35.66748,-20.6645 0,-0.47938 5.91647,-4.00466 13.14772,-7.83394 10.30268,-5.45575 14.46408,-6.96232 19.23103,-6.96232 11.08317,0 19.448,-10.12862 17.52557,-21.22095 -1.32491,-7.64461 -1.36088,-61.11693 -0.0472,-70.11239 0.78148,-5.35109 0.46721,-7.58756 -1.59256,-11.33333 -3.16979,-5.76435 -9.73672,-9.76759 -16.56612,-10.09879 -4.03387,-0.19564 -9.93347,-3.26414 -26.76965,-13.92349 -11.87751,-7.51991 -22.08044,-14.50041 -22.67318,-15.51224 -2.24477,-3.83197 -7.01574,-7.25072 -12.20821,-8.74807 -2.95943,-0.85341 -8.54241,-3.53894 -12.40665,-5.96786 -3.86422,-2.42892 -7.31422,-4.41622 -7.66664,-4.41622 -0.35243,0 -0.64951,3.75 -0.66018,8.33334 -0.0107,4.58333 -0.92724,10.93997 -2.03681,14.12586 -2.01145,5.77548 -1.54384,14.1399 0.87403,15.63422 0.65964,0.40768 1.18218,27.84298 1.18218,62.06808 0,52.85849 -0.29768,62.24756 -2.15346,67.9213 -1.98242,6.06087 -1.98242,7.10687 0,13.16774 3.07744,9.40873 3.11257,55.48228 0.0484,63.50562 -4.9607,12.98938 5.59076,26.7323 19.60136,25.53016 3.4516,-0.29616 7.95202,-1.80272 10.22949,-3.42441 z m 4.27418,-163.43872 c 0,-23.88276 0.45,-43.42311 1,-43.423 0.55,1.1e-4 7.9,4.42157 16.33334,9.82548 l 15.33333,9.82528 0.33415,25.17453 0.33414,25.17452 -14.19213,7.63755 c -7.80568,4.20064 -15.30604,7.99107 -16.66748,8.42317 -2.37699,0.75443 -2.47535,-0.93986 -2.47535,-42.63753 z M 368.5875,400.108 c 8.4006,-5.12215 11.5898,-19.11027 6.05972,-26.57851 -6.73806,-9.09957 -16.1774,-11.64731 -25.5111,-6.88561 -18.01245,9.18928 -11.26632,36.08833 9.04662,36.07182 3.73156,-0.003 7.80892,-1.02492 10.40476,-2.6077 z m 203.09585,-2.08379 c 10.2412,-9.81169 7.64681,-26.89821 -4.87883,-32.13176 -8.55884,-3.57611 -16.39853,-1.75312 -23.04174,5.35797 -4.55032,4.87079 -5.48279,16.38322 -1.79834,22.20243 4.50098,7.10879 9.28806,9.47821 18.02248,8.92047 6.2646,-0.40003 8.40531,-1.19602 11.69643,-4.34911 z M 368.5875,326.77466 c 13.01,-7.93265 11.05832,-28.72873 -3.21108,-34.21553 -10.6286,-4.08685 -21.15995,0.43703 -25.11286,10.78756 -3.14965,8.24724 -1.74336,14.55569 4.67574,20.97479 4.60934,4.60936 5.71082,5.06542 12.22273,5.06089 4.74436,-0.003 8.59577,-0.88233 11.42547,-2.60771 z m 201.67698,-0.87946 c 6.01159,-5.0584 8.47006,-10.56376 7.71376,-17.27368 -2.11881,-18.79802 -25.91692,-24.23599 -35.71801,-8.16172 -3.14875,5.16408 -3.39767,14.1996 -0.54327,19.7194 4.87687,9.43082 20.4314,12.54526 28.54752,5.716 z M 363.89986,254.67425 c 9.07637,-2.52089 15.27062,-13.59924 13.06694,-23.37009 -2.32613,-10.31372 -13.96264,-17.07598 -24.13824,-14.0273 -6.08129,1.822 -12.75529,9.17692 -13.90932,15.32842 -1.7183,9.15934 4.52002,19.41578 13.39966,22.03042 5.43162,1.59938 5.955,1.60111 11.58096,0.0385 z m 203.22096,-1.35237 c 6.78212,-3.28316 9.64632,-7.30211 10.70413,-15.01962 2.26605,-16.53274 -17.80316,-28.26432 -30.82677,-18.01994 -9.98335,7.8529 -9.82622,24.32504 0.3006,31.5109 6.78388,4.81376 12.17678,5.22966 19.82204,1.52866 z"
       id="path1532"
       sodipodi:nodetypes="sssssssssscsssssssssssssssssssssssssssssssssscssssssssscsssscssssscssssssssssssssssssssssssssssssssssssssssscsssssssssssscsscsssssssscssssssssssscssssssssscssssssssssssssssccsssscccssccsssssssssssscsssssssssssssscssssssssssssssssssssssssssscssssssssscsssssssscsssssssssssssssssssssssssssssssssscccsssssssssssssssssscssssssssssssssssss" />
  </g>
</svg>
