<svg id="logo" version="1.1" width="100%" height="100%" viewBox="0 0 800 800" xmlns="http://www.w3.org/2000/svg">
          <defs id="defs1401">
          <filter id="filter1115" x="-7.4554e-6" y="-7.4741e-6" width="1" height="1" color-interpolation-filters="sRGB">
            <feGaussianBlur id="feGaussianBlur1383" stdDeviation="0.00031097109"/>
          </filter>
          <filter id="filter1119" x="-7.474e-6" y="-7.5041e-6" width="1" height="1" color-interpolation-filters="sRGB">
            <feGaussianBlur id="feGaussianBlur1386" stdDeviation="0.00031097109"/>
          </filter>
          <filter id="filter1123" x="-7.4958e-6" y="-7.4978e-6" width="1" height="1" color-interpolation-filters="sRGB">
            <feGaussianBlur id="feGaussianBlur1389" stdDeviation="0.00031097109"/>
          </filter>
          <filter id="filter1127" x="-7.4618e-6" y="-7.488e-6" width="1" height="1" color-interpolation-filters="sRGB">
            <feGaussianBlur id="feGaussianBlur1392" stdDeviation="0.00031097109"/>
          </filter>
          <filter id="filter1131" x="-7.4668e-6" y="-7.4923e-6" width="1" height="1" color-interpolation-filters="sRGB">
            <feGaussianBlur id="feGaussianBlur1395" stdDeviation="0.00031097109"/>
          </filter>
          <filter id="filter1226" x="-6.6851e-7" y="-6.6846e-7" width="1" height="1" color-interpolation-filters="sRGB">
            <feGaussianBlur id="feGaussianBlur1398" stdDeviation="0.00015548264"/>
          </filter>
          <filter id="filter1989" x="-1.7081e-6" y="-9.6668e-7" width="1" height="1" color-interpolation-filters="sRGB">
            <feGaussianBlur id="feGaussianBlur1991" stdDeviation="0.00016708166"/>
          </filter>
          </defs>
          <g id="layer1">
          <g>
            <path id="logo__Y" transform="matrix(.7516 0 0 .7516 -321.55 -5.8737)" d="m964.05 774.23c4.8356-1.2594 8.4037-3.358 12.248-7.2023 3.8448-3.8443 5.9429-7.4129 7.2023-12.248 1.5775-6.0558 0.68773-13.768-2.1808-18.9l-1.3158-2.3544v-72.971l1.3475-2.6596c3.8964-7.6886 3.8835-17.632-0.0317-24.637l-1.3158-2.3544v-77.807l1.2702-2.5344c1.7935-3.5794 2.5285-6.0772 2.939-9.9903 0.35353-3.3607 0.83548-4.1796 39.003-66.235 37.615-61.159 38.715-62.875 41.294-64.418 3.2737-1.9595 7.6956-6.6624 9.6362-10.25 5.6308-10.409 3.5101-23.476-5.1628-31.804-10.493-10.076-26.107-10.262-36.682-0.4352-1.7247 1.6027-3.9566 4.2779-4.9592 5.9445-2.0191 3.3543-3.818 9.1242-3.818 12.244 0 1.7338-4.6722 9.6212-32.734 55.261-31.639 51.459-32.761 53.197-33.533 51.986-0.4395-0.68827-14.36-24.525-30.935-52.969-28.482-48.879-30.136-51.859-30.136-54.302 0-8.2097-6.5307-18.349-14.379-22.327-5.9085-2.9938-13.001-3.8061-19.182-2.1959-9.4965 2.4737-17.57 10.954-19.573 20.56-2.1894 10.499 2.45 21.751 11.423 27.707 2.8997 1.9246 2.9406 1.9923 39.34 64.399l36.437 62.472 0.42177 3.854c0.46314 4.2349 1.5904 8.0802 3.1716 10.818 0.98431 1.7043 1.0262 3.3688 1.0262 40.757v38.98l-1.5554 3.3006c-3.6358 7.7154-3.6358 15.542 0 23.257l1.5554 3.3006v72.764l-1.5554 3.3006c-5.0209 10.654-3.0136 22.253 5.2686 30.44 5.613 5.5486 11.18 7.9476 18.606 8.0169 2.0804 0.0193 5.1671-0.32506 6.8595-0.76617z" filter="url(#filter1989)" stroke-width=".53729"/>
            <path id="logo__dot--0" transform="matrix(.40383 0 0 .40383 137.59 249.14)" d="m653 35.972c18.86-2.94 35.51-18.177 40.547-37.102 6.694-25.15-9.147-52.844-34.478-60.276-8.334-2.444-22.043-2.09-30.176 0.781-16.536 5.838-29.43 20.462-32.944 37.363-5.584 26.866 13.537 54.462 41.051 59.245 6.476 1.125 8.72 1.124 16-0.012z" filter="url(#filter1115)" opacity=".993"/>
            <path id="logo__dot--4" transform="matrix(.40383 0 0 .40383 137.59 249.14)" d="m836.05 331.1c12.824-5.13 23.975-16.617 28.987-29.86 2.736-7.227 3.665-20.067 1.98-27.349-5.908-25.53-30.773-42.85-56.018-39.021-29.11 4.415-48.76 33.601-41.469 61.593 4.388 16.846 18.709 31.476 35.469 36.235 7.088 2.012 24.233 1.13 31.05-1.597z" filter="url(#filter1119)" opacity=".993"/>
            <path id="logo__dot--3" transform="matrix(.40383 0 0 .40383 137.59 249.14)" d="m496.28 331.92c15.032-5.04 27.165-16.861 32.245-31.415 2.27-6.504 3.014-19.577 1.523-26.76-5.164-24.876-30.559-42.522-55.898-38.843-33.207 4.822-52.362 40.436-38.144 70.915 5.549 11.893 20.378 24.203 32.62 27.078 7.449 1.75 20.948 1.273 27.653-0.975z" filter="url(#filter1123)" opacity=".993"/>
            <path id="logo__dot--7" transform="matrix(.40383 0 0 .40383 137.59 249.14)" d="m834.17 524.13c20.173-7.005 33.828-26.03 33.828-47.131 0-13.226-4.728-24.766-14.18-34.608-19.585-20.397-51.962-20.635-71.1-0.524-15.568 16.358-18.997 37.27-9.368 57.123 6.171 12.726 20.714 24.034 34.704 26.984 6.443 1.36 19.557 0.433 26.116-1.844z" filter="url(#filter1127)" opacity=".993"/>
            <path id="logo__dot--6" transform="matrix(.40383 0 0 .40383 137.59 249.14)" d="m497.42 524.05c20.235-7.024 33.581-25.961 33.581-47.65 0-26.719-22.713-49.396-49.471-49.396-14.209 0-25.44 4.697-35.612 14.89-19.713 19.758-19.842 49.831-0.298 69.824 6.505 6.655 16.837 12.447 25.437 14.261 6.54 1.38 19.579 0.426 26.363-1.93z" filter="url(#filter1131)" opacity=".993"/>
          </g>
          <g id="logo__O" transform="matrix(.80767 0 0 .80767 -124.79 98.276)" filter="url(#filter1226)">
            <path id="logo__circle--background" transform="matrix(.5 0 0 .5 324.88 186.79)" d="m689.5 930.97c116.66-8.488 227.65-53.164 317-127.6 51.28-42.719 94.964-94.548 127.53-151.31 41.985-73.174 66.686-154.31 72.936-239.57 1.324-18.07 1.323-58.527 0-77.313-8.45-119.73-53.597-230.43-131.81-323.19-13.943-16.535-47.297-49.81-64.158-64.003-56.618-47.662-117-81.513-186.55-104.59-114.95-38.133-241.36-37.386-356.32 2.105-138.47 47.569-252.74 147.78-318.56 279.36-31.712 63.391-48.87 124.16-56.782 201.12-0.812 7.898-1.261 25.938-1.22 49 0.07 38.977 1.027 52.483 6.022 85 25.307 164.73 124.71 310.54 269.91 395.95 19.245 11.32 54.442 28.49 75.671 36.915 52.677 20.905 109.09 33.854 165.83 38.068 15.776 1.171 64.604 1.194 80.5 0.038zm-54-39.668c-168.36-4.141-325.85-92.076-418.73-233.8-68.085-103.89-96.188-225.59-80.707-349.5 10.44-83.561 42.75-165.8 92.274-234.89 76.445-106.64 191.04-181.05 318.16-206.58 36.831-7.397 63.274-9.933 103.5-9.926 32.818 6e-3 51.578 1.383 80.512 5.914 82.013 12.84 160.92 46.125 228.04 96.19 38.714 28.878 77.978 68.061 105.96 105.75 51.855 69.83 85.004 149.64 97.418 234.55 4.82 32.956 6.52 80.659 4.032 113.05-11.43 148.78-84.367 282.85-203.47 374.02-41.443 31.721-92.206 59.022-143 76.906-28.243 9.944-70.214 19.895-101 23.946-24.52 3.227-58.08 5-83 4.388z"/>
          </g>
          <g>
            <path id="logo__dot--1" transform="matrix(.40383 0 0 .40383 71.414 290.38)" d="m653 35.972c18.86-2.94 35.51-18.177 40.547-37.102 6.694-25.15-9.147-52.844-34.478-60.276-8.334-2.444-22.043-2.09-30.176 0.781-16.536 5.838-29.43 20.462-32.944 37.363-5.584 26.866 13.537 54.462 41.051 59.245 6.476 1.125 8.72 1.124 16-0.012z" filter="url(#filter1115)" opacity=".993"/>
            <path id="logo__dot--2" transform="matrix(.40383 0 0 .40383 207.33 290.29)" d="m653 35.972c18.86-2.94 35.51-18.177 40.547-37.102 6.694-25.15-9.147-52.844-34.478-60.276-8.334-2.444-22.043-2.09-30.176 0.781-16.536 5.838-29.43 20.462-32.944 37.363-5.584 26.866 13.537 54.462 41.051 59.245 6.476 1.125 8.72 1.124 16-0.012z" filter="url(#filter1115)" opacity=".993"/>
            <path id="logo__dot--5" transform="matrix(.40383 0 0 .40383 67.73 283.72)" d="m836.05 331.1c12.824-5.13 23.975-16.617 28.987-29.86 2.736-7.227 3.665-20.067 1.98-27.349-5.908-25.53-30.773-42.85-56.018-39.021-29.11 4.415-48.76 33.601-41.469 61.593 4.388 16.846 18.709 31.476 35.469 36.235 7.088 2.012 24.233 1.13 31.05-1.597z" fill-opacity=".8" filter="url(#filter1119)" opacity=".993"/>
            <path id="logo__dot--8" transform="matrix(.40383 0 0 .40383 67.73 364.57)" d="m836.05 331.1c12.824-5.13 23.975-16.617 28.987-29.86 2.736-7.227 3.665-20.067 1.98-27.349-5.908-25.53-30.773-42.85-56.018-39.021-29.11 4.415-48.76 33.601-41.469 61.593 4.388 16.846 18.709 31.476 35.469 36.235 7.088 2.012 24.233 1.13 31.05-1.597z" filter="url(#filter1119)" opacity=".993"/>
            <path id="logo__dot--9" transform="matrix(.40383 0 0 .40383 67.847 441.53)" d="m836.05 331.1c12.824-5.13 23.975-16.617 28.987-29.86 2.736-7.227 3.665-20.067 1.98-27.349-5.908-25.53-30.773-42.85-56.018-39.021-29.11 4.415-48.76 33.601-41.469 61.593 4.388 16.846 18.709 31.476 35.469 36.235 7.088 2.012 24.233 1.13 31.05-1.597z" filter="url(#filter1119)" opacity=".993"/>
          </g>
          </g>
        </svg> 