<svg id="logo" version="1.1" viewBox="0 0 800 800" xmlns="http://www.w3.org/2000/svg">
 <defs id="defs1401">
  <filter id="filter1115" x="-7.4554e-6" y="-7.4741e-6" width="1" height="1" color-interpolation-filters="sRGB">
   <feGaussianBlur id="feGaussianBlur1383" stdDeviation="0.00031097109"/>
  </filter>
  <filter id="filter1119" x="-7.474e-6" y="-7.5041e-6" width="1" height="1" color-interpolation-filters="sRGB">
   <feGaussianBlur id="feGaussianBlur1386" stdDeviation="0.00031097109"/>
  </filter>
  <filter id="filter1123" x="-7.4958e-6" y="-7.4978e-6" width="1" height="1" color-interpolation-filters="sRGB">
   <feGaussianBlur id="feGaussianBlur1389" stdDeviation="0.00031097109"/>
  </filter>
  <filter id="filter1127" x="-7.4618e-6" y="-7.488e-6" width="1" height="1" color-interpolation-filters="sRGB">
   <feGaussianBlur id="feGaussianBlur1392" stdDeviation="0.00031097109"/>
  </filter>
  <filter id="filter1131" x="-7.4668e-6" y="-7.4923e-6" width="1" height="1" color-interpolation-filters="sRGB">
   <feGaussianBlur id="feGaussianBlur1395" stdDeviation="0.00031097109"/>
  </filter>
 </defs>
 <g id="layer2" opacity=".998">
  <path id="logo__circle" d="m399.9 160.52a239.48 239.48 0 0 0-239.38 239.48 239.48 239.48 0 0 0 239.48 239.48 239.48 239.48 0 0 0 239.48-239.48 239.48 239.48 0 0 0-239.48-239.48 239.48 239.48 0 0 0-0.0977 0zm0.09766 31.197a208.28 208.28 0 0 1 1.2129 4e-3 208.28 208.28 0 0 1 1.2148 0.0117 208.28 208.28 0 0 1 1.2129 0.0176 208.28 208.28 0 0 1 1.2129 0.0234 208.28 208.28 0 0 1 1.2129 0.0332 208.28 208.28 0 0 1 1.2129 0.0391 208.28 208.28 0 0 1 1.2129 0.0449 208.28 208.28 0 0 1 1.2129 0.0527 208.28 208.28 0 0 1 1.2129 0.0606 208.28 208.28 0 0 1 1.2109 0.0664 208.28 208.28 0 0 1 1.2109 0.0742 208.28 208.28 0 0 1 1.2109 0.082 208.28 208.28 0 0 1 1.2109 0.0879 208.28 208.28 0 0 1 1.209 0.0957 208.28 208.28 0 0 1 1.209 0.10156 208.28 208.28 0 0 1 1.209 0.11133 208.28 208.28 0 0 1 1.209 0.11523 208.28 208.28 0 0 1 1.207 0.12305 208.28 208.28 0 0 1 1.207 0.13086 208.28 208.28 0 0 1 1.2051 0.13867 208.28 208.28 0 0 1 1.2051 0.14453 208.28 208.28 0 0 1 1.2031 0.15039 208.28 208.28 0 0 1 1.2031 0.16016 208.28 208.28 0 0 1 1.2031 0.16406 208.28 208.28 0 0 1 1.2012 0.17383 208.28 208.28 0 0 1 1.1992 0.17969 208.28 208.28 0 0 1 1.1992 0.18555 208.28 208.28 0 0 1 1.1992 0.19531 208.28 208.28 0 0 1 1.1973 0.19922 208.28 208.28 0 0 1 1.1953 0.20703 208.28 208.28 0 0 1 1.1934 0.21484 208.28 208.28 0 0 1 1.1934 0.22266 208.28 208.28 0 0 1 1.1914 0.22851 208.28 208.28 0 0 1 1.1914 0.23438 208.28 208.28 0 0 1 1.1894 0.24219 208.28 208.28 0 0 1 1.1875 0.25 208.28 208.28 0 0 1 1.1856 0.25586 208.28 208.28 0 0 1 1.1855 0.26367 208.28 208.28 0 0 1 1.1836 0.26953 208.28 208.28 0 0 1 1.1816 0.27734 208.28 208.28 0 0 1 1.1797 0.28321 208.28 208.28 0 0 1 1.1777 0.29101 208.28 208.28 0 0 1 1.1758 0.29688 208.28 208.28 0 0 1 1.1758 0.30468 208.28 208.28 0 0 1 1.1719 0.31055 208.28 208.28 0 0 1 1.1719 0.31836 208.28 208.28 0 0 1 1.1699 0.32422 208.28 208.28 0 0 1 1.168 0.33203 208.28 208.28 0 0 1 1.1641 0.33789 208.28 208.28 0 0 1 1.1641 0.3457 208.28 208.28 0 0 1 1.1621 0.35157 208.28 208.28 0 0 1 1.1582 0.35937 208.28 208.28 0 0 1 1.1582 0.36524 208.28 208.28 0 0 1 1.1543 0.37304 208.28 208.28 0 0 1 1.1524 0.37891 208.28 208.28 0 0 1 1.1504 0.38476 208.28 208.28 0 0 1 1.1484 0.39258 208.28 208.28 0 0 1 1.1465 0.39844 208.28 208.28 0 0 1 1.1445 0.40625 208.28 208.28 0 0 1 1.1406 0.41211 208.28 208.28 0 0 1 1.1387 0.41992 208.28 208.28 0 0 1 1.1367 0.42383 208.28 208.28 0 0 1 1.1348 0.43359 208.28 208.28 0 0 1 1.1309 0.4375 208.28 208.28 0 0 1 1.1289 0.44727 208.28 208.28 0 0 1 1.127 0.45117 208.28 208.28 0 0 1 1.123 0.45898 208.28 208.28 0 0 1 1.1211 0.46485 208.28 208.28 0 0 1 1.1191 0.4707 208.28 208.28 0 0 1 1.1152 0.47852 208.28 208.28 0 0 1 1.1113 0.48437 208.28 208.28 0 0 1 1.1094 0.49219 208.28 208.28 0 0 1 1.1074 0.49609 208.28 208.28 0 0 1 1.1035 0.50391 208.28 208.28 0 0 1 1.1016 0.51172 208.28 208.28 0 0 1 1.0976 0.51562 208.28 208.28 0 0 1 1.0957 0.52344 208.28 208.28 0 0 1 1.0918 0.5293 208.28 208.28 0 0 1 1.0898 0.53711 208.28 208.28 0 0 1 1.084 0.54101 208.28 208.28 0 0 1 1.084 0.54883 208.28 208.28 0 0 1 1.0781 0.55469 208.28 208.28 0 0 1 1.0762 0.5625 208.28 208.28 0 0 1 1.0723 0.56641 208.28 208.28 0 0 1 1.0703 0.57421 208.28 208.28 0 0 1 1.0664 0.58008 208.28 208.28 0 0 1 1.0625 0.58594 208.28 208.28 0 0 1 1.0586 0.5918 208.28 208.28 0 0 1 1.0566 0.59961 208.28 208.28 0 0 1 1.0527 0.60351 208.28 208.28 0 0 1 1.0469 0.61133 208.28 208.28 0 0 1 1.0469 0.61719 208.28 208.28 0 0 1 1.041 0.62109 208.28 208.28 0 0 1 1.0371 0.62891 208.28 208.28 0 0 1 1.0352 0.63672 208.28 208.28 0 0 1 1.0293 0.64062 208.28 208.28 0 0 1 1.0274 0.64649 208.28 208.28 0 0 1 1.0234 0.65234 208.28 208.28 0 0 1 1.0195 0.66016 208.28 208.28 0 0 1 1.0137 0.66406 208.28 208.28 0 0 1 1.0117 0.66992 208.28 208.28 0 0 1 1.0078 0.67773 208.28 208.28 0 0 1 1.0039 0.68164 208.28 208.28 0 0 1 1 0.68946 208.28 208.28 0 0 1 0.99414 0.69336 208.28 208.28 0 0 1 0.99218 0.69922 208.28 208.28 0 0 1 0.98633 0.70703 208.28 208.28 0 0 1 0.98438 0.71093 208.28 208.28 0 0 1 0.97851 0.7168 208.28 208.28 0 0 1 0.97461 0.72266 208.28 208.28 0 0 1 0.97071 0.72851 208.28 208.28 0 0 1 0.96679 0.73438 208.28 208.28 0 0 1 0.96289 0.74023 208.28 208.28 0 0 1 0.95703 0.74414 208.28 208.28 0 0 1 0.95313 0.75196 208.28 208.28 0 0 1 0.94922 0.75586 208.28 208.28 0 0 1 0.94336 0.76171 208.28 208.28 0 0 1 0.9414 0.76758 208.28 208.28 0 0 1 0.93555 0.77344 208.28 208.28 0 0 1 0.93164 0.77734 208.28 208.28 0 0 1 0.92578 0.78516 208.28 208.28 0 0 1 0.92188 0.78906 208.28 208.28 0 0 1 0.91797 0.79492 208.28 208.28 0 0 1 0.91211 0.79883 208.28 208.28 0 0 1 0.9082 0.80469 208.28 208.28 0 0 1 0.90234 0.81055 208.28 208.28 0 0 1 0.89844 0.8164 208.28 208.28 0 0 1 0.89453 0.82032 208.28 208.28 0 0 1 0.88867 0.82617 208.28 208.28 0 0 1 0.88477 0.83203 208.28 208.28 0 0 1 0.87891 0.83594 208.28 208.28 0 0 1 0.875 0.84179 208.28 208.28 0 0 1 0.86914 0.84571 208.28 208.28 0 0 1 0.86523 0.85156 208.28 208.28 0 0 1 0.85937 0.85742 208.28 208.28 0 0 1 0.85352 0.86133 208.28 208.28 0 0 1 0.84961 0.86719 208.28 208.28 0 0 1 0.8457 0.87109 208.28 208.28 0 0 1 0.83985 0.87695 208.28 208.28 0 0 1 0.83398 0.88086 208.28 208.28 0 0 1 0.82813 0.88672 208.28 208.28 0 0 1 0.82421 0.89063 208.28 208.28 0 0 1 0.81836 0.89648 208.28 208.28 0 0 1 0.81446 0.90039 208.28 208.28 0 0 1 0.80859 0.9043 208.28 208.28 0 0 1 0.80274 0.91015 208.28 208.28 0 0 1 0.79687 0.91407 208.28 208.28 0 0 1 0.79297 0.91992 208.28 208.28 0 0 1 0.78711 0.92383 208.28 208.28 0 0 1 0.78125 0.92773 208.28 208.28 0 0 1 0.77539 0.93359 208.28 208.28 0 0 1 0.77148 0.9375 208.28 208.28 0 0 1 0.76563 0.94141 208.28 208.28 0 0 1 0.75976 0.94727 208.28 208.28 0 0 1 0.75391 0.95117 208.28 208.28 0 0 1 0.74805 0.95508 208.28 208.28 0 0 1 0.74219 0.95898 208.28 208.28 0 0 1 0.73828 0.96289 208.28 208.28 0 0 1 0.73242 0.96875 208.28 208.28 0 0 1 0.72461 0.97266 208.28 208.28 0 0 1 0.7207 0.97656 208.28 208.28 0 0 1 0.71484 0.98047 208.28 208.28 0 0 1 0.70899 0.98437 208.28 208.28 0 0 1 0.70312 0.99024 208.28 208.28 0 0 1 0.69922 0.99219 208.28 208.28 0 0 1 0.69141 0.99804 208.28 208.28 0 0 1 0.68555 1 208.28 208.28 0 0 1 0.67968 1.0059 208.28 208.28 0 0 1 0.67383 1.0078 208.28 208.28 0 0 1 0.66797 1.0137 208.28 208.28 0 0 1 0.66406 1.0176 208.28 208.28 0 0 1 0.65625 1.0195 208.28 208.28 0 0 1 0.65039 1.0254 208.28 208.28 0 0 1 0.64453 1.0273 208.28 208.28 0 0 1 0.63868 1.0332 208.28 208.28 0 0 1 0.63086 1.0352 208.28 208.28 0 0 1 0.62695 1.0391 208.28 208.28 0 0 1 0.62109 1.043 208.28 208.28 0 0 1 0.61328 1.0469 208.28 208.28 0 0 1 0.60938 1.0508 208.28 208.28 0 0 1 0.60156 1.0527 208.28 208.28 0 0 1 0.5957 1.0586 208.28 208.28 0 0 1 0.58985 1.0605 208.28 208.28 0 0 1 0.58398 1.0645 208.28 208.28 0 0 1 0.57617 1.0664 208.28 208.28 0 0 1 0.57227 1.0703 208.28 208.28 0 0 1 0.56445 1.0742 208.28 208.28 0 0 1 0.5586 1.0781 208.28 208.28 0 0 1 0.55273 1.0801 208.28 208.28 0 0 1 0.54492 1.084 208.28 208.28 0 0 1 0.53907 1.0879 208.28 208.28 0 0 1 0.53515 1.0898 208.28 208.28 0 0 1 0.52539 1.0918 208.28 208.28 0 0 1 0.52149 1.0977 208.28 208.28 0 0 1 0.51367 1.0996 208.28 208.28 0 0 1 0.50781 1.1016 208.28 208.28 0 0 1 0.50195 1.1055 208.28 208.28 0 0 1 0.49415 1.1074 208.28 208.28 0 0 1 0.48828 1.1113 208.28 208.28 0 0 1 0.48242 1.1133 208.28 208.28 0 0 1 0.47461 1.1172 208.28 208.28 0 0 1 0.4707 1.1191 208.28 208.28 0 0 1 0.46094 1.1211 208.28 208.28 0 0 1 0.45703 1.125 208.28 208.28 0 0 1 0.44922 1.127 208.28 208.28 0 0 1 0.4414 1.1309 208.28 208.28 0 0 1 0.4375 1.1328 208.28 208.28 0 0 1 0.42969 1.1348 208.28 208.28 0 0 1 0.42188 1.1367 208.28 208.28 0 0 1 0.41601 1.1406 208.28 208.28 0 0 1 0.41016 1.1426 208.28 208.28 0 0 1 0.40234 1.1445 208.28 208.28 0 0 1 0.39649 1.1465 208.28 208.28 0 0 1 0.39062 1.1504 208.28 208.28 0 0 1 0.38281 1.1504 208.28 208.28 0 0 1 0.375 1.1543 208.28 208.28 0 0 1 0.36914 1.1562 208.28 208.28 0 0 1 0.36329 1.1582 208.28 208.28 0 0 1 0.35547 1.1602 208.28 208.28 0 0 1 0.3496 1.1621 208.28 208.28 0 0 1 0.3418 1.1641 208.28 208.28 0 0 1 0.33594 1.166 208.28 208.28 0 0 1 0.33008 1.168 208.28 208.28 0 0 1 0.32031 1.1699 208.28 208.28 0 0 1 0.31641 1.1719 208.28 208.28 0 0 1 0.30859 1.1738 208.28 208.28 0 0 1 0.30078 1.1758 208.28 208.28 0 0 1 0.29492 1.1777 208.28 208.28 0 0 1 0.28711 1.1797 208.28 208.28 0 0 1 0.28125 1.1797 208.28 208.28 0 0 1 0.27344 1.1816 208.28 208.28 0 0 1 0.26758 1.1856 208.28 208.28 0 0 1 0.25976 1.1836 208.28 208.28 0 0 1 0.25391 1.1875 208.28 208.28 0 0 1 0.24609 1.1894 208.28 208.28 0 0 1 0.24024 1.1895 208.28 208.28 0 0 1 0.23242 1.1914 208.28 208.28 0 0 1 0.22461 1.1914 208.28 208.28 0 0 1 0.21875 1.1934 208.28 208.28 0 0 1 0.21289 1.1953 208.28 208.28 0 0 1 0.20312 1.1953 208.28 208.28 0 0 1 0.19922 1.1992 208.28 208.28 0 0 1 0.18946 1.1973 208.28 208.28 0 0 1 0.18359 1.1992 208.28 208.28 0 0 1 0.17773 1.2012 208.28 208.28 0 0 1 0.16993 1.2012 208.28 208.28 0 0 1 0.16211 1.2031 208.28 208.28 0 0 1 0.15625 1.2031 208.28 208.28 0 0 1 0.14843 1.2051 208.28 208.28 0 0 1 0.14258 1.2051 208.28 208.28 0 0 1 0.13477 1.207 208.28 208.28 0 0 1 0.12695 1.2051 208.28 208.28 0 0 1 0.12109 1.209 208.28 208.28 0 0 1 0.11329 1.207 208.28 208.28 0 0 1 0.10742 1.209 208.28 208.28 0 0 1 0.0976 1.2109 208.28 208.28 0 0 1 0.0937 1.209 208.28 208.28 0 0 1 0.0859 1.2109 208.28 208.28 0 0 1 0.0781 1.2109 208.28 208.28 0 0 1 0.0703 1.2109 208.28 208.28 0 0 1 0.0645 1.2129 208.28 208.28 0 0 1 0.0566 1.2109 208.28 208.28 0 0 1 0.0508 1.2129 208.28 208.28 0 0 1 0.043 1.2129 208.28 208.28 0 0 1 0.0352 1.2129 208.28 208.28 0 0 1 0.0293 1.2129 208.28 208.28 0 0 1 0.0215 1.2148 208.28 208.28 0 0 1 0.0156 1.2129 208.28 208.28 0 0 1 8e-3 1.2129 208.28 208.28 0 0 1 2e-3 0.71484 208.28 208.28 0 0 1-4e-3 1.2129 208.28 208.28 0 0 1-0.0117 1.2148 208.28 208.28 0 0 1-0.0176 1.2129 208.28 208.28 0 0 1-0.0234 1.2129 208.28 208.28 0 0 1-0.0332 1.2129 208.28 208.28 0 0 1-0.0391 1.2129 208.28 208.28 0 0 1-0.0449 1.2129 208.28 208.28 0 0 1-0.0527 1.2129 208.28 208.28 0 0 1-0.0606 1.2129 208.28 208.28 0 0 1-0.0664 1.2109 208.28 208.28 0 0 1-0.0742 1.2109 208.28 208.28 0 0 1-0.082 1.2109 208.28 208.28 0 0 1-0.0879 1.2109 208.28 208.28 0 0 1-0.0957 1.209 208.28 208.28 0 0 1-0.10156 1.209 208.28 208.28 0 0 1-0.11133 1.209 208.28 208.28 0 0 1-0.11523 1.209 208.28 208.28 0 0 1-0.12305 1.207 208.28 208.28 0 0 1-0.13086 1.207 208.28 208.28 0 0 1-0.13867 1.2051 208.28 208.28 0 0 1-0.14453 1.2051 208.28 208.28 0 0 1-0.15039 1.2031 208.28 208.28 0 0 1-0.16016 1.2031 208.28 208.28 0 0 1-0.16406 1.2031 208.28 208.28 0 0 1-0.17383 1.2012 208.28 208.28 0 0 1-0.17969 1.1992 208.28 208.28 0 0 1-0.18555 1.1992 208.28 208.28 0 0 1-0.19531 1.1992 208.28 208.28 0 0 1-0.19922 1.1973 208.28 208.28 0 0 1-0.20703 1.1953 208.28 208.28 0 0 1-0.21484 1.1934 208.28 208.28 0 0 1-0.22266 1.1934 208.28 208.28 0 0 1-0.22851 1.1914 208.28 208.28 0 0 1-0.23438 1.1914 208.28 208.28 0 0 1-0.24219 1.1894 208.28 208.28 0 0 1-0.25 1.1875 208.28 208.28 0 0 1-0.25586 1.1856 208.28 208.28 0 0 1-0.26367 1.1855 208.28 208.28 0 0 1-0.26953 1.1836 208.28 208.28 0 0 1-0.27734 1.1816 208.28 208.28 0 0 1-0.28321 1.1797 208.28 208.28 0 0 1-0.29101 1.1777 208.28 208.28 0 0 1-0.29688 1.1758 208.28 208.28 0 0 1-0.30468 1.1758 208.28 208.28 0 0 1-0.31055 1.1719 208.28 208.28 0 0 1-0.31836 1.1719 208.28 208.28 0 0 1-0.32422 1.1699 208.28 208.28 0 0 1-0.33203 1.168 208.28 208.28 0 0 1-0.33789 1.1641 208.28 208.28 0 0 1-0.3457 1.1641 208.28 208.28 0 0 1-0.35157 1.1621 208.28 208.28 0 0 1-0.35937 1.1582 208.28 208.28 0 0 1-0.36524 1.1582 208.28 208.28 0 0 1-0.37304 1.1543 208.28 208.28 0 0 1-0.37891 1.1524 208.28 208.28 0 0 1-0.38476 1.1504 208.28 208.28 0 0 1-0.39258 1.1484 208.28 208.28 0 0 1-0.39844 1.1465 208.28 208.28 0 0 1-0.40625 1.1445 208.28 208.28 0 0 1-0.41211 1.1406 208.28 208.28 0 0 1-0.41992 1.1387 208.28 208.28 0 0 1-0.42383 1.1367 208.28 208.28 0 0 1-0.43359 1.1348 208.28 208.28 0 0 1-0.4375 1.1309 208.28 208.28 0 0 1-0.44727 1.1289 208.28 208.28 0 0 1-0.45117 1.127 208.28 208.28 0 0 1-0.45898 1.123 208.28 208.28 0 0 1-0.46485 1.1211 208.28 208.28 0 0 1-0.4707 1.1191 208.28 208.28 0 0 1-0.47852 1.1152 208.28 208.28 0 0 1-0.48437 1.1113 208.28 208.28 0 0 1-0.49219 1.1094 208.28 208.28 0 0 1-0.49609 1.1074 208.28 208.28 0 0 1-0.50391 1.1035 208.28 208.28 0 0 1-0.51172 1.1016 208.28 208.28 0 0 1-0.51562 1.0976 208.28 208.28 0 0 1-0.52344 1.0957 208.28 208.28 0 0 1-0.5293 1.0918 208.28 208.28 0 0 1-0.53711 1.0898 208.28 208.28 0 0 1-0.54101 1.084 208.28 208.28 0 0 1-0.54883 1.084 208.28 208.28 0 0 1-0.55469 1.0781 208.28 208.28 0 0 1-0.5625 1.0762 208.28 208.28 0 0 1-0.56641 1.0723 208.28 208.28 0 0 1-0.57421 1.0703 208.28 208.28 0 0 1-0.58008 1.0664 208.28 208.28 0 0 1-0.58594 1.0625 208.28 208.28 0 0 1-0.5918 1.0586 208.28 208.28 0 0 1-0.59961 1.0566 208.28 208.28 0 0 1-0.60351 1.0527 208.28 208.28 0 0 1-0.61133 1.0469 208.28 208.28 0 0 1-0.61719 1.0469 208.28 208.28 0 0 1-0.62109 1.041 208.28 208.28 0 0 1-0.62891 1.0371 208.28 208.28 0 0 1-0.63672 1.0352 208.28 208.28 0 0 1-0.64062 1.0293 208.28 208.28 0 0 1-0.64649 1.0274 208.28 208.28 0 0 1-0.65234 1.0234 208.28 208.28 0 0 1-0.66016 1.0195 208.28 208.28 0 0 1-0.66406 1.0137 208.28 208.28 0 0 1-0.66992 1.0117 208.28 208.28 0 0 1-0.67773 1.0078 208.28 208.28 0 0 1-0.68164 1.0039 208.28 208.28 0 0 1-0.68946 1 208.28 208.28 0 0 1-0.69336 0.99414 208.28 208.28 0 0 1-0.69922 0.99218 208.28 208.28 0 0 1-0.70703 0.98633 208.28 208.28 0 0 1-0.71093 0.98438 208.28 208.28 0 0 1-0.7168 0.97851 208.28 208.28 0 0 1-0.72266 0.97461 208.28 208.28 0 0 1-0.72851 0.97071 208.28 208.28 0 0 1-0.73438 0.96679 208.28 208.28 0 0 1-0.74023 0.96289 208.28 208.28 0 0 1-0.74414 0.95703 208.28 208.28 0 0 1-0.75196 0.95313 208.28 208.28 0 0 1-0.75586 0.94922 208.28 208.28 0 0 1-0.76171 0.94336 208.28 208.28 0 0 1-0.76758 0.9414 208.28 208.28 0 0 1-0.77344 0.93555 208.28 208.28 0 0 1-0.77734 0.93164 208.28 208.28 0 0 1-0.78516 0.92578 208.28 208.28 0 0 1-0.78906 0.92188 208.28 208.28 0 0 1-0.79492 0.91797 208.28 208.28 0 0 1-0.79883 0.91211 208.28 208.28 0 0 1-0.80469 0.9082 208.28 208.28 0 0 1-0.81055 0.90234 208.28 208.28 0 0 1-0.8164 0.89844 208.28 208.28 0 0 1-0.82032 0.89453 208.28 208.28 0 0 1-0.82617 0.88867 208.28 208.28 0 0 1-0.83203 0.88477 208.28 208.28 0 0 1-0.83594 0.87891 208.28 208.28 0 0 1-0.84179 0.875 208.28 208.28 0 0 1-0.84571 0.86914 208.28 208.28 0 0 1-0.85156 0.86523 208.28 208.28 0 0 1-0.85742 0.85937 208.28 208.28 0 0 1-0.86133 0.85352 208.28 208.28 0 0 1-0.86719 0.84961 208.28 208.28 0 0 1-0.87109 0.8457 208.28 208.28 0 0 1-0.87695 0.83985 208.28 208.28 0 0 1-0.88086 0.83398 208.28 208.28 0 0 1-0.88672 0.82813 208.28 208.28 0 0 1-0.89063 0.82421 208.28 208.28 0 0 1-0.89648 0.81836 208.28 208.28 0 0 1-0.90039 0.81446 208.28 208.28 0 0 1-0.9043 0.80859 208.28 208.28 0 0 1-0.91015 0.80274 208.28 208.28 0 0 1-0.91407 0.79687 208.28 208.28 0 0 1-0.91992 0.79297 208.28 208.28 0 0 1-0.92383 0.78711 208.28 208.28 0 0 1-0.92773 0.78125 208.28 208.28 0 0 1-0.93359 0.77539 208.28 208.28 0 0 1-0.9375 0.77148 208.28 208.28 0 0 1-0.94141 0.76563 208.28 208.28 0 0 1-0.94727 0.75976 208.28 208.28 0 0 1-0.95117 0.75391 208.28 208.28 0 0 1-0.95508 0.74805 208.28 208.28 0 0 1-0.95898 0.74219 208.28 208.28 0 0 1-0.96289 0.73828 208.28 208.28 0 0 1-0.96875 0.73242 208.28 208.28 0 0 1-0.97266 0.72461 208.28 208.28 0 0 1-0.97656 0.7207 208.28 208.28 0 0 1-0.98047 0.71484 208.28 208.28 0 0 1-0.98437 0.70899 208.28 208.28 0 0 1-0.99024 0.70312 208.28 208.28 0 0 1-0.99219 0.69922 208.28 208.28 0 0 1-0.99804 0.69141 208.28 208.28 0 0 1-1 0.68555 208.28 208.28 0 0 1-1.0059 0.67968 208.28 208.28 0 0 1-1.0078 0.67383 208.28 208.28 0 0 1-1.0137 0.66797 208.28 208.28 0 0 1-1.0176 0.66406 208.28 208.28 0 0 1-1.0195 0.65625 208.28 208.28 0 0 1-1.0254 0.65039 208.28 208.28 0 0 1-1.0273 0.64453 208.28 208.28 0 0 1-1.0332 0.63868 208.28 208.28 0 0 1-1.0352 0.63086 208.28 208.28 0 0 1-1.0391 0.62695 208.28 208.28 0 0 1-1.043 0.62109 208.28 208.28 0 0 1-1.0469 0.61328 208.28 208.28 0 0 1-1.0508 0.60938 208.28 208.28 0 0 1-1.0527 0.60156 208.28 208.28 0 0 1-1.0586 0.5957 208.28 208.28 0 0 1-1.0605 0.58985 208.28 208.28 0 0 1-1.0645 0.58398 208.28 208.28 0 0 1-1.0664 0.57617 208.28 208.28 0 0 1-1.0703 0.57227 208.28 208.28 0 0 1-1.0742 0.56445 208.28 208.28 0 0 1-1.0781 0.5586 208.28 208.28 0 0 1-1.0801 0.55273 208.28 208.28 0 0 1-1.084 0.54492 208.28 208.28 0 0 1-1.0879 0.53907 208.28 208.28 0 0 1-1.0898 0.53515 208.28 208.28 0 0 1-1.0918 0.52539 208.28 208.28 0 0 1-1.0977 0.52149 208.28 208.28 0 0 1-1.0996 0.51367 208.28 208.28 0 0 1-1.1016 0.50781 208.28 208.28 0 0 1-1.1055 0.50195 208.28 208.28 0 0 1-1.1074 0.49415 208.28 208.28 0 0 1-1.1113 0.48828 208.28 208.28 0 0 1-1.1133 0.48242 208.28 208.28 0 0 1-1.1172 0.47461 208.28 208.28 0 0 1-1.1191 0.4707 208.28 208.28 0 0 1-1.1211 0.46094 208.28 208.28 0 0 1-1.125 0.45703 208.28 208.28 0 0 1-1.127 0.44922 208.28 208.28 0 0 1-1.1309 0.4414 208.28 208.28 0 0 1-1.1328 0.4375 208.28 208.28 0 0 1-1.1348 0.42969 208.28 208.28 0 0 1-1.1367 0.42188 208.28 208.28 0 0 1-1.1406 0.41601 208.28 208.28 0 0 1-1.1426 0.41016 208.28 208.28 0 0 1-1.1445 0.40234 208.28 208.28 0 0 1-1.1465 0.39649 208.28 208.28 0 0 1-1.1504 0.39062 208.28 208.28 0 0 1-1.1504 0.38281 208.28 208.28 0 0 1-1.1543 0.375 208.28 208.28 0 0 1-1.1562 0.36914 208.28 208.28 0 0 1-1.1582 0.36329 208.28 208.28 0 0 1-1.1602 0.35547 208.28 208.28 0 0 1-1.1621 0.3496 208.28 208.28 0 0 1-1.1641 0.3418 208.28 208.28 0 0 1-1.166 0.33594 208.28 208.28 0 0 1-1.168 0.33008 208.28 208.28 0 0 1-1.1699 0.32031 208.28 208.28 0 0 1-1.1719 0.31641 208.28 208.28 0 0 1-1.1738 0.30859 208.28 208.28 0 0 1-1.1758 0.30078 208.28 208.28 0 0 1-1.1777 0.29492 208.28 208.28 0 0 1-1.1797 0.28711 208.28 208.28 0 0 1-1.1797 0.28125 208.28 208.28 0 0 1-1.1816 0.27344 208.28 208.28 0 0 1-1.1856 0.26758 208.28 208.28 0 0 1-1.1836 0.25976 208.28 208.28 0 0 1-1.1875 0.25391 208.28 208.28 0 0 1-1.1894 0.24609 208.28 208.28 0 0 1-1.1895 0.24024 208.28 208.28 0 0 1-1.1914 0.23242 208.28 208.28 0 0 1-1.1914 0.22461 208.28 208.28 0 0 1-1.1934 0.21875 208.28 208.28 0 0 1-1.1953 0.21289 208.28 208.28 0 0 1-1.1953 0.20312 208.28 208.28 0 0 1-1.1992 0.19922 208.28 208.28 0 0 1-1.1973 0.18946 208.28 208.28 0 0 1-1.1992 0.18359 208.28 208.28 0 0 1-1.2012 0.17773 208.28 208.28 0 0 1-1.2012 0.16993 208.28 208.28 0 0 1-1.2031 0.16211 208.28 208.28 0 0 1-1.2031 0.15625 208.28 208.28 0 0 1-1.2051 0.14843 208.28 208.28 0 0 1-1.2051 0.14258 208.28 208.28 0 0 1-1.207 0.13477 208.28 208.28 0 0 1-1.2051 0.12695 208.28 208.28 0 0 1-1.209 0.12109 208.28 208.28 0 0 1-1.207 0.11329 208.28 208.28 0 0 1-1.209 0.10742 208.28 208.28 0 0 1-1.2109 0.0976 208.28 208.28 0 0 1-1.209 0.0937 208.28 208.28 0 0 1-1.2109 0.0859 208.28 208.28 0 0 1-1.2109 0.0781 208.28 208.28 0 0 1-1.2109 0.0703 208.28 208.28 0 0 1-1.2129 0.0645 208.28 208.28 0 0 1-1.2109 0.0566 208.28 208.28 0 0 1-1.2129 0.0508 208.28 208.28 0 0 1-1.2129 0.043 208.28 208.28 0 0 1-1.2129 0.0352 208.28 208.28 0 0 1-1.2129 0.0293 208.28 208.28 0 0 1-1.2148 0.0215 208.28 208.28 0 0 1-1.2129 0.0156 208.28 208.28 0 0 1-1.2129 8e-3 208.28 208.28 0 0 1-0.71484 2e-3 208.28 208.28 0 0 1-1.2129-4e-3 208.28 208.28 0 0 1-1.2148-0.0117 208.28 208.28 0 0 1-1.2129-0.0176 208.28 208.28 0 0 1-1.2129-0.0234 208.28 208.28 0 0 1-1.2129-0.0332 208.28 208.28 0 0 1-1.2129-0.0391 208.28 208.28 0 0 1-1.2129-0.0449 208.28 208.28 0 0 1-1.2129-0.0527 208.28 208.28 0 0 1-1.2129-0.0606 208.28 208.28 0 0 1-1.2109-0.0664 208.28 208.28 0 0 1-1.2109-0.0742 208.28 208.28 0 0 1-1.2109-0.082 208.28 208.28 0 0 1-1.2109-0.0879 208.28 208.28 0 0 1-1.209-0.0957 208.28 208.28 0 0 1-1.209-0.10156 208.28 208.28 0 0 1-1.209-0.11133 208.28 208.28 0 0 1-1.209-0.11523 208.28 208.28 0 0 1-1.207-0.12305 208.28 208.28 0 0 1-1.207-0.13086 208.28 208.28 0 0 1-1.2051-0.13867 208.28 208.28 0 0 1-1.2051-0.14453 208.28 208.28 0 0 1-1.2031-0.15039 208.28 208.28 0 0 1-1.2031-0.16016 208.28 208.28 0 0 1-1.2031-0.16406 208.28 208.28 0 0 1-1.2012-0.17383 208.28 208.28 0 0 1-1.1992-0.17969 208.28 208.28 0 0 1-1.1992-0.18555 208.28 208.28 0 0 1-1.1992-0.19531 208.28 208.28 0 0 1-1.1973-0.19922 208.28 208.28 0 0 1-1.1953-0.20703 208.28 208.28 0 0 1-1.1934-0.21484 208.28 208.28 0 0 1-1.1934-0.22266 208.28 208.28 0 0 1-1.1914-0.22851 208.28 208.28 0 0 1-1.1914-0.23438 208.28 208.28 0 0 1-1.1894-0.24219 208.28 208.28 0 0 1-1.1875-0.25 208.28 208.28 0 0 1-1.1856-0.25586 208.28 208.28 0 0 1-1.1855-0.26367 208.28 208.28 0 0 1-1.1836-0.26953 208.28 208.28 0 0 1-1.1816-0.27734 208.28 208.28 0 0 1-1.1797-0.28321 208.28 208.28 0 0 1-1.1777-0.29101 208.28 208.28 0 0 1-1.1758-0.29688 208.28 208.28 0 0 1-1.1758-0.30468 208.28 208.28 0 0 1-1.1719-0.31055 208.28 208.28 0 0 1-1.1719-0.31836 208.28 208.28 0 0 1-1.1699-0.32422 208.28 208.28 0 0 1-1.168-0.33203 208.28 208.28 0 0 1-1.1641-0.33789 208.28 208.28 0 0 1-1.1641-0.3457 208.28 208.28 0 0 1-1.1621-0.35157 208.28 208.28 0 0 1-1.1582-0.35937 208.28 208.28 0 0 1-1.1582-0.36524 208.28 208.28 0 0 1-1.1543-0.37304 208.28 208.28 0 0 1-1.1524-0.37891 208.28 208.28 0 0 1-1.1504-0.38476 208.28 208.28 0 0 1-1.1484-0.39258 208.28 208.28 0 0 1-1.1465-0.39844 208.28 208.28 0 0 1-1.1445-0.40625 208.28 208.28 0 0 1-1.1406-0.41211 208.28 208.28 0 0 1-1.1387-0.41992 208.28 208.28 0 0 1-1.1367-0.42383 208.28 208.28 0 0 1-1.1348-0.43359 208.28 208.28 0 0 1-1.1309-0.4375 208.28 208.28 0 0 1-1.1289-0.44727 208.28 208.28 0 0 1-1.127-0.45117 208.28 208.28 0 0 1-1.123-0.45898 208.28 208.28 0 0 1-1.1211-0.46485 208.28 208.28 0 0 1-1.1191-0.4707 208.28 208.28 0 0 1-1.1152-0.47852 208.28 208.28 0 0 1-1.1113-0.48437 208.28 208.28 0 0 1-1.1094-0.49219 208.28 208.28 0 0 1-1.1074-0.49609 208.28 208.28 0 0 1-1.1035-0.50391 208.28 208.28 0 0 1-1.1016-0.51172 208.28 208.28 0 0 1-1.0976-0.51562 208.28 208.28 0 0 1-1.0957-0.52344 208.28 208.28 0 0 1-1.0918-0.5293 208.28 208.28 0 0 1-1.0898-0.53711 208.28 208.28 0 0 1-1.084-0.54101 208.28 208.28 0 0 1-1.084-0.54883 208.28 208.28 0 0 1-1.0781-0.55469 208.28 208.28 0 0 1-1.0762-0.5625 208.28 208.28 0 0 1-1.0723-0.56641 208.28 208.28 0 0 1-1.0703-0.57421 208.28 208.28 0 0 1-1.0664-0.58008 208.28 208.28 0 0 1-1.0625-0.58594 208.28 208.28 0 0 1-1.0586-0.5918 208.28 208.28 0 0 1-1.0566-0.59961 208.28 208.28 0 0 1-1.0527-0.60351 208.28 208.28 0 0 1-1.0469-0.61133 208.28 208.28 0 0 1-1.0469-0.61719 208.28 208.28 0 0 1-1.041-0.62109 208.28 208.28 0 0 1-1.0371-0.62891 208.28 208.28 0 0 1-1.0352-0.63672 208.28 208.28 0 0 1-1.0293-0.64062 208.28 208.28 0 0 1-1.0274-0.64649 208.28 208.28 0 0 1-1.0234-0.65234 208.28 208.28 0 0 1-1.0195-0.66016 208.28 208.28 0 0 1-1.0137-0.66406 208.28 208.28 0 0 1-1.0117-0.66992 208.28 208.28 0 0 1-1.0078-0.67773 208.28 208.28 0 0 1-1.0039-0.68164 208.28 208.28 0 0 1-1-0.68946 208.28 208.28 0 0 1-0.99414-0.69336 208.28 208.28 0 0 1-0.99218-0.69922 208.28 208.28 0 0 1-0.98633-0.70703 208.28 208.28 0 0 1-0.98438-0.71093 208.28 208.28 0 0 1-0.97851-0.7168 208.28 208.28 0 0 1-0.97461-0.72266 208.28 208.28 0 0 1-0.97071-0.72851 208.28 208.28 0 0 1-0.96679-0.73438 208.28 208.28 0 0 1-0.96289-0.74023 208.28 208.28 0 0 1-0.95703-0.74414 208.28 208.28 0 0 1-0.95313-0.75196 208.28 208.28 0 0 1-0.94922-0.75586 208.28 208.28 0 0 1-0.94336-0.76171 208.28 208.28 0 0 1-0.9414-0.76758 208.28 208.28 0 0 1-0.93555-0.77344 208.28 208.28 0 0 1-0.93164-0.77734 208.28 208.28 0 0 1-0.92578-0.78516 208.28 208.28 0 0 1-0.92188-0.78906 208.28 208.28 0 0 1-0.91797-0.79492 208.28 208.28 0 0 1-0.91211-0.79883 208.28 208.28 0 0 1-0.9082-0.80469 208.28 208.28 0 0 1-0.90234-0.81055 208.28 208.28 0 0 1-0.89844-0.8164 208.28 208.28 0 0 1-0.89453-0.82032 208.28 208.28 0 0 1-0.88867-0.82617 208.28 208.28 0 0 1-0.88477-0.83203 208.28 208.28 0 0 1-0.87891-0.83594 208.28 208.28 0 0 1-0.875-0.84179 208.28 208.28 0 0 1-0.86914-0.84571 208.28 208.28 0 0 1-0.86523-0.85156 208.28 208.28 0 0 1-0.85937-0.85742 208.28 208.28 0 0 1-0.85352-0.86133 208.28 208.28 0 0 1-0.84961-0.86719 208.28 208.28 0 0 1-0.8457-0.87109 208.28 208.28 0 0 1-0.83985-0.87695 208.28 208.28 0 0 1-0.83398-0.88086 208.28 208.28 0 0 1-0.82813-0.88672 208.28 208.28 0 0 1-0.82421-0.89063 208.28 208.28 0 0 1-0.81836-0.89648 208.28 208.28 0 0 1-0.81446-0.90039 208.28 208.28 0 0 1-0.80859-0.9043 208.28 208.28 0 0 1-0.80274-0.91015 208.28 208.28 0 0 1-0.79687-0.91407 208.28 208.28 0 0 1-0.79297-0.91992 208.28 208.28 0 0 1-0.78711-0.92383 208.28 208.28 0 0 1-0.78125-0.92773 208.28 208.28 0 0 1-0.77539-0.93359 208.28 208.28 0 0 1-0.77148-0.9375 208.28 208.28 0 0 1-0.76563-0.94141 208.28 208.28 0 0 1-0.75976-0.94727 208.28 208.28 0 0 1-0.75391-0.95117 208.28 208.28 0 0 1-0.74805-0.95508 208.28 208.28 0 0 1-0.74219-0.95898 208.28 208.28 0 0 1-0.73828-0.96289 208.28 208.28 0 0 1-0.73242-0.96875 208.28 208.28 0 0 1-0.72461-0.97266 208.28 208.28 0 0 1-0.7207-0.97656 208.28 208.28 0 0 1-0.71484-0.98047 208.28 208.28 0 0 1-0.70899-0.98437 208.28 208.28 0 0 1-0.70312-0.99024 208.28 208.28 0 0 1-0.69922-0.99219 208.28 208.28 0 0 1-0.69141-0.99804 208.28 208.28 0 0 1-0.68555-1 208.28 208.28 0 0 1-0.67968-1.0059 208.28 208.28 0 0 1-0.67383-1.0078 208.28 208.28 0 0 1-0.66797-1.0137 208.28 208.28 0 0 1-0.66406-1.0176 208.28 208.28 0 0 1-0.65625-1.0195 208.28 208.28 0 0 1-0.65039-1.0254 208.28 208.28 0 0 1-0.64453-1.0273 208.28 208.28 0 0 1-0.63868-1.0332 208.28 208.28 0 0 1-0.63086-1.0352 208.28 208.28 0 0 1-0.62695-1.0391 208.28 208.28 0 0 1-0.62109-1.043 208.28 208.28 0 0 1-0.61328-1.0469 208.28 208.28 0 0 1-0.60938-1.0508 208.28 208.28 0 0 1-0.60156-1.0527 208.28 208.28 0 0 1-0.5957-1.0586 208.28 208.28 0 0 1-0.58985-1.0605 208.28 208.28 0 0 1-0.58398-1.0645 208.28 208.28 0 0 1-0.57617-1.0664 208.28 208.28 0 0 1-0.57227-1.0703 208.28 208.28 0 0 1-0.56445-1.0742 208.28 208.28 0 0 1-0.5586-1.0781 208.28 208.28 0 0 1-0.55273-1.0801 208.28 208.28 0 0 1-0.54492-1.084 208.28 208.28 0 0 1-0.53907-1.0879 208.28 208.28 0 0 1-0.53515-1.0898 208.28 208.28 0 0 1-0.52539-1.0918 208.28 208.28 0 0 1-0.52149-1.0977 208.28 208.28 0 0 1-0.51367-1.0996 208.28 208.28 0 0 1-0.50781-1.1016 208.28 208.28 0 0 1-0.50195-1.1055 208.28 208.28 0 0 1-0.49415-1.1074 208.28 208.28 0 0 1-0.48828-1.1113 208.28 208.28 0 0 1-0.48242-1.1133 208.28 208.28 0 0 1-0.47461-1.1172 208.28 208.28 0 0 1-0.4707-1.1191 208.28 208.28 0 0 1-0.46094-1.1211 208.28 208.28 0 0 1-0.45703-1.125 208.28 208.28 0 0 1-0.44922-1.127 208.28 208.28 0 0 1-0.4414-1.1309 208.28 208.28 0 0 1-0.4375-1.1328 208.28 208.28 0 0 1-0.42969-1.1348 208.28 208.28 0 0 1-0.42188-1.1367 208.28 208.28 0 0 1-0.41601-1.1406 208.28 208.28 0 0 1-0.41016-1.1426 208.28 208.28 0 0 1-0.40234-1.1445 208.28 208.28 0 0 1-0.39649-1.1465 208.28 208.28 0 0 1-0.39062-1.1504 208.28 208.28 0 0 1-0.38281-1.1504 208.28 208.28 0 0 1-0.375-1.1543 208.28 208.28 0 0 1-0.36914-1.1562 208.28 208.28 0 0 1-0.36329-1.1582 208.28 208.28 0 0 1-0.35547-1.1602 208.28 208.28 0 0 1-0.3496-1.1621 208.28 208.28 0 0 1-0.3418-1.1641 208.28 208.28 0 0 1-0.33594-1.166 208.28 208.28 0 0 1-0.33008-1.168 208.28 208.28 0 0 1-0.32031-1.1699 208.28 208.28 0 0 1-0.31641-1.1719 208.28 208.28 0 0 1-0.30859-1.1738 208.28 208.28 0 0 1-0.30078-1.1758 208.28 208.28 0 0 1-0.29492-1.1777 208.28 208.28 0 0 1-0.28711-1.1797 208.28 208.28 0 0 1-0.28125-1.1797 208.28 208.28 0 0 1-0.27344-1.1816 208.28 208.28 0 0 1-0.26758-1.1856 208.28 208.28 0 0 1-0.25976-1.1836 208.28 208.28 0 0 1-0.25391-1.1875 208.28 208.28 0 0 1-0.24609-1.1894 208.28 208.28 0 0 1-0.24024-1.1895 208.28 208.28 0 0 1-0.23242-1.1914 208.28 208.28 0 0 1-0.22461-1.1914 208.28 208.28 0 0 1-0.21875-1.1934 208.28 208.28 0 0 1-0.21289-1.1953 208.28 208.28 0 0 1-0.20312-1.1953 208.28 208.28 0 0 1-0.19922-1.1992 208.28 208.28 0 0 1-0.18946-1.1973 208.28 208.28 0 0 1-0.18359-1.1992 208.28 208.28 0 0 1-0.17773-1.2012 208.28 208.28 0 0 1-0.16993-1.2012 208.28 208.28 0 0 1-0.16211-1.2031 208.28 208.28 0 0 1-0.15625-1.2031 208.28 208.28 0 0 1-0.14843-1.2051 208.28 208.28 0 0 1-0.14258-1.2051 208.28 208.28 0 0 1-0.13477-1.207 208.28 208.28 0 0 1-0.12695-1.2051 208.28 208.28 0 0 1-0.12109-1.209 208.28 208.28 0 0 1-0.11329-1.207 208.28 208.28 0 0 1-0.10742-1.209 208.28 208.28 0 0 1-0.0976-1.2109 208.28 208.28 0 0 1-0.0937-1.209 208.28 208.28 0 0 1-0.0859-1.2109 208.28 208.28 0 0 1-0.0781-1.2109 208.28 208.28 0 0 1-0.0703-1.2109 208.28 208.28 0 0 1-0.0644-1.2129 208.28 208.28 0 0 1-0.0566-1.2109 208.28 208.28 0 0 1-0.0508-1.2129 208.28 208.28 0 0 1-0.043-1.2129 208.28 208.28 0 0 1-0.0352-1.2129 208.28 208.28 0 0 1-0.0293-1.2129 208.28 208.28 0 0 1-0.0215-1.2148 208.28 208.28 0 0 1-0.0156-1.2129 208.28 208.28 0 0 1-8e-3 -1.2129 208.28 208.28 0 0 1-2e-3 -0.71484 208.28 208.28 0 0 1 4e-3 -1.2129 208.28 208.28 0 0 1 0.0117-1.2148 208.28 208.28 0 0 1 0.0176-1.2129 208.28 208.28 0 0 1 0.0234-1.2129 208.28 208.28 0 0 1 0.0332-1.2129 208.28 208.28 0 0 1 0.0391-1.2129 208.28 208.28 0 0 1 0.0449-1.2129 208.28 208.28 0 0 1 0.0527-1.2129 208.28 208.28 0 0 1 0.0606-1.2129 208.28 208.28 0 0 1 0.0664-1.2109 208.28 208.28 0 0 1 0.0742-1.2109 208.28 208.28 0 0 1 0.082-1.2109 208.28 208.28 0 0 1 0.0879-1.2109 208.28 208.28 0 0 1 0.0957-1.209 208.28 208.28 0 0 1 0.10156-1.209 208.28 208.28 0 0 1 0.11133-1.209 208.28 208.28 0 0 1 0.11523-1.209 208.28 208.28 0 0 1 0.12305-1.207 208.28 208.28 0 0 1 0.13086-1.207 208.28 208.28 0 0 1 0.13867-1.2051 208.28 208.28 0 0 1 0.14453-1.2051 208.28 208.28 0 0 1 0.15039-1.2031 208.28 208.28 0 0 1 0.16016-1.2031 208.28 208.28 0 0 1 0.16406-1.2031 208.28 208.28 0 0 1 0.17383-1.2012 208.28 208.28 0 0 1 0.17969-1.1992 208.28 208.28 0 0 1 0.18555-1.1992 208.28 208.28 0 0 1 0.19531-1.1992 208.28 208.28 0 0 1 0.19922-1.1973 208.28 208.28 0 0 1 0.20703-1.1953 208.28 208.28 0 0 1 0.21484-1.1934 208.28 208.28 0 0 1 0.22266-1.1934 208.28 208.28 0 0 1 0.22851-1.1914 208.28 208.28 0 0 1 0.23438-1.1914 208.28 208.28 0 0 1 0.24219-1.1894 208.28 208.28 0 0 1 0.25-1.1875 208.28 208.28 0 0 1 0.25586-1.1856 208.28 208.28 0 0 1 0.26367-1.1855 208.28 208.28 0 0 1 0.26953-1.1836 208.28 208.28 0 0 1 0.27734-1.1816 208.28 208.28 0 0 1 0.28321-1.1797 208.28 208.28 0 0 1 0.29101-1.1777 208.28 208.28 0 0 1 0.29688-1.1758 208.28 208.28 0 0 1 0.30468-1.1758 208.28 208.28 0 0 1 0.31055-1.1719 208.28 208.28 0 0 1 0.31836-1.1719 208.28 208.28 0 0 1 0.32422-1.1699 208.28 208.28 0 0 1 0.33203-1.168 208.28 208.28 0 0 1 0.33789-1.1641 208.28 208.28 0 0 1 0.3457-1.1641 208.28 208.28 0 0 1 0.35157-1.1621 208.28 208.28 0 0 1 0.35937-1.1582 208.28 208.28 0 0 1 0.36524-1.1582 208.28 208.28 0 0 1 0.37304-1.1543 208.28 208.28 0 0 1 0.37891-1.1524 208.28 208.28 0 0 1 0.38476-1.1504 208.28 208.28 0 0 1 0.39258-1.1484 208.28 208.28 0 0 1 0.39844-1.1465 208.28 208.28 0 0 1 0.40625-1.1445 208.28 208.28 0 0 1 0.41211-1.1406 208.28 208.28 0 0 1 0.41992-1.1387 208.28 208.28 0 0 1 0.42383-1.1367 208.28 208.28 0 0 1 0.43359-1.1348 208.28 208.28 0 0 1 0.4375-1.1309 208.28 208.28 0 0 1 0.44727-1.1289 208.28 208.28 0 0 1 0.45117-1.127 208.28 208.28 0 0 1 0.45898-1.123 208.28 208.28 0 0 1 0.46485-1.1211 208.28 208.28 0 0 1 0.4707-1.1191 208.28 208.28 0 0 1 0.47852-1.1152 208.28 208.28 0 0 1 0.48437-1.1113 208.28 208.28 0 0 1 0.49219-1.1094 208.28 208.28 0 0 1 0.49609-1.1074 208.28 208.28 0 0 1 0.50391-1.1035 208.28 208.28 0 0 1 0.51172-1.1016 208.28 208.28 0 0 1 0.51562-1.0976 208.28 208.28 0 0 1 0.52344-1.0957 208.28 208.28 0 0 1 0.5293-1.0918 208.28 208.28 0 0 1 0.53711-1.0898 208.28 208.28 0 0 1 0.54101-1.084 208.28 208.28 0 0 1 0.54883-1.084 208.28 208.28 0 0 1 0.55469-1.0781 208.28 208.28 0 0 1 0.5625-1.0762 208.28 208.28 0 0 1 0.56641-1.0723 208.28 208.28 0 0 1 0.57421-1.0703 208.28 208.28 0 0 1 0.58008-1.0664 208.28 208.28 0 0 1 0.58594-1.0625 208.28 208.28 0 0 1 0.5918-1.0586 208.28 208.28 0 0 1 0.59961-1.0566 208.28 208.28 0 0 1 0.60351-1.0527 208.28 208.28 0 0 1 0.61133-1.0469 208.28 208.28 0 0 1 0.61719-1.0469 208.28 208.28 0 0 1 0.62109-1.041 208.28 208.28 0 0 1 0.62891-1.0371 208.28 208.28 0 0 1 0.63672-1.0352 208.28 208.28 0 0 1 0.64062-1.0293 208.28 208.28 0 0 1 0.64649-1.0274 208.28 208.28 0 0 1 0.65234-1.0234 208.28 208.28 0 0 1 0.66016-1.0195 208.28 208.28 0 0 1 0.66406-1.0137 208.28 208.28 0 0 1 0.66992-1.0117 208.28 208.28 0 0 1 0.67773-1.0078 208.28 208.28 0 0 1 0.68164-1.0039 208.28 208.28 0 0 1 0.68946-1 208.28 208.28 0 0 1 0.69336-0.99414 208.28 208.28 0 0 1 0.69922-0.99218 208.28 208.28 0 0 1 0.70703-0.98633 208.28 208.28 0 0 1 0.71093-0.98438 208.28 208.28 0 0 1 0.7168-0.97851 208.28 208.28 0 0 1 0.72266-0.97461 208.28 208.28 0 0 1 0.72851-0.97071 208.28 208.28 0 0 1 0.73438-0.96679 208.28 208.28 0 0 1 0.74023-0.96289 208.28 208.28 0 0 1 0.74414-0.95703 208.28 208.28 0 0 1 0.75196-0.95313 208.28 208.28 0 0 1 0.75586-0.94922 208.28 208.28 0 0 1 0.76171-0.94336 208.28 208.28 0 0 1 0.76758-0.9414 208.28 208.28 0 0 1 0.77344-0.93555 208.28 208.28 0 0 1 0.77734-0.93164 208.28 208.28 0 0 1 0.78516-0.92578 208.28 208.28 0 0 1 0.78906-0.92188 208.28 208.28 0 0 1 0.79492-0.91797 208.28 208.28 0 0 1 0.79883-0.91211 208.28 208.28 0 0 1 0.80469-0.9082 208.28 208.28 0 0 1 0.81055-0.90234 208.28 208.28 0 0 1 0.8164-0.89844 208.28 208.28 0 0 1 0.82032-0.89453 208.28 208.28 0 0 1 0.82617-0.88867 208.28 208.28 0 0 1 0.83203-0.88477 208.28 208.28 0 0 1 0.83594-0.87891 208.28 208.28 0 0 1 0.84179-0.875 208.28 208.28 0 0 1 0.84571-0.86914 208.28 208.28 0 0 1 0.85156-0.86523 208.28 208.28 0 0 1 0.85742-0.85937 208.28 208.28 0 0 1 0.86133-0.85352 208.28 208.28 0 0 1 0.86719-0.84961 208.28 208.28 0 0 1 0.87109-0.8457 208.28 208.28 0 0 1 0.87695-0.83985 208.28 208.28 0 0 1 0.88086-0.83398 208.28 208.28 0 0 1 0.88672-0.82813 208.28 208.28 0 0 1 0.89063-0.82421 208.28 208.28 0 0 1 0.89648-0.81836 208.28 208.28 0 0 1 0.90039-0.81446 208.28 208.28 0 0 1 0.9043-0.80859 208.28 208.28 0 0 1 0.91015-0.80274 208.28 208.28 0 0 1 0.91407-0.79687 208.28 208.28 0 0 1 0.91992-0.79297 208.28 208.28 0 0 1 0.92383-0.78711 208.28 208.28 0 0 1 0.92773-0.78125 208.28 208.28 0 0 1 0.93359-0.77539 208.28 208.28 0 0 1 0.9375-0.77148 208.28 208.28 0 0 1 0.94141-0.76563 208.28 208.28 0 0 1 0.94727-0.75976 208.28 208.28 0 0 1 0.95117-0.75391 208.28 208.28 0 0 1 0.95508-0.74805 208.28 208.28 0 0 1 0.95898-0.74219 208.28 208.28 0 0 1 0.96289-0.73828 208.28 208.28 0 0 1 0.96875-0.73242 208.28 208.28 0 0 1 0.97266-0.72461 208.28 208.28 0 0 1 0.97656-0.7207 208.28 208.28 0 0 1 0.98047-0.71484 208.28 208.28 0 0 1 0.98437-0.70899 208.28 208.28 0 0 1 0.99024-0.70312 208.28 208.28 0 0 1 0.99219-0.69922 208.28 208.28 0 0 1 0.99804-0.69141 208.28 208.28 0 0 1 1-0.68555 208.28 208.28 0 0 1 1.0059-0.67968 208.28 208.28 0 0 1 1.0078-0.67383 208.28 208.28 0 0 1 1.0137-0.66797 208.28 208.28 0 0 1 1.0176-0.66406 208.28 208.28 0 0 1 1.0195-0.65625 208.28 208.28 0 0 1 1.0254-0.65039 208.28 208.28 0 0 1 1.0273-0.64453 208.28 208.28 0 0 1 1.0332-0.63868 208.28 208.28 0 0 1 1.0352-0.63086 208.28 208.28 0 0 1 1.0391-0.62695 208.28 208.28 0 0 1 1.043-0.62109 208.28 208.28 0 0 1 1.0469-0.61328 208.28 208.28 0 0 1 1.0508-0.60938 208.28 208.28 0 0 1 1.0527-0.60156 208.28 208.28 0 0 1 1.0586-0.5957 208.28 208.28 0 0 1 1.0605-0.58985 208.28 208.28 0 0 1 1.0645-0.58398 208.28 208.28 0 0 1 1.0664-0.57617 208.28 208.28 0 0 1 1.0703-0.57227 208.28 208.28 0 0 1 1.0742-0.56445 208.28 208.28 0 0 1 1.0781-0.5586 208.28 208.28 0 0 1 1.0801-0.55273 208.28 208.28 0 0 1 1.084-0.54492 208.28 208.28 0 0 1 1.0879-0.53907 208.28 208.28 0 0 1 1.0898-0.53515 208.28 208.28 0 0 1 1.0918-0.52539 208.28 208.28 0 0 1 1.0977-0.52149 208.28 208.28 0 0 1 1.0996-0.51367 208.28 208.28 0 0 1 1.1016-0.50781 208.28 208.28 0 0 1 1.1055-0.50195 208.28 208.28 0 0 1 1.1074-0.49415 208.28 208.28 0 0 1 1.1113-0.48828 208.28 208.28 0 0 1 1.1133-0.48242 208.28 208.28 0 0 1 1.1172-0.47461 208.28 208.28 0 0 1 1.1191-0.4707 208.28 208.28 0 0 1 1.1211-0.46094 208.28 208.28 0 0 1 1.125-0.45703 208.28 208.28 0 0 1 1.127-0.44922 208.28 208.28 0 0 1 1.1309-0.4414 208.28 208.28 0 0 1 1.1328-0.4375 208.28 208.28 0 0 1 1.1348-0.42969 208.28 208.28 0 0 1 1.1367-0.42188 208.28 208.28 0 0 1 1.1406-0.41601 208.28 208.28 0 0 1 1.1426-0.41016 208.28 208.28 0 0 1 1.1445-0.40234 208.28 208.28 0 0 1 1.1465-0.39649 208.28 208.28 0 0 1 1.1504-0.39062 208.28 208.28 0 0 1 1.1504-0.38281 208.28 208.28 0 0 1 1.1543-0.375 208.28 208.28 0 0 1 1.1562-0.36914 208.28 208.28 0 0 1 1.1582-0.36329 208.28 208.28 0 0 1 1.1602-0.35547 208.28 208.28 0 0 1 1.1621-0.3496 208.28 208.28 0 0 1 1.1641-0.3418 208.28 208.28 0 0 1 1.166-0.33594 208.28 208.28 0 0 1 1.168-0.33008 208.28 208.28 0 0 1 1.1699-0.32031 208.28 208.28 0 0 1 1.1719-0.31641 208.28 208.28 0 0 1 1.1738-0.30859 208.28 208.28 0 0 1 1.1758-0.30078 208.28 208.28 0 0 1 1.1777-0.29492 208.28 208.28 0 0 1 1.1797-0.28711 208.28 208.28 0 0 1 1.1797-0.28125 208.28 208.28 0 0 1 1.1816-0.27344 208.28 208.28 0 0 1 1.1856-0.26758 208.28 208.28 0 0 1 1.1836-0.25976 208.28 208.28 0 0 1 1.1875-0.25391 208.28 208.28 0 0 1 1.1894-0.24609 208.28 208.28 0 0 1 1.1895-0.24024 208.28 208.28 0 0 1 1.1914-0.23242 208.28 208.28 0 0 1 1.1914-0.22461 208.28 208.28 0 0 1 1.1934-0.21875 208.28 208.28 0 0 1 1.1953-0.21289 208.28 208.28 0 0 1 1.1953-0.20312 208.28 208.28 0 0 1 1.1992-0.19922 208.28 208.28 0 0 1 1.1973-0.18946 208.28 208.28 0 0 1 1.1992-0.18359 208.28 208.28 0 0 1 1.2012-0.17773 208.28 208.28 0 0 1 1.2012-0.16993 208.28 208.28 0 0 1 1.2031-0.16211 208.28 208.28 0 0 1 1.2031-0.15625 208.28 208.28 0 0 1 1.2051-0.14843 208.28 208.28 0 0 1 1.2051-0.14258 208.28 208.28 0 0 1 1.207-0.13477 208.28 208.28 0 0 1 1.2051-0.12695 208.28 208.28 0 0 1 1.209-0.12109 208.28 208.28 0 0 1 1.207-0.11329 208.28 208.28 0 0 1 1.209-0.10742 208.28 208.28 0 0 1 1.2109-0.0976 208.28 208.28 0 0 1 1.209-0.0937 208.28 208.28 0 0 1 1.2109-0.0859 208.28 208.28 0 0 1 1.2109-0.0781 208.28 208.28 0 0 1 1.2109-0.0703 208.28 208.28 0 0 1 1.2129-0.0644 208.28 208.28 0 0 1 1.2109-0.0566 208.28 208.28 0 0 1 1.2129-0.0508 208.28 208.28 0 0 1 1.2129-0.043 208.28 208.28 0 0 1 1.2129-0.0352 208.28 208.28 0 0 1 1.2129-0.0293 208.28 208.28 0 0 1 1.2148-0.0215 208.28 208.28 0 0 1 1.2129-0.0156 208.28 208.28 0 0 1 1.2129-8e-3 208.28 208.28 0 0 1 0.71484-2e-3z" opacity=".997"/>
  <path id="logo__dot--0" transform="matrix(.40383 0 0 .40383 137.59 249.14)" d="m653 35.972c18.86-2.94 35.51-18.177 40.547-37.102 6.694-25.15-9.147-52.844-34.478-60.276-8.334-2.444-22.043-2.09-30.176 0.781-16.536 5.838-29.43 20.462-32.944 37.363-5.584 26.866 13.537 54.462 41.051 59.245 6.476 1.125 8.72 1.124 16-0.012z" filter="url(#filter1115)" opacity=".993"/>
  <path id="logo__dot--4" transform="matrix(.40383 0 0 .40383 137.59 249.14)" d="m836.05 331.1c12.824-5.13 23.975-16.617 28.987-29.86 2.736-7.227 3.665-20.067 1.98-27.349-5.908-25.53-30.773-42.85-56.018-39.021-29.11 4.415-48.76 33.601-41.469 61.593 4.388 16.846 18.709 31.476 35.469 36.235 7.088 2.012 24.233 1.13 31.05-1.597z" filter="url(#filter1119)" opacity=".993"/>
  <path id="logo__dot--3" transform="matrix(.40383 0 0 .40383 137.59 249.14)" d="m496.28 331.92c15.032-5.04 27.165-16.861 32.245-31.415 2.27-6.504 3.014-19.577 1.523-26.76-5.164-24.876-30.559-42.522-55.898-38.843-33.207 4.822-52.362 40.436-38.144 70.915 5.549 11.893 20.378 24.203 32.62 27.078 7.449 1.75 20.948 1.273 27.653-0.975z" filter="url(#filter1123)" opacity=".993"/>
  <path id="logo__dot--7" transform="matrix(.40383 0 0 .40383 137.59 249.14)" d="m834.17 524.13c20.173-7.005 33.828-26.03 33.828-47.131 0-13.226-4.728-24.766-14.18-34.608-19.585-20.397-51.962-20.635-71.1-0.524-15.568 16.358-18.997 37.27-9.368 57.123 6.171 12.726 20.714 24.034 34.704 26.984 6.443 1.36 19.557 0.433 26.116-1.844z" filter="url(#filter1127)" opacity=".993"/>
  <path id="logo__dot--6" transform="matrix(.40383 0 0 .40383 137.59 249.14)" d="m497.42 524.05c20.235-7.024 33.581-25.961 33.581-47.65 0-26.719-22.713-49.396-49.471-49.396-14.209 0-25.44 4.697-35.612 14.89-19.713 19.758-19.842 49.831-0.298 69.824 6.505 6.655 16.837 12.447 25.437 14.261 6.54 1.38 19.579 0.426 26.363-1.93z" filter="url(#filter1131)" opacity=".993"/>
  <path id="logo__dot--1" d="m335.11 304.91c14.856-1.9067 22.651-21.907 12.064-32.981-9.7741-12.874-32.588-6.8581-35.103 9.061-2.9822 13.115 9.7766 26.555 23.039 23.92z" stroke-width=".40383"/>
  <path id="logo__dot--2" d="m471.03 304.82c14.856-1.9067 22.651-21.907 12.064-32.981-9.7741-12.874-32.588-6.8581-35.103 9.061-2.9822 13.115 9.7766 26.555 23.039 23.92z" stroke-width=".40383"/>
  <path id="logo__dot--5" d="m405.35 417.43c14.643-5.1306 17.498-27.211 4.1228-35.428-12.581-9.824-32.708 1.485-31.594 17.199 0.24837 13.596 14.93 22.975 27.471 18.229z" stroke-width=".40383"/>
  <path id="logo__dot--8" d="m405.35 498.28c14.643-5.1306 17.498-27.211 4.1228-35.428-12.581-9.824-32.708 1.485-31.594 17.199 0.24837 13.596 14.93 22.975 27.471 18.229z" stroke-width=".40383"/>
  <path id="logo__dot--9" d="m405.47 575.24c14.643-5.1306 17.498-27.211 4.1228-35.428-12.581-9.824-32.708 1.485-31.594 17.199 0.24837 13.596 14.93 22.975 27.471 18.229z" stroke-width=".40383"/>
  <g id="logo__cabala" fill="none" stroke="#000">
   <path id="path284" d="m328.53 268.55h140.25v35.74h-138.17z" stroke-width="1.0196px"/>
   <path id="path286" d="m391.27 225.86c-73.364 45.91-73.201 46.006-73.201 46.006l19.447 30.819 75.44-47.064z" stroke-width="1px"/>
   <path id="path288" d="m409.5 228.17 71.059 41.824-20.765 31.31-73.825-43.372z" stroke-width="1px"/>
   <path id="path290" d="m378.79 244.5v312.36h38.319v-312.89z" stroke-width="1.1472px"/>
   <path id="path292" d="m312.14 284.92v157.57h39.22v-158.23z" stroke-width="1px"/>
   <path id="path294" d="m448.49 284.92v157.57h38.992v-158.23z" stroke-width=".9971px"/>
   <path id="path296" d="m315.68 293.45c35.28 55.836 45.187 77.455 67.5 116.18l32.478-18.828-67.67-116.95-32.308 19.592" stroke-width=".9956px"/>
   <path id="path298" d="m486.33 291.27c-70.134 113.74-71.18 114.2-71.18 114.2l-31.082-19.95 67.768-112.02z" stroke-width="1px"/>
   <path id="path300" d="m329.73 344.66c141.1 0 141.1 0.22993 141.1 0.22993v38.168h-141.57z" stroke-width="1.0088px"/>
   <path id="path302" d="m322.75 381.12c66.331 34.319 68.125 35.039 68.125 35.039l19.409-32.845-70.923-37.261z" stroke-width="1px"/>
   <path id="path450" d="m461.66 345.72c-71.737 36.622-75.681 38.58-75.681 38.58l21.035 31.571 69.831-34.316z" stroke-width="1.0119px"/>
   <path id="path452" d="m320.2 426.15c69.331-45.188 68.87-44.909 68.87-44.909l19.152 33.172-64.829 42.684z" stroke-width="1px"/>
   <path id="path454" d="m479.77 426.43c-72.431-44.372-72.104-44.698-72.104-44.698l-16.788 34.432 70.394 44.42z" stroke-width="1px"/>
   <path id="path456" d="m329.91 422.3 138.88-0.34606v38.989h-138.19z" stroke-width="1px"/>
   <path id="path458" d="m320.45 457.02 69.491 39.912 19.083-33.134-67.064-38.816z" stroke-width=".99876px"/>
   <path id="path460" d="m482.29 454.72c-74.287 40.373-73.71 40.835-73.71 40.835l-24.685-28.607 78.209-44.064z" stroke-width="1px"/>
   <path id="path462" d="m412.72 569.33 72.757-118.76-32.086-21.883-69.709 115.52z" stroke-width="1px"/>
   <path id="path464" d="m315.5 452.85 67.863 116.48 31.186-21.613c-22.467-34.477-43.813-72.876-65.071-111.59z" stroke-width="1px"/>
  </g>
  <path id="logo__Y" d="m468.36 264.85c-8.7819 0.0175-17.747 5.4539-20.031 14.451l-49.676 82.113-47.082-81.367c-0.68872-2.94-2.1108-5.7364-4.3887-8.1191-9.7741-12.874-32.588-6.8586-35.104 9.0606-1.8309 8.0517 2.2758 16.219 8.7852 20.721 28.375 45.414 39.332 67.36 57.084 98.723 0.12141 1.4544 0.41617 2.8516 0.84766 4.1855v68.494c-0.744 2.1656-1.0852 4.4986-0.91211 6.9394 0.0347 1.8974 0.36029 3.7098 0.91211 5.416v64.99c-0.65532 2.057-0.9579 4.257-0.79492 6.5547 0.24837 13.596 14.93 22.975 27.471 18.229 10.538-3.6923 14.971-16.163 11.643-25.928v-63.779c1.2674-4.1574 1.3048-8.6983 0-12.799v-68.051c0.32678-1.0719 0.5668-2.17 0.72851-3.2793 4.8434-7.5056 19.624-30.946 62.857-101.01 7.9428-6.9549 10.33-20.26 2.3984-28.557-3.6653-4.8277-9.1637-6.9994-14.738-6.9883z" opacity=".999"/>
 </g>
</svg>
